M48
; DRILL file KiCad 10.0.5 date 2026-09-10T14:25:15
; FORMAT={-:-/ absolute / metric / decimal}
; #@! TF.CreationDate,2026-09-10T14:25:15+08:00
; #@! TF.GenerationSoftware,Kicad,Pcbnew,10.0.5
; #@! TF.FileFunction,Plated,1,2,PTH
FMAT,2
METRIC
; #@! TA.AperFunction,Plated,PTH,ViaDrill
T1C0.300
; #@! TA.AperFunction,Plated,PTH,ViaDrill
T2C0.400
; #@! TA.AperFunction,Plated,PTH,ComponentDrill
T3C0.500
; #@! TA.AperFunction,Plated,PTH,ComponentDrill
T4C0.600
; #@! TA.AperFunction,Plated,PTH,ComponentDrill
T5C1.000
; #@! TA.AperFunction,Plated,PTH,ViaDrill
T6C2.300
%
G90
G05
T1
X109.25Y-45.2
X110.6Y-44.3
T2
X106.75Y-48.75
X112.53Y-48.27
X112.7Y-44.2
X120.7Y-42.45
X122.0Y-41.9
X123.2Y-41.9
X124.4Y-41.95
X124.85Y-45.9
X125.05Y-43.1
X131.35Y-43.05
X132.1Y-45.9
X136.2Y-41.1
X136.4Y-43.8
X136.9Y-42.05
X137.125Y-44.9
X137.85Y-46.1
X140.0Y-51.4
X141.5Y-51.6
X146.25Y-44.6
T5
X156.7Y-44.6
X159.24Y-44.6
X161.78Y-44.6
X164.32Y-44.6
X166.86Y-44.6
X169.4Y-44.6
X171.94Y-44.6
X174.48Y-44.6
T6
X119.05Y-124.0
X138.1Y-57.5
X157.15Y-124.0
T3
G00X111.597Y-54.259
M15
G01X112.503Y-54.681
M16
G05
G00X111.597Y-73.309
M15
G01X112.503Y-73.731
M16
G05
G00X111.597Y-92.359
M15
G01X112.503Y-92.781
M16
G05
G00X111.597Y-111.409
M15
G01X112.503Y-111.831
M16
G05
G00X130.647Y-54.259
M15
G01X131.553Y-54.681
M16
G05
G00X130.647Y-73.309
M15
G01X131.553Y-73.731
M16
G05
G00X130.647Y-92.359
M15
G01X131.553Y-92.781
M16
G05
G00X130.647Y-111.409
M15
G01X131.553Y-111.831
M16
G05
G00X149.697Y-54.259
M15
G01X150.603Y-54.681
M16
G05
G00X149.697Y-73.309
M15
G01X150.603Y-73.731
M16
G05
G00X149.697Y-92.359
M15
G01X150.603Y-92.781
M16
G05
G00X149.697Y-111.409
M15
G01X150.603Y-111.831
M16
G05
G00X168.747Y-54.259
M15
G01X169.653Y-54.681
M16
G05
G00X168.747Y-73.309
M15
G01X169.653Y-73.731
M16
G05
G00X168.747Y-92.359
M15
G01X169.653Y-92.781
M16
G05
G00X168.747Y-111.409
M15
G01X169.653Y-111.831
M16
G05
T4
G00X105.19Y-41.67
M15
G01X105.19Y-42.47
M16
G05
G00X105.19Y-45.69
M15
G01X105.19Y-46.79
M16
G05
G00X105.292Y-57.2
M15
G01X106.108Y-56.82
M16
G05
G00X105.292Y-76.25
M15
G01X106.108Y-75.87
M16
G05
G00X105.292Y-95.3
M15
G01X106.108Y-94.92
M16
G05
G00X105.292Y-114.35
M15
G01X106.108Y-113.97
M16
G05
G00X113.83Y-41.67
M15
G01X113.83Y-42.47
M16
G05
G00X113.83Y-45.69
M15
G01X113.83Y-46.79
M16
G05
G00X124.342Y-57.2
M15
G01X125.158Y-56.82
M16
G05
G00X124.342Y-76.25
M15
G01X125.158Y-75.87
M16
G05
G00X124.342Y-95.3
M15
G01X125.158Y-94.92
M16
G05
G00X124.342Y-114.35
M15
G01X125.158Y-113.97
M16
G05
G00X143.392Y-57.2
M15
G01X144.208Y-56.82
M16
G05
G00X143.392Y-76.25
M15
G01X144.208Y-75.87
M16
G05
G00X143.392Y-95.3
M15
G01X144.208Y-94.92
M16
G05
G00X143.392Y-114.35
M15
G01X144.208Y-113.97
M16
G05
G00X162.442Y-57.2
M15
G01X163.258Y-56.82
M16
G05
G00X162.442Y-76.25
M15
G01X163.258Y-75.87
M16
G05
G00X162.442Y-95.3
M15
G01X163.258Y-94.92
M16
G05
G00X162.442Y-114.35
M15
G01X163.258Y-113.97
M16
G05
M30
