%TF.GenerationSoftware,KiCad,Pcbnew,10.0.5*%
%TF.CreationDate,2026-09-10T14:25:24+08:00*%
%TF.ProjectId,XS16,58533136-2e6b-4696-9361-645f70636258,rev?*%
%TF.SameCoordinates,Original*%
%TF.FileFunction,Drillmap*%
%TF.FilePolarity,Positive*%
%FSLAX45Y45*%
G04 Gerber Fmt 4.5, Leading zero omitted, Abs format (unit mm)*
G04 Created by KiCad (PCBNEW 10.0.5) date 2026-09-10 14:25:24*
%MOMM*%
%LPD*%
G01*
G04 APERTURE LIST*
%ADD10C,0.050000*%
%ADD11C,0.200000*%
%ADD12C,0.100000*%
%ADD13C,0.170000*%
%ADD14C,0.400000*%
G04 APERTURE END LIST*
D10*
X9950000Y-4000000D02*
X17670000Y-4000000D01*
X9950000Y-12670000D02*
X9950000Y-4000000D01*
X17670000Y-12670000D02*
X9950000Y-12670000D01*
X17670000Y-12670000D02*
X17670000Y-4000000D01*
D11*
D12*
X10632000Y-4546000D02*
X10692000Y-4606000D01*
X10692000Y-4546000D02*
X10632000Y-4606000D01*
X11210000Y-4546000D02*
X11270000Y-4606000D01*
X11270000Y-4546000D02*
X11210000Y-4606000D01*
D13*
X10528000Y-5955000D02*
G75*
G02*
X10358000Y-5955000I-85000J0D01*
G01*
X10358000Y-5955000D02*
G75*
G02*
X10528000Y-5955000I85000J0D01*
G01*
X10528000Y-7860000D02*
G75*
G02*
X10358000Y-7860000I-85000J0D01*
G01*
X10358000Y-7860000D02*
G75*
G02*
X10528000Y-7860000I85000J0D01*
G01*
X10528000Y-9765000D02*
G75*
G02*
X10358000Y-9765000I-85000J0D01*
G01*
X10358000Y-9765000D02*
G75*
G02*
X10528000Y-9765000I85000J0D01*
G01*
X10528000Y-11670000D02*
G75*
G02*
X10358000Y-11670000I-85000J0D01*
G01*
X10358000Y-11670000D02*
G75*
G02*
X10528000Y-11670000I85000J0D01*
G01*
X11544000Y-5955000D02*
G75*
G02*
X11374000Y-5955000I-85000J0D01*
G01*
X11374000Y-5955000D02*
G75*
G02*
X11544000Y-5955000I85000J0D01*
G01*
X11544000Y-7860000D02*
G75*
G02*
X11374000Y-7860000I-85000J0D01*
G01*
X11374000Y-7860000D02*
G75*
G02*
X11544000Y-7860000I85000J0D01*
G01*
X11544000Y-9765000D02*
G75*
G02*
X11374000Y-9765000I-85000J0D01*
G01*
X11374000Y-9765000D02*
G75*
G02*
X11544000Y-9765000I85000J0D01*
G01*
X11544000Y-11670000D02*
G75*
G02*
X11374000Y-11670000I-85000J0D01*
G01*
X11374000Y-11670000D02*
G75*
G02*
X11544000Y-11670000I85000J0D01*
G01*
X12433000Y-5955000D02*
G75*
G02*
X12263000Y-5955000I-85000J0D01*
G01*
X12263000Y-5955000D02*
G75*
G02*
X12433000Y-5955000I85000J0D01*
G01*
X12433000Y-7860000D02*
G75*
G02*
X12263000Y-7860000I-85000J0D01*
G01*
X12263000Y-7860000D02*
G75*
G02*
X12433000Y-7860000I85000J0D01*
G01*
X12433000Y-9765000D02*
G75*
G02*
X12263000Y-9765000I-85000J0D01*
G01*
X12263000Y-9765000D02*
G75*
G02*
X12433000Y-9765000I85000J0D01*
G01*
X12433000Y-11670000D02*
G75*
G02*
X12263000Y-11670000I-85000J0D01*
G01*
X12263000Y-11670000D02*
G75*
G02*
X12433000Y-11670000I85000J0D01*
G01*
X13449000Y-5955000D02*
G75*
G02*
X13279000Y-5955000I-85000J0D01*
G01*
X13279000Y-5955000D02*
G75*
G02*
X13449000Y-5955000I85000J0D01*
G01*
X13449000Y-7860000D02*
G75*
G02*
X13279000Y-7860000I-85000J0D01*
G01*
X13279000Y-7860000D02*
G75*
G02*
X13449000Y-7860000I85000J0D01*
G01*
X13449000Y-9765000D02*
G75*
G02*
X13279000Y-9765000I-85000J0D01*
G01*
X13279000Y-9765000D02*
G75*
G02*
X13449000Y-9765000I85000J0D01*
G01*
X13449000Y-11670000D02*
G75*
G02*
X13279000Y-11670000I-85000J0D01*
G01*
X13279000Y-11670000D02*
G75*
G02*
X13449000Y-11670000I85000J0D01*
G01*
X14338000Y-5955000D02*
G75*
G02*
X14168000Y-5955000I-85000J0D01*
G01*
X14168000Y-5955000D02*
G75*
G02*
X14338000Y-5955000I85000J0D01*
G01*
X14338000Y-7860000D02*
G75*
G02*
X14168000Y-7860000I-85000J0D01*
G01*
X14168000Y-7860000D02*
G75*
G02*
X14338000Y-7860000I85000J0D01*
G01*
X14338000Y-9765000D02*
G75*
G02*
X14168000Y-9765000I-85000J0D01*
G01*
X14168000Y-9765000D02*
G75*
G02*
X14338000Y-9765000I85000J0D01*
G01*
X14338000Y-11670000D02*
G75*
G02*
X14168000Y-11670000I-85000J0D01*
G01*
X14168000Y-11670000D02*
G75*
G02*
X14338000Y-11670000I85000J0D01*
G01*
X15354000Y-5955000D02*
G75*
G02*
X15184000Y-5955000I-85000J0D01*
G01*
X15184000Y-5955000D02*
G75*
G02*
X15354000Y-5955000I85000J0D01*
G01*
X15354000Y-7860000D02*
G75*
G02*
X15184000Y-7860000I-85000J0D01*
G01*
X15184000Y-7860000D02*
G75*
G02*
X15354000Y-7860000I85000J0D01*
G01*
X15354000Y-9765000D02*
G75*
G02*
X15184000Y-9765000I-85000J0D01*
G01*
X15184000Y-9765000D02*
G75*
G02*
X15354000Y-9765000I85000J0D01*
G01*
X15354000Y-11670000D02*
G75*
G02*
X15184000Y-11670000I-85000J0D01*
G01*
X15184000Y-11670000D02*
G75*
G02*
X15354000Y-11670000I85000J0D01*
G01*
X16243000Y-5955000D02*
G75*
G02*
X16073000Y-5955000I-85000J0D01*
G01*
X16073000Y-5955000D02*
G75*
G02*
X16243000Y-5955000I85000J0D01*
G01*
X16243000Y-7860000D02*
G75*
G02*
X16073000Y-7860000I-85000J0D01*
G01*
X16073000Y-7860000D02*
G75*
G02*
X16243000Y-7860000I85000J0D01*
G01*
X16243000Y-9765000D02*
G75*
G02*
X16073000Y-9765000I-85000J0D01*
G01*
X16073000Y-9765000D02*
G75*
G02*
X16243000Y-9765000I85000J0D01*
G01*
X16243000Y-11670000D02*
G75*
G02*
X16073000Y-11670000I-85000J0D01*
G01*
X16073000Y-11670000D02*
G75*
G02*
X16243000Y-11670000I85000J0D01*
G01*
X17259000Y-5955000D02*
G75*
G02*
X17089000Y-5955000I-85000J0D01*
G01*
X17089000Y-5955000D02*
G75*
G02*
X17259000Y-5955000I85000J0D01*
G01*
X17259000Y-7860000D02*
G75*
G02*
X17089000Y-7860000I-85000J0D01*
G01*
X17089000Y-7860000D02*
G75*
G02*
X17259000Y-7860000I85000J0D01*
G01*
X17259000Y-9765000D02*
G75*
G02*
X17089000Y-9765000I-85000J0D01*
G01*
X17089000Y-9765000D02*
G75*
G02*
X17259000Y-9765000I85000J0D01*
G01*
X17259000Y-11670000D02*
G75*
G02*
X17089000Y-11670000I-85000J0D01*
G01*
X17089000Y-11670000D02*
G75*
G02*
X17259000Y-11670000I85000J0D01*
G01*
D14*
X10951000Y-5755000D02*
X10951000Y-6155000D01*
X10751000Y-5955000D02*
X11151000Y-5955000D01*
X10951000Y-7660000D02*
X10951000Y-8060000D01*
X10751000Y-7860000D02*
X11151000Y-7860000D01*
X10951000Y-9565000D02*
X10951000Y-9965000D01*
X10751000Y-9765000D02*
X11151000Y-9765000D01*
X10951000Y-11470000D02*
X10951000Y-11870000D01*
X10751000Y-11670000D02*
X11151000Y-11670000D01*
X12856000Y-5755000D02*
X12856000Y-6155000D01*
X12656000Y-5955000D02*
X13056000Y-5955000D01*
X12856000Y-7660000D02*
X12856000Y-8060000D01*
X12656000Y-7860000D02*
X13056000Y-7860000D01*
X12856000Y-9565000D02*
X12856000Y-9965000D01*
X12656000Y-9765000D02*
X13056000Y-9765000D01*
X12856000Y-11470000D02*
X12856000Y-11870000D01*
X12656000Y-11670000D02*
X13056000Y-11670000D01*
X14761000Y-5755000D02*
X14761000Y-6155000D01*
X14561000Y-5955000D02*
X14961000Y-5955000D01*
X14761000Y-7660000D02*
X14761000Y-8060000D01*
X14561000Y-7860000D02*
X14961000Y-7860000D01*
X14761000Y-9565000D02*
X14761000Y-9965000D01*
X14561000Y-9765000D02*
X14961000Y-9765000D01*
X14761000Y-11470000D02*
X14761000Y-11870000D01*
X14561000Y-11670000D02*
X14961000Y-11670000D01*
X16666000Y-5755000D02*
X16666000Y-6155000D01*
X16466000Y-5955000D02*
X16866000Y-5955000D01*
X16666000Y-7660000D02*
X16666000Y-8060000D01*
X16466000Y-7860000D02*
X16866000Y-7860000D01*
X16666000Y-9565000D02*
X16666000Y-9965000D01*
X16466000Y-9765000D02*
X16866000Y-9765000D01*
X16666000Y-11470000D02*
X16666000Y-11870000D01*
X16466000Y-11670000D02*
X16866000Y-11670000D01*
D11*
X10208277Y-12983984D02*
X10208277Y-12783984D01*
X10208277Y-12783984D02*
X10255896Y-12783984D01*
X10255896Y-12783984D02*
X10284467Y-12793508D01*
X10284467Y-12793508D02*
X10303515Y-12812555D01*
X10303515Y-12812555D02*
X10313039Y-12831603D01*
X10313039Y-12831603D02*
X10322563Y-12869698D01*
X10322563Y-12869698D02*
X10322563Y-12898269D01*
X10322563Y-12898269D02*
X10313039Y-12936365D01*
X10313039Y-12936365D02*
X10303515Y-12955412D01*
X10303515Y-12955412D02*
X10284467Y-12974460D01*
X10284467Y-12974460D02*
X10255896Y-12983984D01*
X10255896Y-12983984D02*
X10208277Y-12983984D01*
X10408277Y-12983984D02*
X10408277Y-12850650D01*
X10408277Y-12888746D02*
X10417801Y-12869698D01*
X10417801Y-12869698D02*
X10427324Y-12860174D01*
X10427324Y-12860174D02*
X10446372Y-12850650D01*
X10446372Y-12850650D02*
X10465420Y-12850650D01*
X10532086Y-12983984D02*
X10532086Y-12850650D01*
X10532086Y-12783984D02*
X10522563Y-12793508D01*
X10522563Y-12793508D02*
X10532086Y-12803031D01*
X10532086Y-12803031D02*
X10541610Y-12793508D01*
X10541610Y-12793508D02*
X10532086Y-12783984D01*
X10532086Y-12783984D02*
X10532086Y-12803031D01*
X10655896Y-12983984D02*
X10636848Y-12974460D01*
X10636848Y-12974460D02*
X10627324Y-12955412D01*
X10627324Y-12955412D02*
X10627324Y-12783984D01*
X10760658Y-12983984D02*
X10741610Y-12974460D01*
X10741610Y-12974460D02*
X10732086Y-12955412D01*
X10732086Y-12955412D02*
X10732086Y-12783984D01*
X10989229Y-12983984D02*
X10989229Y-12783984D01*
X10989229Y-12783984D02*
X11055896Y-12926841D01*
X11055896Y-12926841D02*
X11122563Y-12783984D01*
X11122563Y-12783984D02*
X11122563Y-12983984D01*
X11303515Y-12983984D02*
X11303515Y-12879222D01*
X11303515Y-12879222D02*
X11293991Y-12860174D01*
X11293991Y-12860174D02*
X11274943Y-12850650D01*
X11274943Y-12850650D02*
X11236848Y-12850650D01*
X11236848Y-12850650D02*
X11217801Y-12860174D01*
X11303515Y-12974460D02*
X11284467Y-12983984D01*
X11284467Y-12983984D02*
X11236848Y-12983984D01*
X11236848Y-12983984D02*
X11217801Y-12974460D01*
X11217801Y-12974460D02*
X11208277Y-12955412D01*
X11208277Y-12955412D02*
X11208277Y-12936365D01*
X11208277Y-12936365D02*
X11217801Y-12917317D01*
X11217801Y-12917317D02*
X11236848Y-12907793D01*
X11236848Y-12907793D02*
X11284467Y-12907793D01*
X11284467Y-12907793D02*
X11303515Y-12898269D01*
X11398753Y-12850650D02*
X11398753Y-13050650D01*
X11398753Y-12860174D02*
X11417801Y-12850650D01*
X11417801Y-12850650D02*
X11455896Y-12850650D01*
X11455896Y-12850650D02*
X11474943Y-12860174D01*
X11474943Y-12860174D02*
X11484467Y-12869698D01*
X11484467Y-12869698D02*
X11493991Y-12888746D01*
X11493991Y-12888746D02*
X11493991Y-12945888D01*
X11493991Y-12945888D02*
X11484467Y-12964936D01*
X11484467Y-12964936D02*
X11474943Y-12974460D01*
X11474943Y-12974460D02*
X11455896Y-12983984D01*
X11455896Y-12983984D02*
X11417801Y-12983984D01*
X11417801Y-12983984D02*
X11398753Y-12974460D01*
X11579705Y-12964936D02*
X11589229Y-12974460D01*
X11589229Y-12974460D02*
X11579705Y-12983984D01*
X11579705Y-12983984D02*
X11570182Y-12974460D01*
X11570182Y-12974460D02*
X11579705Y-12964936D01*
X11579705Y-12964936D02*
X11579705Y-12983984D01*
X11579705Y-12860174D02*
X11589229Y-12869698D01*
X11589229Y-12869698D02*
X11579705Y-12879222D01*
X11579705Y-12879222D02*
X11570182Y-12869698D01*
X11570182Y-12869698D02*
X11579705Y-12860174D01*
X11579705Y-12860174D02*
X11579705Y-12879222D01*
D12*
X9887500Y-13282500D02*
X9947500Y-13342500D01*
X9947500Y-13282500D02*
X9887500Y-13342500D01*
D11*
X10246372Y-13203984D02*
X10265420Y-13203984D01*
X10265420Y-13203984D02*
X10284467Y-13213508D01*
X10284467Y-13213508D02*
X10293991Y-13223031D01*
X10293991Y-13223031D02*
X10303515Y-13242079D01*
X10303515Y-13242079D02*
X10313039Y-13280174D01*
X10313039Y-13280174D02*
X10313039Y-13327793D01*
X10313039Y-13327793D02*
X10303515Y-13365888D01*
X10303515Y-13365888D02*
X10293991Y-13384936D01*
X10293991Y-13384936D02*
X10284467Y-13394460D01*
X10284467Y-13394460D02*
X10265420Y-13403984D01*
X10265420Y-13403984D02*
X10246372Y-13403984D01*
X10246372Y-13403984D02*
X10227324Y-13394460D01*
X10227324Y-13394460D02*
X10217801Y-13384936D01*
X10217801Y-13384936D02*
X10208277Y-13365888D01*
X10208277Y-13365888D02*
X10198753Y-13327793D01*
X10198753Y-13327793D02*
X10198753Y-13280174D01*
X10198753Y-13280174D02*
X10208277Y-13242079D01*
X10208277Y-13242079D02*
X10217801Y-13223031D01*
X10217801Y-13223031D02*
X10227324Y-13213508D01*
X10227324Y-13213508D02*
X10246372Y-13203984D01*
X10398753Y-13384936D02*
X10408277Y-13394460D01*
X10408277Y-13394460D02*
X10398753Y-13403984D01*
X10398753Y-13403984D02*
X10389229Y-13394460D01*
X10389229Y-13394460D02*
X10398753Y-13384936D01*
X10398753Y-13384936D02*
X10398753Y-13403984D01*
X10579705Y-13203984D02*
X10541610Y-13203984D01*
X10541610Y-13203984D02*
X10522563Y-13213508D01*
X10522563Y-13213508D02*
X10513039Y-13223031D01*
X10513039Y-13223031D02*
X10493991Y-13251603D01*
X10493991Y-13251603D02*
X10484467Y-13289698D01*
X10484467Y-13289698D02*
X10484467Y-13365888D01*
X10484467Y-13365888D02*
X10493991Y-13384936D01*
X10493991Y-13384936D02*
X10503515Y-13394460D01*
X10503515Y-13394460D02*
X10522563Y-13403984D01*
X10522563Y-13403984D02*
X10560658Y-13403984D01*
X10560658Y-13403984D02*
X10579705Y-13394460D01*
X10579705Y-13394460D02*
X10589229Y-13384936D01*
X10589229Y-13384936D02*
X10598753Y-13365888D01*
X10598753Y-13365888D02*
X10598753Y-13318269D01*
X10598753Y-13318269D02*
X10589229Y-13299222D01*
X10589229Y-13299222D02*
X10579705Y-13289698D01*
X10579705Y-13289698D02*
X10560658Y-13280174D01*
X10560658Y-13280174D02*
X10522563Y-13280174D01*
X10522563Y-13280174D02*
X10503515Y-13289698D01*
X10503515Y-13289698D02*
X10493991Y-13299222D01*
X10493991Y-13299222D02*
X10484467Y-13318269D01*
X10722563Y-13203984D02*
X10741610Y-13203984D01*
X10741610Y-13203984D02*
X10760658Y-13213508D01*
X10760658Y-13213508D02*
X10770182Y-13223031D01*
X10770182Y-13223031D02*
X10779705Y-13242079D01*
X10779705Y-13242079D02*
X10789229Y-13280174D01*
X10789229Y-13280174D02*
X10789229Y-13327793D01*
X10789229Y-13327793D02*
X10779705Y-13365888D01*
X10779705Y-13365888D02*
X10770182Y-13384936D01*
X10770182Y-13384936D02*
X10760658Y-13394460D01*
X10760658Y-13394460D02*
X10741610Y-13403984D01*
X10741610Y-13403984D02*
X10722563Y-13403984D01*
X10722563Y-13403984D02*
X10703515Y-13394460D01*
X10703515Y-13394460D02*
X10693991Y-13384936D01*
X10693991Y-13384936D02*
X10684467Y-13365888D01*
X10684467Y-13365888D02*
X10674944Y-13327793D01*
X10674944Y-13327793D02*
X10674944Y-13280174D01*
X10674944Y-13280174D02*
X10684467Y-13242079D01*
X10684467Y-13242079D02*
X10693991Y-13223031D01*
X10693991Y-13223031D02*
X10703515Y-13213508D01*
X10703515Y-13213508D02*
X10722563Y-13203984D01*
X10913039Y-13203984D02*
X10932086Y-13203984D01*
X10932086Y-13203984D02*
X10951134Y-13213508D01*
X10951134Y-13213508D02*
X10960658Y-13223031D01*
X10960658Y-13223031D02*
X10970182Y-13242079D01*
X10970182Y-13242079D02*
X10979705Y-13280174D01*
X10979705Y-13280174D02*
X10979705Y-13327793D01*
X10979705Y-13327793D02*
X10970182Y-13365888D01*
X10970182Y-13365888D02*
X10960658Y-13384936D01*
X10960658Y-13384936D02*
X10951134Y-13394460D01*
X10951134Y-13394460D02*
X10932086Y-13403984D01*
X10932086Y-13403984D02*
X10913039Y-13403984D01*
X10913039Y-13403984D02*
X10893991Y-13394460D01*
X10893991Y-13394460D02*
X10884467Y-13384936D01*
X10884467Y-13384936D02*
X10874944Y-13365888D01*
X10874944Y-13365888D02*
X10865420Y-13327793D01*
X10865420Y-13327793D02*
X10865420Y-13280174D01*
X10865420Y-13280174D02*
X10874944Y-13242079D01*
X10874944Y-13242079D02*
X10884467Y-13223031D01*
X10884467Y-13223031D02*
X10893991Y-13213508D01*
X10893991Y-13213508D02*
X10913039Y-13203984D01*
X11065420Y-13403984D02*
X11065420Y-13270650D01*
X11065420Y-13289698D02*
X11074944Y-13280174D01*
X11074944Y-13280174D02*
X11093991Y-13270650D01*
X11093991Y-13270650D02*
X11122563Y-13270650D01*
X11122563Y-13270650D02*
X11141610Y-13280174D01*
X11141610Y-13280174D02*
X11151134Y-13299222D01*
X11151134Y-13299222D02*
X11151134Y-13403984D01*
X11151134Y-13299222D02*
X11160658Y-13280174D01*
X11160658Y-13280174D02*
X11179705Y-13270650D01*
X11179705Y-13270650D02*
X11208277Y-13270650D01*
X11208277Y-13270650D02*
X11227324Y-13280174D01*
X11227324Y-13280174D02*
X11236848Y-13299222D01*
X11236848Y-13299222D02*
X11236848Y-13403984D01*
X11332086Y-13403984D02*
X11332086Y-13270650D01*
X11332086Y-13289698D02*
X11341610Y-13280174D01*
X11341610Y-13280174D02*
X11360658Y-13270650D01*
X11360658Y-13270650D02*
X11389229Y-13270650D01*
X11389229Y-13270650D02*
X11408277Y-13280174D01*
X11408277Y-13280174D02*
X11417801Y-13299222D01*
X11417801Y-13299222D02*
X11417801Y-13403984D01*
X11417801Y-13299222D02*
X11427324Y-13280174D01*
X11427324Y-13280174D02*
X11446372Y-13270650D01*
X11446372Y-13270650D02*
X11474943Y-13270650D01*
X11474943Y-13270650D02*
X11493991Y-13280174D01*
X11493991Y-13280174D02*
X11503515Y-13299222D01*
X11503515Y-13299222D02*
X11503515Y-13403984D01*
X11893991Y-13194460D02*
X11722563Y-13451603D01*
X12151134Y-13203984D02*
X12170182Y-13203984D01*
X12170182Y-13203984D02*
X12189229Y-13213508D01*
X12189229Y-13213508D02*
X12198753Y-13223031D01*
X12198753Y-13223031D02*
X12208277Y-13242079D01*
X12208277Y-13242079D02*
X12217801Y-13280174D01*
X12217801Y-13280174D02*
X12217801Y-13327793D01*
X12217801Y-13327793D02*
X12208277Y-13365888D01*
X12208277Y-13365888D02*
X12198753Y-13384936D01*
X12198753Y-13384936D02*
X12189229Y-13394460D01*
X12189229Y-13394460D02*
X12170182Y-13403984D01*
X12170182Y-13403984D02*
X12151134Y-13403984D01*
X12151134Y-13403984D02*
X12132086Y-13394460D01*
X12132086Y-13394460D02*
X12122563Y-13384936D01*
X12122563Y-13384936D02*
X12113039Y-13365888D01*
X12113039Y-13365888D02*
X12103515Y-13327793D01*
X12103515Y-13327793D02*
X12103515Y-13280174D01*
X12103515Y-13280174D02*
X12113039Y-13242079D01*
X12113039Y-13242079D02*
X12122563Y-13223031D01*
X12122563Y-13223031D02*
X12132086Y-13213508D01*
X12132086Y-13213508D02*
X12151134Y-13203984D01*
X12303515Y-13384936D02*
X12313039Y-13394460D01*
X12313039Y-13394460D02*
X12303515Y-13403984D01*
X12303515Y-13403984D02*
X12293991Y-13394460D01*
X12293991Y-13394460D02*
X12303515Y-13384936D01*
X12303515Y-13384936D02*
X12303515Y-13403984D01*
X12436848Y-13203984D02*
X12455896Y-13203984D01*
X12455896Y-13203984D02*
X12474944Y-13213508D01*
X12474944Y-13213508D02*
X12484467Y-13223031D01*
X12484467Y-13223031D02*
X12493991Y-13242079D01*
X12493991Y-13242079D02*
X12503515Y-13280174D01*
X12503515Y-13280174D02*
X12503515Y-13327793D01*
X12503515Y-13327793D02*
X12493991Y-13365888D01*
X12493991Y-13365888D02*
X12484467Y-13384936D01*
X12484467Y-13384936D02*
X12474944Y-13394460D01*
X12474944Y-13394460D02*
X12455896Y-13403984D01*
X12455896Y-13403984D02*
X12436848Y-13403984D01*
X12436848Y-13403984D02*
X12417801Y-13394460D01*
X12417801Y-13394460D02*
X12408277Y-13384936D01*
X12408277Y-13384936D02*
X12398753Y-13365888D01*
X12398753Y-13365888D02*
X12389229Y-13327793D01*
X12389229Y-13327793D02*
X12389229Y-13280174D01*
X12389229Y-13280174D02*
X12398753Y-13242079D01*
X12398753Y-13242079D02*
X12408277Y-13223031D01*
X12408277Y-13223031D02*
X12417801Y-13213508D01*
X12417801Y-13213508D02*
X12436848Y-13203984D01*
X12579706Y-13223031D02*
X12589229Y-13213508D01*
X12589229Y-13213508D02*
X12608277Y-13203984D01*
X12608277Y-13203984D02*
X12655896Y-13203984D01*
X12655896Y-13203984D02*
X12674944Y-13213508D01*
X12674944Y-13213508D02*
X12684467Y-13223031D01*
X12684467Y-13223031D02*
X12693991Y-13242079D01*
X12693991Y-13242079D02*
X12693991Y-13261127D01*
X12693991Y-13261127D02*
X12684467Y-13289698D01*
X12684467Y-13289698D02*
X12570182Y-13403984D01*
X12570182Y-13403984D02*
X12693991Y-13403984D01*
X12760658Y-13203984D02*
X12884467Y-13203984D01*
X12884467Y-13203984D02*
X12817801Y-13280174D01*
X12817801Y-13280174D02*
X12846372Y-13280174D01*
X12846372Y-13280174D02*
X12865420Y-13289698D01*
X12865420Y-13289698D02*
X12874944Y-13299222D01*
X12874944Y-13299222D02*
X12884467Y-13318269D01*
X12884467Y-13318269D02*
X12884467Y-13365888D01*
X12884467Y-13365888D02*
X12874944Y-13384936D01*
X12874944Y-13384936D02*
X12865420Y-13394460D01*
X12865420Y-13394460D02*
X12846372Y-13403984D01*
X12846372Y-13403984D02*
X12789229Y-13403984D01*
X12789229Y-13403984D02*
X12770182Y-13394460D01*
X12770182Y-13394460D02*
X12760658Y-13384936D01*
X13055896Y-13203984D02*
X13017801Y-13203984D01*
X13017801Y-13203984D02*
X12998753Y-13213508D01*
X12998753Y-13213508D02*
X12989229Y-13223031D01*
X12989229Y-13223031D02*
X12970182Y-13251603D01*
X12970182Y-13251603D02*
X12960658Y-13289698D01*
X12960658Y-13289698D02*
X12960658Y-13365888D01*
X12960658Y-13365888D02*
X12970182Y-13384936D01*
X12970182Y-13384936D02*
X12979706Y-13394460D01*
X12979706Y-13394460D02*
X12998753Y-13403984D01*
X12998753Y-13403984D02*
X13036848Y-13403984D01*
X13036848Y-13403984D02*
X13055896Y-13394460D01*
X13055896Y-13394460D02*
X13065420Y-13384936D01*
X13065420Y-13384936D02*
X13074944Y-13365888D01*
X13074944Y-13365888D02*
X13074944Y-13318269D01*
X13074944Y-13318269D02*
X13065420Y-13299222D01*
X13065420Y-13299222D02*
X13055896Y-13289698D01*
X13055896Y-13289698D02*
X13036848Y-13280174D01*
X13036848Y-13280174D02*
X12998753Y-13280174D01*
X12998753Y-13280174D02*
X12979706Y-13289698D01*
X12979706Y-13289698D02*
X12970182Y-13299222D01*
X12970182Y-13299222D02*
X12960658Y-13318269D01*
X13151134Y-13203984D02*
X13151134Y-13242079D01*
X13227325Y-13203984D02*
X13227325Y-13242079D01*
X13522563Y-13480174D02*
X13513039Y-13470650D01*
X13513039Y-13470650D02*
X13493991Y-13442079D01*
X13493991Y-13442079D02*
X13484468Y-13423031D01*
X13484468Y-13423031D02*
X13474944Y-13394460D01*
X13474944Y-13394460D02*
X13465420Y-13346841D01*
X13465420Y-13346841D02*
X13465420Y-13308746D01*
X13465420Y-13308746D02*
X13474944Y-13261127D01*
X13474944Y-13261127D02*
X13484468Y-13232555D01*
X13484468Y-13232555D02*
X13493991Y-13213508D01*
X13493991Y-13213508D02*
X13513039Y-13184936D01*
X13513039Y-13184936D02*
X13522563Y-13175412D01*
X13589229Y-13223031D02*
X13598753Y-13213508D01*
X13598753Y-13213508D02*
X13617801Y-13203984D01*
X13617801Y-13203984D02*
X13665420Y-13203984D01*
X13665420Y-13203984D02*
X13684468Y-13213508D01*
X13684468Y-13213508D02*
X13693991Y-13223031D01*
X13693991Y-13223031D02*
X13703515Y-13242079D01*
X13703515Y-13242079D02*
X13703515Y-13261127D01*
X13703515Y-13261127D02*
X13693991Y-13289698D01*
X13693991Y-13289698D02*
X13579706Y-13403984D01*
X13579706Y-13403984D02*
X13703515Y-13403984D01*
X13941610Y-13403984D02*
X13941610Y-13203984D01*
X14027325Y-13403984D02*
X14027325Y-13299222D01*
X14027325Y-13299222D02*
X14017801Y-13280174D01*
X14017801Y-13280174D02*
X13998753Y-13270650D01*
X13998753Y-13270650D02*
X13970182Y-13270650D01*
X13970182Y-13270650D02*
X13951134Y-13280174D01*
X13951134Y-13280174D02*
X13941610Y-13289698D01*
X14151134Y-13403984D02*
X14132087Y-13394460D01*
X14132087Y-13394460D02*
X14122563Y-13384936D01*
X14122563Y-13384936D02*
X14113039Y-13365888D01*
X14113039Y-13365888D02*
X14113039Y-13308746D01*
X14113039Y-13308746D02*
X14122563Y-13289698D01*
X14122563Y-13289698D02*
X14132087Y-13280174D01*
X14132087Y-13280174D02*
X14151134Y-13270650D01*
X14151134Y-13270650D02*
X14179706Y-13270650D01*
X14179706Y-13270650D02*
X14198753Y-13280174D01*
X14198753Y-13280174D02*
X14208277Y-13289698D01*
X14208277Y-13289698D02*
X14217801Y-13308746D01*
X14217801Y-13308746D02*
X14217801Y-13365888D01*
X14217801Y-13365888D02*
X14208277Y-13384936D01*
X14208277Y-13384936D02*
X14198753Y-13394460D01*
X14198753Y-13394460D02*
X14179706Y-13403984D01*
X14179706Y-13403984D02*
X14151134Y-13403984D01*
X14332087Y-13403984D02*
X14313039Y-13394460D01*
X14313039Y-13394460D02*
X14303515Y-13375412D01*
X14303515Y-13375412D02*
X14303515Y-13203984D01*
X14484468Y-13394460D02*
X14465420Y-13403984D01*
X14465420Y-13403984D02*
X14427325Y-13403984D01*
X14427325Y-13403984D02*
X14408277Y-13394460D01*
X14408277Y-13394460D02*
X14398753Y-13375412D01*
X14398753Y-13375412D02*
X14398753Y-13299222D01*
X14398753Y-13299222D02*
X14408277Y-13280174D01*
X14408277Y-13280174D02*
X14427325Y-13270650D01*
X14427325Y-13270650D02*
X14465420Y-13270650D01*
X14465420Y-13270650D02*
X14484468Y-13280174D01*
X14484468Y-13280174D02*
X14493991Y-13299222D01*
X14493991Y-13299222D02*
X14493991Y-13318269D01*
X14493991Y-13318269D02*
X14398753Y-13337317D01*
X14570182Y-13394460D02*
X14589230Y-13403984D01*
X14589230Y-13403984D02*
X14627325Y-13403984D01*
X14627325Y-13403984D02*
X14646372Y-13394460D01*
X14646372Y-13394460D02*
X14655896Y-13375412D01*
X14655896Y-13375412D02*
X14655896Y-13365888D01*
X14655896Y-13365888D02*
X14646372Y-13346841D01*
X14646372Y-13346841D02*
X14627325Y-13337317D01*
X14627325Y-13337317D02*
X14598753Y-13337317D01*
X14598753Y-13337317D02*
X14579706Y-13327793D01*
X14579706Y-13327793D02*
X14570182Y-13308746D01*
X14570182Y-13308746D02*
X14570182Y-13299222D01*
X14570182Y-13299222D02*
X14579706Y-13280174D01*
X14579706Y-13280174D02*
X14598753Y-13270650D01*
X14598753Y-13270650D02*
X14627325Y-13270650D01*
X14627325Y-13270650D02*
X14646372Y-13280174D01*
X14722563Y-13480174D02*
X14732087Y-13470650D01*
X14732087Y-13470650D02*
X14751134Y-13442079D01*
X14751134Y-13442079D02*
X14760658Y-13423031D01*
X14760658Y-13423031D02*
X14770182Y-13394460D01*
X14770182Y-13394460D02*
X14779706Y-13346841D01*
X14779706Y-13346841D02*
X14779706Y-13308746D01*
X14779706Y-13308746D02*
X14770182Y-13261127D01*
X14770182Y-13261127D02*
X14760658Y-13232555D01*
X14760658Y-13232555D02*
X14751134Y-13213508D01*
X14751134Y-13213508D02*
X14732087Y-13184936D01*
X14732087Y-13184936D02*
X14722563Y-13175412D01*
X15084468Y-13480174D02*
X15074944Y-13470650D01*
X15074944Y-13470650D02*
X15055896Y-13442079D01*
X15055896Y-13442079D02*
X15046372Y-13423031D01*
X15046372Y-13423031D02*
X15036849Y-13394460D01*
X15036849Y-13394460D02*
X15027325Y-13346841D01*
X15027325Y-13346841D02*
X15027325Y-13308746D01*
X15027325Y-13308746D02*
X15036849Y-13261127D01*
X15036849Y-13261127D02*
X15046372Y-13232555D01*
X15046372Y-13232555D02*
X15055896Y-13213508D01*
X15055896Y-13213508D02*
X15074944Y-13184936D01*
X15074944Y-13184936D02*
X15084468Y-13175412D01*
X15160658Y-13270650D02*
X15160658Y-13403984D01*
X15160658Y-13289698D02*
X15170182Y-13280174D01*
X15170182Y-13280174D02*
X15189230Y-13270650D01*
X15189230Y-13270650D02*
X15217801Y-13270650D01*
X15217801Y-13270650D02*
X15236849Y-13280174D01*
X15236849Y-13280174D02*
X15246372Y-13299222D01*
X15246372Y-13299222D02*
X15246372Y-13403984D01*
X15370182Y-13403984D02*
X15351134Y-13394460D01*
X15351134Y-13394460D02*
X15341611Y-13384936D01*
X15341611Y-13384936D02*
X15332087Y-13365888D01*
X15332087Y-13365888D02*
X15332087Y-13308746D01*
X15332087Y-13308746D02*
X15341611Y-13289698D01*
X15341611Y-13289698D02*
X15351134Y-13280174D01*
X15351134Y-13280174D02*
X15370182Y-13270650D01*
X15370182Y-13270650D02*
X15398753Y-13270650D01*
X15398753Y-13270650D02*
X15417801Y-13280174D01*
X15417801Y-13280174D02*
X15427325Y-13289698D01*
X15427325Y-13289698D02*
X15436849Y-13308746D01*
X15436849Y-13308746D02*
X15436849Y-13365888D01*
X15436849Y-13365888D02*
X15427325Y-13384936D01*
X15427325Y-13384936D02*
X15417801Y-13394460D01*
X15417801Y-13394460D02*
X15398753Y-13403984D01*
X15398753Y-13403984D02*
X15370182Y-13403984D01*
X15493992Y-13270650D02*
X15570182Y-13270650D01*
X15522563Y-13203984D02*
X15522563Y-13375412D01*
X15522563Y-13375412D02*
X15532087Y-13394460D01*
X15532087Y-13394460D02*
X15551134Y-13403984D01*
X15551134Y-13403984D02*
X15570182Y-13403984D01*
X15789230Y-13270650D02*
X15789230Y-13470650D01*
X15789230Y-13280174D02*
X15808277Y-13270650D01*
X15808277Y-13270650D02*
X15846373Y-13270650D01*
X15846373Y-13270650D02*
X15865420Y-13280174D01*
X15865420Y-13280174D02*
X15874944Y-13289698D01*
X15874944Y-13289698D02*
X15884468Y-13308746D01*
X15884468Y-13308746D02*
X15884468Y-13365888D01*
X15884468Y-13365888D02*
X15874944Y-13384936D01*
X15874944Y-13384936D02*
X15865420Y-13394460D01*
X15865420Y-13394460D02*
X15846373Y-13403984D01*
X15846373Y-13403984D02*
X15808277Y-13403984D01*
X15808277Y-13403984D02*
X15789230Y-13394460D01*
X15998753Y-13403984D02*
X15979706Y-13394460D01*
X15979706Y-13394460D02*
X15970182Y-13375412D01*
X15970182Y-13375412D02*
X15970182Y-13203984D01*
X16160658Y-13403984D02*
X16160658Y-13299222D01*
X16160658Y-13299222D02*
X16151134Y-13280174D01*
X16151134Y-13280174D02*
X16132087Y-13270650D01*
X16132087Y-13270650D02*
X16093992Y-13270650D01*
X16093992Y-13270650D02*
X16074944Y-13280174D01*
X16160658Y-13394460D02*
X16141611Y-13403984D01*
X16141611Y-13403984D02*
X16093992Y-13403984D01*
X16093992Y-13403984D02*
X16074944Y-13394460D01*
X16074944Y-13394460D02*
X16065420Y-13375412D01*
X16065420Y-13375412D02*
X16065420Y-13356365D01*
X16065420Y-13356365D02*
X16074944Y-13337317D01*
X16074944Y-13337317D02*
X16093992Y-13327793D01*
X16093992Y-13327793D02*
X16141611Y-13327793D01*
X16141611Y-13327793D02*
X16160658Y-13318269D01*
X16227325Y-13270650D02*
X16303515Y-13270650D01*
X16255896Y-13203984D02*
X16255896Y-13375412D01*
X16255896Y-13375412D02*
X16265420Y-13394460D01*
X16265420Y-13394460D02*
X16284468Y-13403984D01*
X16284468Y-13403984D02*
X16303515Y-13403984D01*
X16446373Y-13394460D02*
X16427325Y-13403984D01*
X16427325Y-13403984D02*
X16389230Y-13403984D01*
X16389230Y-13403984D02*
X16370182Y-13394460D01*
X16370182Y-13394460D02*
X16360658Y-13375412D01*
X16360658Y-13375412D02*
X16360658Y-13299222D01*
X16360658Y-13299222D02*
X16370182Y-13280174D01*
X16370182Y-13280174D02*
X16389230Y-13270650D01*
X16389230Y-13270650D02*
X16427325Y-13270650D01*
X16427325Y-13270650D02*
X16446373Y-13280174D01*
X16446373Y-13280174D02*
X16455896Y-13299222D01*
X16455896Y-13299222D02*
X16455896Y-13318269D01*
X16455896Y-13318269D02*
X16360658Y-13337317D01*
X16627325Y-13403984D02*
X16627325Y-13203984D01*
X16627325Y-13394460D02*
X16608277Y-13403984D01*
X16608277Y-13403984D02*
X16570182Y-13403984D01*
X16570182Y-13403984D02*
X16551134Y-13394460D01*
X16551134Y-13394460D02*
X16541611Y-13384936D01*
X16541611Y-13384936D02*
X16532087Y-13365888D01*
X16532087Y-13365888D02*
X16532087Y-13308746D01*
X16532087Y-13308746D02*
X16541611Y-13289698D01*
X16541611Y-13289698D02*
X16551134Y-13280174D01*
X16551134Y-13280174D02*
X16570182Y-13270650D01*
X16570182Y-13270650D02*
X16608277Y-13270650D01*
X16608277Y-13270650D02*
X16627325Y-13280174D01*
X16703515Y-13480174D02*
X16713039Y-13470650D01*
X16713039Y-13470650D02*
X16732087Y-13442079D01*
X16732087Y-13442079D02*
X16741611Y-13423031D01*
X16741611Y-13423031D02*
X16751134Y-13394460D01*
X16751134Y-13394460D02*
X16760658Y-13346841D01*
X16760658Y-13346841D02*
X16760658Y-13308746D01*
X16760658Y-13308746D02*
X16751134Y-13261127D01*
X16751134Y-13261127D02*
X16741611Y-13232555D01*
X16741611Y-13232555D02*
X16732087Y-13213508D01*
X16732087Y-13213508D02*
X16713039Y-13184936D01*
X16713039Y-13184936D02*
X16703515Y-13175412D01*
D13*
X9947500Y-13576500D02*
G75*
G02*
X9777500Y-13576500I-85000J0D01*
G01*
X9777500Y-13576500D02*
G75*
G02*
X9947500Y-13576500I85000J0D01*
G01*
D11*
X10313039Y-13667984D02*
X10198753Y-13667984D01*
X10255896Y-13667984D02*
X10255896Y-13467984D01*
X10255896Y-13467984D02*
X10236848Y-13496555D01*
X10236848Y-13496555D02*
X10217801Y-13515603D01*
X10217801Y-13515603D02*
X10198753Y-13525127D01*
X10398753Y-13648936D02*
X10408277Y-13658460D01*
X10408277Y-13658460D02*
X10398753Y-13667984D01*
X10398753Y-13667984D02*
X10389229Y-13658460D01*
X10389229Y-13658460D02*
X10398753Y-13648936D01*
X10398753Y-13648936D02*
X10398753Y-13667984D01*
X10474944Y-13467984D02*
X10608277Y-13467984D01*
X10608277Y-13467984D02*
X10522563Y-13667984D01*
X10722563Y-13467984D02*
X10741610Y-13467984D01*
X10741610Y-13467984D02*
X10760658Y-13477508D01*
X10760658Y-13477508D02*
X10770182Y-13487031D01*
X10770182Y-13487031D02*
X10779705Y-13506079D01*
X10779705Y-13506079D02*
X10789229Y-13544174D01*
X10789229Y-13544174D02*
X10789229Y-13591793D01*
X10789229Y-13591793D02*
X10779705Y-13629888D01*
X10779705Y-13629888D02*
X10770182Y-13648936D01*
X10770182Y-13648936D02*
X10760658Y-13658460D01*
X10760658Y-13658460D02*
X10741610Y-13667984D01*
X10741610Y-13667984D02*
X10722563Y-13667984D01*
X10722563Y-13667984D02*
X10703515Y-13658460D01*
X10703515Y-13658460D02*
X10693991Y-13648936D01*
X10693991Y-13648936D02*
X10684467Y-13629888D01*
X10684467Y-13629888D02*
X10674944Y-13591793D01*
X10674944Y-13591793D02*
X10674944Y-13544174D01*
X10674944Y-13544174D02*
X10684467Y-13506079D01*
X10684467Y-13506079D02*
X10693991Y-13487031D01*
X10693991Y-13487031D02*
X10703515Y-13477508D01*
X10703515Y-13477508D02*
X10722563Y-13467984D01*
X10913039Y-13467984D02*
X10932086Y-13467984D01*
X10932086Y-13467984D02*
X10951134Y-13477508D01*
X10951134Y-13477508D02*
X10960658Y-13487031D01*
X10960658Y-13487031D02*
X10970182Y-13506079D01*
X10970182Y-13506079D02*
X10979705Y-13544174D01*
X10979705Y-13544174D02*
X10979705Y-13591793D01*
X10979705Y-13591793D02*
X10970182Y-13629888D01*
X10970182Y-13629888D02*
X10960658Y-13648936D01*
X10960658Y-13648936D02*
X10951134Y-13658460D01*
X10951134Y-13658460D02*
X10932086Y-13667984D01*
X10932086Y-13667984D02*
X10913039Y-13667984D01*
X10913039Y-13667984D02*
X10893991Y-13658460D01*
X10893991Y-13658460D02*
X10884467Y-13648936D01*
X10884467Y-13648936D02*
X10874944Y-13629888D01*
X10874944Y-13629888D02*
X10865420Y-13591793D01*
X10865420Y-13591793D02*
X10865420Y-13544174D01*
X10865420Y-13544174D02*
X10874944Y-13506079D01*
X10874944Y-13506079D02*
X10884467Y-13487031D01*
X10884467Y-13487031D02*
X10893991Y-13477508D01*
X10893991Y-13477508D02*
X10913039Y-13467984D01*
X11065420Y-13667984D02*
X11065420Y-13534650D01*
X11065420Y-13553698D02*
X11074944Y-13544174D01*
X11074944Y-13544174D02*
X11093991Y-13534650D01*
X11093991Y-13534650D02*
X11122563Y-13534650D01*
X11122563Y-13534650D02*
X11141610Y-13544174D01*
X11141610Y-13544174D02*
X11151134Y-13563222D01*
X11151134Y-13563222D02*
X11151134Y-13667984D01*
X11151134Y-13563222D02*
X11160658Y-13544174D01*
X11160658Y-13544174D02*
X11179705Y-13534650D01*
X11179705Y-13534650D02*
X11208277Y-13534650D01*
X11208277Y-13534650D02*
X11227324Y-13544174D01*
X11227324Y-13544174D02*
X11236848Y-13563222D01*
X11236848Y-13563222D02*
X11236848Y-13667984D01*
X11332086Y-13667984D02*
X11332086Y-13534650D01*
X11332086Y-13553698D02*
X11341610Y-13544174D01*
X11341610Y-13544174D02*
X11360658Y-13534650D01*
X11360658Y-13534650D02*
X11389229Y-13534650D01*
X11389229Y-13534650D02*
X11408277Y-13544174D01*
X11408277Y-13544174D02*
X11417801Y-13563222D01*
X11417801Y-13563222D02*
X11417801Y-13667984D01*
X11417801Y-13563222D02*
X11427324Y-13544174D01*
X11427324Y-13544174D02*
X11446372Y-13534650D01*
X11446372Y-13534650D02*
X11474943Y-13534650D01*
X11474943Y-13534650D02*
X11493991Y-13544174D01*
X11493991Y-13544174D02*
X11503515Y-13563222D01*
X11503515Y-13563222D02*
X11503515Y-13667984D01*
X11893991Y-13458460D02*
X11722563Y-13715603D01*
X12151134Y-13467984D02*
X12170182Y-13467984D01*
X12170182Y-13467984D02*
X12189229Y-13477508D01*
X12189229Y-13477508D02*
X12198753Y-13487031D01*
X12198753Y-13487031D02*
X12208277Y-13506079D01*
X12208277Y-13506079D02*
X12217801Y-13544174D01*
X12217801Y-13544174D02*
X12217801Y-13591793D01*
X12217801Y-13591793D02*
X12208277Y-13629888D01*
X12208277Y-13629888D02*
X12198753Y-13648936D01*
X12198753Y-13648936D02*
X12189229Y-13658460D01*
X12189229Y-13658460D02*
X12170182Y-13667984D01*
X12170182Y-13667984D02*
X12151134Y-13667984D01*
X12151134Y-13667984D02*
X12132086Y-13658460D01*
X12132086Y-13658460D02*
X12122563Y-13648936D01*
X12122563Y-13648936D02*
X12113039Y-13629888D01*
X12113039Y-13629888D02*
X12103515Y-13591793D01*
X12103515Y-13591793D02*
X12103515Y-13544174D01*
X12103515Y-13544174D02*
X12113039Y-13506079D01*
X12113039Y-13506079D02*
X12122563Y-13487031D01*
X12122563Y-13487031D02*
X12132086Y-13477508D01*
X12132086Y-13477508D02*
X12151134Y-13467984D01*
X12303515Y-13648936D02*
X12313039Y-13658460D01*
X12313039Y-13658460D02*
X12303515Y-13667984D01*
X12303515Y-13667984D02*
X12293991Y-13658460D01*
X12293991Y-13658460D02*
X12303515Y-13648936D01*
X12303515Y-13648936D02*
X12303515Y-13667984D01*
X12436848Y-13467984D02*
X12455896Y-13467984D01*
X12455896Y-13467984D02*
X12474944Y-13477508D01*
X12474944Y-13477508D02*
X12484467Y-13487031D01*
X12484467Y-13487031D02*
X12493991Y-13506079D01*
X12493991Y-13506079D02*
X12503515Y-13544174D01*
X12503515Y-13544174D02*
X12503515Y-13591793D01*
X12503515Y-13591793D02*
X12493991Y-13629888D01*
X12493991Y-13629888D02*
X12484467Y-13648936D01*
X12484467Y-13648936D02*
X12474944Y-13658460D01*
X12474944Y-13658460D02*
X12455896Y-13667984D01*
X12455896Y-13667984D02*
X12436848Y-13667984D01*
X12436848Y-13667984D02*
X12417801Y-13658460D01*
X12417801Y-13658460D02*
X12408277Y-13648936D01*
X12408277Y-13648936D02*
X12398753Y-13629888D01*
X12398753Y-13629888D02*
X12389229Y-13591793D01*
X12389229Y-13591793D02*
X12389229Y-13544174D01*
X12389229Y-13544174D02*
X12398753Y-13506079D01*
X12398753Y-13506079D02*
X12408277Y-13487031D01*
X12408277Y-13487031D02*
X12417801Y-13477508D01*
X12417801Y-13477508D02*
X12436848Y-13467984D01*
X12674944Y-13467984D02*
X12636848Y-13467984D01*
X12636848Y-13467984D02*
X12617801Y-13477508D01*
X12617801Y-13477508D02*
X12608277Y-13487031D01*
X12608277Y-13487031D02*
X12589229Y-13515603D01*
X12589229Y-13515603D02*
X12579706Y-13553698D01*
X12579706Y-13553698D02*
X12579706Y-13629888D01*
X12579706Y-13629888D02*
X12589229Y-13648936D01*
X12589229Y-13648936D02*
X12598753Y-13658460D01*
X12598753Y-13658460D02*
X12617801Y-13667984D01*
X12617801Y-13667984D02*
X12655896Y-13667984D01*
X12655896Y-13667984D02*
X12674944Y-13658460D01*
X12674944Y-13658460D02*
X12684467Y-13648936D01*
X12684467Y-13648936D02*
X12693991Y-13629888D01*
X12693991Y-13629888D02*
X12693991Y-13582269D01*
X12693991Y-13582269D02*
X12684467Y-13563222D01*
X12684467Y-13563222D02*
X12674944Y-13553698D01*
X12674944Y-13553698D02*
X12655896Y-13544174D01*
X12655896Y-13544174D02*
X12617801Y-13544174D01*
X12617801Y-13544174D02*
X12598753Y-13553698D01*
X12598753Y-13553698D02*
X12589229Y-13563222D01*
X12589229Y-13563222D02*
X12579706Y-13582269D01*
X12865420Y-13467984D02*
X12827325Y-13467984D01*
X12827325Y-13467984D02*
X12808277Y-13477508D01*
X12808277Y-13477508D02*
X12798753Y-13487031D01*
X12798753Y-13487031D02*
X12779706Y-13515603D01*
X12779706Y-13515603D02*
X12770182Y-13553698D01*
X12770182Y-13553698D02*
X12770182Y-13629888D01*
X12770182Y-13629888D02*
X12779706Y-13648936D01*
X12779706Y-13648936D02*
X12789229Y-13658460D01*
X12789229Y-13658460D02*
X12808277Y-13667984D01*
X12808277Y-13667984D02*
X12846372Y-13667984D01*
X12846372Y-13667984D02*
X12865420Y-13658460D01*
X12865420Y-13658460D02*
X12874944Y-13648936D01*
X12874944Y-13648936D02*
X12884467Y-13629888D01*
X12884467Y-13629888D02*
X12884467Y-13582269D01*
X12884467Y-13582269D02*
X12874944Y-13563222D01*
X12874944Y-13563222D02*
X12865420Y-13553698D01*
X12865420Y-13553698D02*
X12846372Y-13544174D01*
X12846372Y-13544174D02*
X12808277Y-13544174D01*
X12808277Y-13544174D02*
X12789229Y-13553698D01*
X12789229Y-13553698D02*
X12779706Y-13563222D01*
X12779706Y-13563222D02*
X12770182Y-13582269D01*
X12979706Y-13667984D02*
X13017801Y-13667984D01*
X13017801Y-13667984D02*
X13036848Y-13658460D01*
X13036848Y-13658460D02*
X13046372Y-13648936D01*
X13046372Y-13648936D02*
X13065420Y-13620365D01*
X13065420Y-13620365D02*
X13074944Y-13582269D01*
X13074944Y-13582269D02*
X13074944Y-13506079D01*
X13074944Y-13506079D02*
X13065420Y-13487031D01*
X13065420Y-13487031D02*
X13055896Y-13477508D01*
X13055896Y-13477508D02*
X13036848Y-13467984D01*
X13036848Y-13467984D02*
X12998753Y-13467984D01*
X12998753Y-13467984D02*
X12979706Y-13477508D01*
X12979706Y-13477508D02*
X12970182Y-13487031D01*
X12970182Y-13487031D02*
X12960658Y-13506079D01*
X12960658Y-13506079D02*
X12960658Y-13553698D01*
X12960658Y-13553698D02*
X12970182Y-13572746D01*
X12970182Y-13572746D02*
X12979706Y-13582269D01*
X12979706Y-13582269D02*
X12998753Y-13591793D01*
X12998753Y-13591793D02*
X13036848Y-13591793D01*
X13036848Y-13591793D02*
X13055896Y-13582269D01*
X13055896Y-13582269D02*
X13065420Y-13572746D01*
X13065420Y-13572746D02*
X13074944Y-13553698D01*
X13151134Y-13467984D02*
X13151134Y-13506079D01*
X13227325Y-13467984D02*
X13227325Y-13506079D01*
X13522563Y-13744174D02*
X13513039Y-13734650D01*
X13513039Y-13734650D02*
X13493991Y-13706079D01*
X13493991Y-13706079D02*
X13484468Y-13687031D01*
X13484468Y-13687031D02*
X13474944Y-13658460D01*
X13474944Y-13658460D02*
X13465420Y-13610841D01*
X13465420Y-13610841D02*
X13465420Y-13572746D01*
X13465420Y-13572746D02*
X13474944Y-13525127D01*
X13474944Y-13525127D02*
X13484468Y-13496555D01*
X13484468Y-13496555D02*
X13493991Y-13477508D01*
X13493991Y-13477508D02*
X13513039Y-13448936D01*
X13513039Y-13448936D02*
X13522563Y-13439412D01*
X13579706Y-13467984D02*
X13703515Y-13467984D01*
X13703515Y-13467984D02*
X13636848Y-13544174D01*
X13636848Y-13544174D02*
X13665420Y-13544174D01*
X13665420Y-13544174D02*
X13684468Y-13553698D01*
X13684468Y-13553698D02*
X13693991Y-13563222D01*
X13693991Y-13563222D02*
X13703515Y-13582269D01*
X13703515Y-13582269D02*
X13703515Y-13629888D01*
X13703515Y-13629888D02*
X13693991Y-13648936D01*
X13693991Y-13648936D02*
X13684468Y-13658460D01*
X13684468Y-13658460D02*
X13665420Y-13667984D01*
X13665420Y-13667984D02*
X13608277Y-13667984D01*
X13608277Y-13667984D02*
X13589229Y-13658460D01*
X13589229Y-13658460D02*
X13579706Y-13648936D01*
X13779706Y-13487031D02*
X13789229Y-13477508D01*
X13789229Y-13477508D02*
X13808277Y-13467984D01*
X13808277Y-13467984D02*
X13855896Y-13467984D01*
X13855896Y-13467984D02*
X13874944Y-13477508D01*
X13874944Y-13477508D02*
X13884468Y-13487031D01*
X13884468Y-13487031D02*
X13893991Y-13506079D01*
X13893991Y-13506079D02*
X13893991Y-13525127D01*
X13893991Y-13525127D02*
X13884468Y-13553698D01*
X13884468Y-13553698D02*
X13770182Y-13667984D01*
X13770182Y-13667984D02*
X13893991Y-13667984D01*
X14132087Y-13667984D02*
X14132087Y-13467984D01*
X14217801Y-13667984D02*
X14217801Y-13563222D01*
X14217801Y-13563222D02*
X14208277Y-13544174D01*
X14208277Y-13544174D02*
X14189230Y-13534650D01*
X14189230Y-13534650D02*
X14160658Y-13534650D01*
X14160658Y-13534650D02*
X14141610Y-13544174D01*
X14141610Y-13544174D02*
X14132087Y-13553698D01*
X14341610Y-13667984D02*
X14322563Y-13658460D01*
X14322563Y-13658460D02*
X14313039Y-13648936D01*
X14313039Y-13648936D02*
X14303515Y-13629888D01*
X14303515Y-13629888D02*
X14303515Y-13572746D01*
X14303515Y-13572746D02*
X14313039Y-13553698D01*
X14313039Y-13553698D02*
X14322563Y-13544174D01*
X14322563Y-13544174D02*
X14341610Y-13534650D01*
X14341610Y-13534650D02*
X14370182Y-13534650D01*
X14370182Y-13534650D02*
X14389230Y-13544174D01*
X14389230Y-13544174D02*
X14398753Y-13553698D01*
X14398753Y-13553698D02*
X14408277Y-13572746D01*
X14408277Y-13572746D02*
X14408277Y-13629888D01*
X14408277Y-13629888D02*
X14398753Y-13648936D01*
X14398753Y-13648936D02*
X14389230Y-13658460D01*
X14389230Y-13658460D02*
X14370182Y-13667984D01*
X14370182Y-13667984D02*
X14341610Y-13667984D01*
X14522563Y-13667984D02*
X14503515Y-13658460D01*
X14503515Y-13658460D02*
X14493991Y-13639412D01*
X14493991Y-13639412D02*
X14493991Y-13467984D01*
X14674944Y-13658460D02*
X14655896Y-13667984D01*
X14655896Y-13667984D02*
X14617801Y-13667984D01*
X14617801Y-13667984D02*
X14598753Y-13658460D01*
X14598753Y-13658460D02*
X14589230Y-13639412D01*
X14589230Y-13639412D02*
X14589230Y-13563222D01*
X14589230Y-13563222D02*
X14598753Y-13544174D01*
X14598753Y-13544174D02*
X14617801Y-13534650D01*
X14617801Y-13534650D02*
X14655896Y-13534650D01*
X14655896Y-13534650D02*
X14674944Y-13544174D01*
X14674944Y-13544174D02*
X14684468Y-13563222D01*
X14684468Y-13563222D02*
X14684468Y-13582269D01*
X14684468Y-13582269D02*
X14589230Y-13601317D01*
X14760658Y-13658460D02*
X14779706Y-13667984D01*
X14779706Y-13667984D02*
X14817801Y-13667984D01*
X14817801Y-13667984D02*
X14836849Y-13658460D01*
X14836849Y-13658460D02*
X14846372Y-13639412D01*
X14846372Y-13639412D02*
X14846372Y-13629888D01*
X14846372Y-13629888D02*
X14836849Y-13610841D01*
X14836849Y-13610841D02*
X14817801Y-13601317D01*
X14817801Y-13601317D02*
X14789230Y-13601317D01*
X14789230Y-13601317D02*
X14770182Y-13591793D01*
X14770182Y-13591793D02*
X14760658Y-13572746D01*
X14760658Y-13572746D02*
X14760658Y-13563222D01*
X14760658Y-13563222D02*
X14770182Y-13544174D01*
X14770182Y-13544174D02*
X14789230Y-13534650D01*
X14789230Y-13534650D02*
X14817801Y-13534650D01*
X14817801Y-13534650D02*
X14836849Y-13544174D01*
X14913039Y-13744174D02*
X14922563Y-13734650D01*
X14922563Y-13734650D02*
X14941611Y-13706079D01*
X14941611Y-13706079D02*
X14951134Y-13687031D01*
X14951134Y-13687031D02*
X14960658Y-13658460D01*
X14960658Y-13658460D02*
X14970182Y-13610841D01*
X14970182Y-13610841D02*
X14970182Y-13572746D01*
X14970182Y-13572746D02*
X14960658Y-13525127D01*
X14960658Y-13525127D02*
X14951134Y-13496555D01*
X14951134Y-13496555D02*
X14941611Y-13477508D01*
X14941611Y-13477508D02*
X14922563Y-13448936D01*
X14922563Y-13448936D02*
X14913039Y-13439412D01*
X15274944Y-13744174D02*
X15265420Y-13734650D01*
X15265420Y-13734650D02*
X15246372Y-13706079D01*
X15246372Y-13706079D02*
X15236849Y-13687031D01*
X15236849Y-13687031D02*
X15227325Y-13658460D01*
X15227325Y-13658460D02*
X15217801Y-13610841D01*
X15217801Y-13610841D02*
X15217801Y-13572746D01*
X15217801Y-13572746D02*
X15227325Y-13525127D01*
X15227325Y-13525127D02*
X15236849Y-13496555D01*
X15236849Y-13496555D02*
X15246372Y-13477508D01*
X15246372Y-13477508D02*
X15265420Y-13448936D01*
X15265420Y-13448936D02*
X15274944Y-13439412D01*
X15351134Y-13534650D02*
X15351134Y-13667984D01*
X15351134Y-13553698D02*
X15360658Y-13544174D01*
X15360658Y-13544174D02*
X15379706Y-13534650D01*
X15379706Y-13534650D02*
X15408277Y-13534650D01*
X15408277Y-13534650D02*
X15427325Y-13544174D01*
X15427325Y-13544174D02*
X15436849Y-13563222D01*
X15436849Y-13563222D02*
X15436849Y-13667984D01*
X15560658Y-13667984D02*
X15541611Y-13658460D01*
X15541611Y-13658460D02*
X15532087Y-13648936D01*
X15532087Y-13648936D02*
X15522563Y-13629888D01*
X15522563Y-13629888D02*
X15522563Y-13572746D01*
X15522563Y-13572746D02*
X15532087Y-13553698D01*
X15532087Y-13553698D02*
X15541611Y-13544174D01*
X15541611Y-13544174D02*
X15560658Y-13534650D01*
X15560658Y-13534650D02*
X15589230Y-13534650D01*
X15589230Y-13534650D02*
X15608277Y-13544174D01*
X15608277Y-13544174D02*
X15617801Y-13553698D01*
X15617801Y-13553698D02*
X15627325Y-13572746D01*
X15627325Y-13572746D02*
X15627325Y-13629888D01*
X15627325Y-13629888D02*
X15617801Y-13648936D01*
X15617801Y-13648936D02*
X15608277Y-13658460D01*
X15608277Y-13658460D02*
X15589230Y-13667984D01*
X15589230Y-13667984D02*
X15560658Y-13667984D01*
X15684468Y-13534650D02*
X15760658Y-13534650D01*
X15713039Y-13467984D02*
X15713039Y-13639412D01*
X15713039Y-13639412D02*
X15722563Y-13658460D01*
X15722563Y-13658460D02*
X15741611Y-13667984D01*
X15741611Y-13667984D02*
X15760658Y-13667984D01*
X15979706Y-13534650D02*
X15979706Y-13734650D01*
X15979706Y-13544174D02*
X15998753Y-13534650D01*
X15998753Y-13534650D02*
X16036849Y-13534650D01*
X16036849Y-13534650D02*
X16055896Y-13544174D01*
X16055896Y-13544174D02*
X16065420Y-13553698D01*
X16065420Y-13553698D02*
X16074944Y-13572746D01*
X16074944Y-13572746D02*
X16074944Y-13629888D01*
X16074944Y-13629888D02*
X16065420Y-13648936D01*
X16065420Y-13648936D02*
X16055896Y-13658460D01*
X16055896Y-13658460D02*
X16036849Y-13667984D01*
X16036849Y-13667984D02*
X15998753Y-13667984D01*
X15998753Y-13667984D02*
X15979706Y-13658460D01*
X16189230Y-13667984D02*
X16170182Y-13658460D01*
X16170182Y-13658460D02*
X16160658Y-13639412D01*
X16160658Y-13639412D02*
X16160658Y-13467984D01*
X16351134Y-13667984D02*
X16351134Y-13563222D01*
X16351134Y-13563222D02*
X16341611Y-13544174D01*
X16341611Y-13544174D02*
X16322563Y-13534650D01*
X16322563Y-13534650D02*
X16284468Y-13534650D01*
X16284468Y-13534650D02*
X16265420Y-13544174D01*
X16351134Y-13658460D02*
X16332087Y-13667984D01*
X16332087Y-13667984D02*
X16284468Y-13667984D01*
X16284468Y-13667984D02*
X16265420Y-13658460D01*
X16265420Y-13658460D02*
X16255896Y-13639412D01*
X16255896Y-13639412D02*
X16255896Y-13620365D01*
X16255896Y-13620365D02*
X16265420Y-13601317D01*
X16265420Y-13601317D02*
X16284468Y-13591793D01*
X16284468Y-13591793D02*
X16332087Y-13591793D01*
X16332087Y-13591793D02*
X16351134Y-13582269D01*
X16417801Y-13534650D02*
X16493992Y-13534650D01*
X16446373Y-13467984D02*
X16446373Y-13639412D01*
X16446373Y-13639412D02*
X16455896Y-13658460D01*
X16455896Y-13658460D02*
X16474944Y-13667984D01*
X16474944Y-13667984D02*
X16493992Y-13667984D01*
X16636849Y-13658460D02*
X16617801Y-13667984D01*
X16617801Y-13667984D02*
X16579706Y-13667984D01*
X16579706Y-13667984D02*
X16560658Y-13658460D01*
X16560658Y-13658460D02*
X16551134Y-13639412D01*
X16551134Y-13639412D02*
X16551134Y-13563222D01*
X16551134Y-13563222D02*
X16560658Y-13544174D01*
X16560658Y-13544174D02*
X16579706Y-13534650D01*
X16579706Y-13534650D02*
X16617801Y-13534650D01*
X16617801Y-13534650D02*
X16636849Y-13544174D01*
X16636849Y-13544174D02*
X16646373Y-13563222D01*
X16646373Y-13563222D02*
X16646373Y-13582269D01*
X16646373Y-13582269D02*
X16551134Y-13601317D01*
X16817801Y-13667984D02*
X16817801Y-13467984D01*
X16817801Y-13658460D02*
X16798754Y-13667984D01*
X16798754Y-13667984D02*
X16760658Y-13667984D01*
X16760658Y-13667984D02*
X16741611Y-13658460D01*
X16741611Y-13658460D02*
X16732087Y-13648936D01*
X16732087Y-13648936D02*
X16722563Y-13629888D01*
X16722563Y-13629888D02*
X16722563Y-13572746D01*
X16722563Y-13572746D02*
X16732087Y-13553698D01*
X16732087Y-13553698D02*
X16741611Y-13544174D01*
X16741611Y-13544174D02*
X16760658Y-13534650D01*
X16760658Y-13534650D02*
X16798754Y-13534650D01*
X16798754Y-13534650D02*
X16817801Y-13544174D01*
X16893992Y-13744174D02*
X16903516Y-13734650D01*
X16903516Y-13734650D02*
X16922563Y-13706079D01*
X16922563Y-13706079D02*
X16932087Y-13687031D01*
X16932087Y-13687031D02*
X16941611Y-13658460D01*
X16941611Y-13658460D02*
X16951135Y-13610841D01*
X16951135Y-13610841D02*
X16951135Y-13572746D01*
X16951135Y-13572746D02*
X16941611Y-13525127D01*
X16941611Y-13525127D02*
X16932087Y-13496555D01*
X16932087Y-13496555D02*
X16922563Y-13477508D01*
X16922563Y-13477508D02*
X16903516Y-13448936D01*
X16903516Y-13448936D02*
X16893992Y-13439412D01*
X9847500Y-13766500D02*
X9847500Y-13966500D01*
X9747500Y-13866500D02*
X9947500Y-13866500D01*
X10293991Y-13824650D02*
X10293991Y-13957984D01*
X10246372Y-13748460D02*
X10198753Y-13891317D01*
X10198753Y-13891317D02*
X10322563Y-13891317D01*
X10398753Y-13938936D02*
X10408277Y-13948460D01*
X10408277Y-13948460D02*
X10398753Y-13957984D01*
X10398753Y-13957984D02*
X10389229Y-13948460D01*
X10389229Y-13948460D02*
X10398753Y-13938936D01*
X10398753Y-13938936D02*
X10398753Y-13957984D01*
X10532086Y-13757984D02*
X10551134Y-13757984D01*
X10551134Y-13757984D02*
X10570182Y-13767508D01*
X10570182Y-13767508D02*
X10579705Y-13777031D01*
X10579705Y-13777031D02*
X10589229Y-13796079D01*
X10589229Y-13796079D02*
X10598753Y-13834174D01*
X10598753Y-13834174D02*
X10598753Y-13881793D01*
X10598753Y-13881793D02*
X10589229Y-13919888D01*
X10589229Y-13919888D02*
X10579705Y-13938936D01*
X10579705Y-13938936D02*
X10570182Y-13948460D01*
X10570182Y-13948460D02*
X10551134Y-13957984D01*
X10551134Y-13957984D02*
X10532086Y-13957984D01*
X10532086Y-13957984D02*
X10513039Y-13948460D01*
X10513039Y-13948460D02*
X10503515Y-13938936D01*
X10503515Y-13938936D02*
X10493991Y-13919888D01*
X10493991Y-13919888D02*
X10484467Y-13881793D01*
X10484467Y-13881793D02*
X10484467Y-13834174D01*
X10484467Y-13834174D02*
X10493991Y-13796079D01*
X10493991Y-13796079D02*
X10503515Y-13777031D01*
X10503515Y-13777031D02*
X10513039Y-13767508D01*
X10513039Y-13767508D02*
X10532086Y-13757984D01*
X10722563Y-13757984D02*
X10741610Y-13757984D01*
X10741610Y-13757984D02*
X10760658Y-13767508D01*
X10760658Y-13767508D02*
X10770182Y-13777031D01*
X10770182Y-13777031D02*
X10779705Y-13796079D01*
X10779705Y-13796079D02*
X10789229Y-13834174D01*
X10789229Y-13834174D02*
X10789229Y-13881793D01*
X10789229Y-13881793D02*
X10779705Y-13919888D01*
X10779705Y-13919888D02*
X10770182Y-13938936D01*
X10770182Y-13938936D02*
X10760658Y-13948460D01*
X10760658Y-13948460D02*
X10741610Y-13957984D01*
X10741610Y-13957984D02*
X10722563Y-13957984D01*
X10722563Y-13957984D02*
X10703515Y-13948460D01*
X10703515Y-13948460D02*
X10693991Y-13938936D01*
X10693991Y-13938936D02*
X10684467Y-13919888D01*
X10684467Y-13919888D02*
X10674944Y-13881793D01*
X10674944Y-13881793D02*
X10674944Y-13834174D01*
X10674944Y-13834174D02*
X10684467Y-13796079D01*
X10684467Y-13796079D02*
X10693991Y-13777031D01*
X10693991Y-13777031D02*
X10703515Y-13767508D01*
X10703515Y-13767508D02*
X10722563Y-13757984D01*
X10913039Y-13757984D02*
X10932086Y-13757984D01*
X10932086Y-13757984D02*
X10951134Y-13767508D01*
X10951134Y-13767508D02*
X10960658Y-13777031D01*
X10960658Y-13777031D02*
X10970182Y-13796079D01*
X10970182Y-13796079D02*
X10979705Y-13834174D01*
X10979705Y-13834174D02*
X10979705Y-13881793D01*
X10979705Y-13881793D02*
X10970182Y-13919888D01*
X10970182Y-13919888D02*
X10960658Y-13938936D01*
X10960658Y-13938936D02*
X10951134Y-13948460D01*
X10951134Y-13948460D02*
X10932086Y-13957984D01*
X10932086Y-13957984D02*
X10913039Y-13957984D01*
X10913039Y-13957984D02*
X10893991Y-13948460D01*
X10893991Y-13948460D02*
X10884467Y-13938936D01*
X10884467Y-13938936D02*
X10874944Y-13919888D01*
X10874944Y-13919888D02*
X10865420Y-13881793D01*
X10865420Y-13881793D02*
X10865420Y-13834174D01*
X10865420Y-13834174D02*
X10874944Y-13796079D01*
X10874944Y-13796079D02*
X10884467Y-13777031D01*
X10884467Y-13777031D02*
X10893991Y-13767508D01*
X10893991Y-13767508D02*
X10913039Y-13757984D01*
X11065420Y-13957984D02*
X11065420Y-13824650D01*
X11065420Y-13843698D02*
X11074944Y-13834174D01*
X11074944Y-13834174D02*
X11093991Y-13824650D01*
X11093991Y-13824650D02*
X11122563Y-13824650D01*
X11122563Y-13824650D02*
X11141610Y-13834174D01*
X11141610Y-13834174D02*
X11151134Y-13853222D01*
X11151134Y-13853222D02*
X11151134Y-13957984D01*
X11151134Y-13853222D02*
X11160658Y-13834174D01*
X11160658Y-13834174D02*
X11179705Y-13824650D01*
X11179705Y-13824650D02*
X11208277Y-13824650D01*
X11208277Y-13824650D02*
X11227324Y-13834174D01*
X11227324Y-13834174D02*
X11236848Y-13853222D01*
X11236848Y-13853222D02*
X11236848Y-13957984D01*
X11332086Y-13957984D02*
X11332086Y-13824650D01*
X11332086Y-13843698D02*
X11341610Y-13834174D01*
X11341610Y-13834174D02*
X11360658Y-13824650D01*
X11360658Y-13824650D02*
X11389229Y-13824650D01*
X11389229Y-13824650D02*
X11408277Y-13834174D01*
X11408277Y-13834174D02*
X11417801Y-13853222D01*
X11417801Y-13853222D02*
X11417801Y-13957984D01*
X11417801Y-13853222D02*
X11427324Y-13834174D01*
X11427324Y-13834174D02*
X11446372Y-13824650D01*
X11446372Y-13824650D02*
X11474943Y-13824650D01*
X11474943Y-13824650D02*
X11493991Y-13834174D01*
X11493991Y-13834174D02*
X11503515Y-13853222D01*
X11503515Y-13853222D02*
X11503515Y-13957984D01*
X11893991Y-13748460D02*
X11722563Y-14005603D01*
X12151134Y-13757984D02*
X12170182Y-13757984D01*
X12170182Y-13757984D02*
X12189229Y-13767508D01*
X12189229Y-13767508D02*
X12198753Y-13777031D01*
X12198753Y-13777031D02*
X12208277Y-13796079D01*
X12208277Y-13796079D02*
X12217801Y-13834174D01*
X12217801Y-13834174D02*
X12217801Y-13881793D01*
X12217801Y-13881793D02*
X12208277Y-13919888D01*
X12208277Y-13919888D02*
X12198753Y-13938936D01*
X12198753Y-13938936D02*
X12189229Y-13948460D01*
X12189229Y-13948460D02*
X12170182Y-13957984D01*
X12170182Y-13957984D02*
X12151134Y-13957984D01*
X12151134Y-13957984D02*
X12132086Y-13948460D01*
X12132086Y-13948460D02*
X12122563Y-13938936D01*
X12122563Y-13938936D02*
X12113039Y-13919888D01*
X12113039Y-13919888D02*
X12103515Y-13881793D01*
X12103515Y-13881793D02*
X12103515Y-13834174D01*
X12103515Y-13834174D02*
X12113039Y-13796079D01*
X12113039Y-13796079D02*
X12122563Y-13777031D01*
X12122563Y-13777031D02*
X12132086Y-13767508D01*
X12132086Y-13767508D02*
X12151134Y-13757984D01*
X12303515Y-13938936D02*
X12313039Y-13948460D01*
X12313039Y-13948460D02*
X12303515Y-13957984D01*
X12303515Y-13957984D02*
X12293991Y-13948460D01*
X12293991Y-13948460D02*
X12303515Y-13938936D01*
X12303515Y-13938936D02*
X12303515Y-13957984D01*
X12503515Y-13957984D02*
X12389229Y-13957984D01*
X12446372Y-13957984D02*
X12446372Y-13757984D01*
X12446372Y-13757984D02*
X12427325Y-13786555D01*
X12427325Y-13786555D02*
X12408277Y-13805603D01*
X12408277Y-13805603D02*
X12389229Y-13815127D01*
X12684467Y-13757984D02*
X12589229Y-13757984D01*
X12589229Y-13757984D02*
X12579706Y-13853222D01*
X12579706Y-13853222D02*
X12589229Y-13843698D01*
X12589229Y-13843698D02*
X12608277Y-13834174D01*
X12608277Y-13834174D02*
X12655896Y-13834174D01*
X12655896Y-13834174D02*
X12674944Y-13843698D01*
X12674944Y-13843698D02*
X12684467Y-13853222D01*
X12684467Y-13853222D02*
X12693991Y-13872269D01*
X12693991Y-13872269D02*
X12693991Y-13919888D01*
X12693991Y-13919888D02*
X12684467Y-13938936D01*
X12684467Y-13938936D02*
X12674944Y-13948460D01*
X12674944Y-13948460D02*
X12655896Y-13957984D01*
X12655896Y-13957984D02*
X12608277Y-13957984D01*
X12608277Y-13957984D02*
X12589229Y-13948460D01*
X12589229Y-13948460D02*
X12579706Y-13938936D01*
X12760658Y-13757984D02*
X12893991Y-13757984D01*
X12893991Y-13757984D02*
X12808277Y-13957984D01*
X13065420Y-13757984D02*
X12970182Y-13757984D01*
X12970182Y-13757984D02*
X12960658Y-13853222D01*
X12960658Y-13853222D02*
X12970182Y-13843698D01*
X12970182Y-13843698D02*
X12989229Y-13834174D01*
X12989229Y-13834174D02*
X13036848Y-13834174D01*
X13036848Y-13834174D02*
X13055896Y-13843698D01*
X13055896Y-13843698D02*
X13065420Y-13853222D01*
X13065420Y-13853222D02*
X13074944Y-13872269D01*
X13074944Y-13872269D02*
X13074944Y-13919888D01*
X13074944Y-13919888D02*
X13065420Y-13938936D01*
X13065420Y-13938936D02*
X13055896Y-13948460D01*
X13055896Y-13948460D02*
X13036848Y-13957984D01*
X13036848Y-13957984D02*
X12989229Y-13957984D01*
X12989229Y-13957984D02*
X12970182Y-13948460D01*
X12970182Y-13948460D02*
X12960658Y-13938936D01*
X13151134Y-13757984D02*
X13151134Y-13796079D01*
X13227325Y-13757984D02*
X13227325Y-13796079D01*
X13522563Y-14034174D02*
X13513039Y-14024650D01*
X13513039Y-14024650D02*
X13493991Y-13996079D01*
X13493991Y-13996079D02*
X13484468Y-13977031D01*
X13484468Y-13977031D02*
X13474944Y-13948460D01*
X13474944Y-13948460D02*
X13465420Y-13900841D01*
X13465420Y-13900841D02*
X13465420Y-13862746D01*
X13465420Y-13862746D02*
X13474944Y-13815127D01*
X13474944Y-13815127D02*
X13484468Y-13786555D01*
X13484468Y-13786555D02*
X13493991Y-13767508D01*
X13493991Y-13767508D02*
X13513039Y-13738936D01*
X13513039Y-13738936D02*
X13522563Y-13729412D01*
X13703515Y-13957984D02*
X13589229Y-13957984D01*
X13646372Y-13957984D02*
X13646372Y-13757984D01*
X13646372Y-13757984D02*
X13627325Y-13786555D01*
X13627325Y-13786555D02*
X13608277Y-13805603D01*
X13608277Y-13805603D02*
X13589229Y-13815127D01*
X13874944Y-13757984D02*
X13836848Y-13757984D01*
X13836848Y-13757984D02*
X13817801Y-13767508D01*
X13817801Y-13767508D02*
X13808277Y-13777031D01*
X13808277Y-13777031D02*
X13789229Y-13805603D01*
X13789229Y-13805603D02*
X13779706Y-13843698D01*
X13779706Y-13843698D02*
X13779706Y-13919888D01*
X13779706Y-13919888D02*
X13789229Y-13938936D01*
X13789229Y-13938936D02*
X13798753Y-13948460D01*
X13798753Y-13948460D02*
X13817801Y-13957984D01*
X13817801Y-13957984D02*
X13855896Y-13957984D01*
X13855896Y-13957984D02*
X13874944Y-13948460D01*
X13874944Y-13948460D02*
X13884468Y-13938936D01*
X13884468Y-13938936D02*
X13893991Y-13919888D01*
X13893991Y-13919888D02*
X13893991Y-13872269D01*
X13893991Y-13872269D02*
X13884468Y-13853222D01*
X13884468Y-13853222D02*
X13874944Y-13843698D01*
X13874944Y-13843698D02*
X13855896Y-13834174D01*
X13855896Y-13834174D02*
X13817801Y-13834174D01*
X13817801Y-13834174D02*
X13798753Y-13843698D01*
X13798753Y-13843698D02*
X13789229Y-13853222D01*
X13789229Y-13853222D02*
X13779706Y-13872269D01*
X14132087Y-13957984D02*
X14132087Y-13757984D01*
X14217801Y-13957984D02*
X14217801Y-13853222D01*
X14217801Y-13853222D02*
X14208277Y-13834174D01*
X14208277Y-13834174D02*
X14189230Y-13824650D01*
X14189230Y-13824650D02*
X14160658Y-13824650D01*
X14160658Y-13824650D02*
X14141610Y-13834174D01*
X14141610Y-13834174D02*
X14132087Y-13843698D01*
X14341610Y-13957984D02*
X14322563Y-13948460D01*
X14322563Y-13948460D02*
X14313039Y-13938936D01*
X14313039Y-13938936D02*
X14303515Y-13919888D01*
X14303515Y-13919888D02*
X14303515Y-13862746D01*
X14303515Y-13862746D02*
X14313039Y-13843698D01*
X14313039Y-13843698D02*
X14322563Y-13834174D01*
X14322563Y-13834174D02*
X14341610Y-13824650D01*
X14341610Y-13824650D02*
X14370182Y-13824650D01*
X14370182Y-13824650D02*
X14389230Y-13834174D01*
X14389230Y-13834174D02*
X14398753Y-13843698D01*
X14398753Y-13843698D02*
X14408277Y-13862746D01*
X14408277Y-13862746D02*
X14408277Y-13919888D01*
X14408277Y-13919888D02*
X14398753Y-13938936D01*
X14398753Y-13938936D02*
X14389230Y-13948460D01*
X14389230Y-13948460D02*
X14370182Y-13957984D01*
X14370182Y-13957984D02*
X14341610Y-13957984D01*
X14522563Y-13957984D02*
X14503515Y-13948460D01*
X14503515Y-13948460D02*
X14493991Y-13929412D01*
X14493991Y-13929412D02*
X14493991Y-13757984D01*
X14674944Y-13948460D02*
X14655896Y-13957984D01*
X14655896Y-13957984D02*
X14617801Y-13957984D01*
X14617801Y-13957984D02*
X14598753Y-13948460D01*
X14598753Y-13948460D02*
X14589230Y-13929412D01*
X14589230Y-13929412D02*
X14589230Y-13853222D01*
X14589230Y-13853222D02*
X14598753Y-13834174D01*
X14598753Y-13834174D02*
X14617801Y-13824650D01*
X14617801Y-13824650D02*
X14655896Y-13824650D01*
X14655896Y-13824650D02*
X14674944Y-13834174D01*
X14674944Y-13834174D02*
X14684468Y-13853222D01*
X14684468Y-13853222D02*
X14684468Y-13872269D01*
X14684468Y-13872269D02*
X14589230Y-13891317D01*
X14760658Y-13948460D02*
X14779706Y-13957984D01*
X14779706Y-13957984D02*
X14817801Y-13957984D01*
X14817801Y-13957984D02*
X14836849Y-13948460D01*
X14836849Y-13948460D02*
X14846372Y-13929412D01*
X14846372Y-13929412D02*
X14846372Y-13919888D01*
X14846372Y-13919888D02*
X14836849Y-13900841D01*
X14836849Y-13900841D02*
X14817801Y-13891317D01*
X14817801Y-13891317D02*
X14789230Y-13891317D01*
X14789230Y-13891317D02*
X14770182Y-13881793D01*
X14770182Y-13881793D02*
X14760658Y-13862746D01*
X14760658Y-13862746D02*
X14760658Y-13853222D01*
X14760658Y-13853222D02*
X14770182Y-13834174D01*
X14770182Y-13834174D02*
X14789230Y-13824650D01*
X14789230Y-13824650D02*
X14817801Y-13824650D01*
X14817801Y-13824650D02*
X14836849Y-13834174D01*
X14913039Y-14034174D02*
X14922563Y-14024650D01*
X14922563Y-14024650D02*
X14941611Y-13996079D01*
X14941611Y-13996079D02*
X14951134Y-13977031D01*
X14951134Y-13977031D02*
X14960658Y-13948460D01*
X14960658Y-13948460D02*
X14970182Y-13900841D01*
X14970182Y-13900841D02*
X14970182Y-13862746D01*
X14970182Y-13862746D02*
X14960658Y-13815127D01*
X14960658Y-13815127D02*
X14951134Y-13786555D01*
X14951134Y-13786555D02*
X14941611Y-13767508D01*
X14941611Y-13767508D02*
X14922563Y-13738936D01*
X14922563Y-13738936D02*
X14913039Y-13729412D01*
X15274944Y-14034174D02*
X15265420Y-14024650D01*
X15265420Y-14024650D02*
X15246372Y-13996079D01*
X15246372Y-13996079D02*
X15236849Y-13977031D01*
X15236849Y-13977031D02*
X15227325Y-13948460D01*
X15227325Y-13948460D02*
X15217801Y-13900841D01*
X15217801Y-13900841D02*
X15217801Y-13862746D01*
X15217801Y-13862746D02*
X15227325Y-13815127D01*
X15227325Y-13815127D02*
X15236849Y-13786555D01*
X15236849Y-13786555D02*
X15246372Y-13767508D01*
X15246372Y-13767508D02*
X15265420Y-13738936D01*
X15265420Y-13738936D02*
X15274944Y-13729412D01*
X15351134Y-13824650D02*
X15351134Y-13957984D01*
X15351134Y-13843698D02*
X15360658Y-13834174D01*
X15360658Y-13834174D02*
X15379706Y-13824650D01*
X15379706Y-13824650D02*
X15408277Y-13824650D01*
X15408277Y-13824650D02*
X15427325Y-13834174D01*
X15427325Y-13834174D02*
X15436849Y-13853222D01*
X15436849Y-13853222D02*
X15436849Y-13957984D01*
X15560658Y-13957984D02*
X15541611Y-13948460D01*
X15541611Y-13948460D02*
X15532087Y-13938936D01*
X15532087Y-13938936D02*
X15522563Y-13919888D01*
X15522563Y-13919888D02*
X15522563Y-13862746D01*
X15522563Y-13862746D02*
X15532087Y-13843698D01*
X15532087Y-13843698D02*
X15541611Y-13834174D01*
X15541611Y-13834174D02*
X15560658Y-13824650D01*
X15560658Y-13824650D02*
X15589230Y-13824650D01*
X15589230Y-13824650D02*
X15608277Y-13834174D01*
X15608277Y-13834174D02*
X15617801Y-13843698D01*
X15617801Y-13843698D02*
X15627325Y-13862746D01*
X15627325Y-13862746D02*
X15627325Y-13919888D01*
X15627325Y-13919888D02*
X15617801Y-13938936D01*
X15617801Y-13938936D02*
X15608277Y-13948460D01*
X15608277Y-13948460D02*
X15589230Y-13957984D01*
X15589230Y-13957984D02*
X15560658Y-13957984D01*
X15684468Y-13824650D02*
X15760658Y-13824650D01*
X15713039Y-13757984D02*
X15713039Y-13929412D01*
X15713039Y-13929412D02*
X15722563Y-13948460D01*
X15722563Y-13948460D02*
X15741611Y-13957984D01*
X15741611Y-13957984D02*
X15760658Y-13957984D01*
X15979706Y-13824650D02*
X15979706Y-14024650D01*
X15979706Y-13834174D02*
X15998753Y-13824650D01*
X15998753Y-13824650D02*
X16036849Y-13824650D01*
X16036849Y-13824650D02*
X16055896Y-13834174D01*
X16055896Y-13834174D02*
X16065420Y-13843698D01*
X16065420Y-13843698D02*
X16074944Y-13862746D01*
X16074944Y-13862746D02*
X16074944Y-13919888D01*
X16074944Y-13919888D02*
X16065420Y-13938936D01*
X16065420Y-13938936D02*
X16055896Y-13948460D01*
X16055896Y-13948460D02*
X16036849Y-13957984D01*
X16036849Y-13957984D02*
X15998753Y-13957984D01*
X15998753Y-13957984D02*
X15979706Y-13948460D01*
X16189230Y-13957984D02*
X16170182Y-13948460D01*
X16170182Y-13948460D02*
X16160658Y-13929412D01*
X16160658Y-13929412D02*
X16160658Y-13757984D01*
X16351134Y-13957984D02*
X16351134Y-13853222D01*
X16351134Y-13853222D02*
X16341611Y-13834174D01*
X16341611Y-13834174D02*
X16322563Y-13824650D01*
X16322563Y-13824650D02*
X16284468Y-13824650D01*
X16284468Y-13824650D02*
X16265420Y-13834174D01*
X16351134Y-13948460D02*
X16332087Y-13957984D01*
X16332087Y-13957984D02*
X16284468Y-13957984D01*
X16284468Y-13957984D02*
X16265420Y-13948460D01*
X16265420Y-13948460D02*
X16255896Y-13929412D01*
X16255896Y-13929412D02*
X16255896Y-13910365D01*
X16255896Y-13910365D02*
X16265420Y-13891317D01*
X16265420Y-13891317D02*
X16284468Y-13881793D01*
X16284468Y-13881793D02*
X16332087Y-13881793D01*
X16332087Y-13881793D02*
X16351134Y-13872269D01*
X16417801Y-13824650D02*
X16493992Y-13824650D01*
X16446373Y-13757984D02*
X16446373Y-13929412D01*
X16446373Y-13929412D02*
X16455896Y-13948460D01*
X16455896Y-13948460D02*
X16474944Y-13957984D01*
X16474944Y-13957984D02*
X16493992Y-13957984D01*
X16636849Y-13948460D02*
X16617801Y-13957984D01*
X16617801Y-13957984D02*
X16579706Y-13957984D01*
X16579706Y-13957984D02*
X16560658Y-13948460D01*
X16560658Y-13948460D02*
X16551134Y-13929412D01*
X16551134Y-13929412D02*
X16551134Y-13853222D01*
X16551134Y-13853222D02*
X16560658Y-13834174D01*
X16560658Y-13834174D02*
X16579706Y-13824650D01*
X16579706Y-13824650D02*
X16617801Y-13824650D01*
X16617801Y-13824650D02*
X16636849Y-13834174D01*
X16636849Y-13834174D02*
X16646373Y-13853222D01*
X16646373Y-13853222D02*
X16646373Y-13872269D01*
X16646373Y-13872269D02*
X16551134Y-13891317D01*
X16817801Y-13957984D02*
X16817801Y-13757984D01*
X16817801Y-13948460D02*
X16798754Y-13957984D01*
X16798754Y-13957984D02*
X16760658Y-13957984D01*
X16760658Y-13957984D02*
X16741611Y-13948460D01*
X16741611Y-13948460D02*
X16732087Y-13938936D01*
X16732087Y-13938936D02*
X16722563Y-13919888D01*
X16722563Y-13919888D02*
X16722563Y-13862746D01*
X16722563Y-13862746D02*
X16732087Y-13843698D01*
X16732087Y-13843698D02*
X16741611Y-13834174D01*
X16741611Y-13834174D02*
X16760658Y-13824650D01*
X16760658Y-13824650D02*
X16798754Y-13824650D01*
X16798754Y-13824650D02*
X16817801Y-13834174D01*
X16893992Y-14034174D02*
X16903516Y-14024650D01*
X16903516Y-14024650D02*
X16922563Y-13996079D01*
X16922563Y-13996079D02*
X16932087Y-13977031D01*
X16932087Y-13977031D02*
X16941611Y-13948460D01*
X16941611Y-13948460D02*
X16951135Y-13900841D01*
X16951135Y-13900841D02*
X16951135Y-13862746D01*
X16951135Y-13862746D02*
X16941611Y-13815127D01*
X16941611Y-13815127D02*
X16932087Y-13786555D01*
X16932087Y-13786555D02*
X16922563Y-13767508D01*
X16922563Y-13767508D02*
X16903516Y-13738936D01*
X16903516Y-13738936D02*
X16893992Y-13729412D01*
M02*
