G04 #@! TF.GenerationSoftware,KiCad,Pcbnew,10.0.5*
G04 #@! TF.CreationDate,2026-09-10T14:25:07+08:00*
G04 #@! TF.ProjectId,XS16,58533136-2e6b-4696-9361-645f70636258,rev?*
G04 #@! TF.SameCoordinates,Original*
G04 #@! TF.FileFunction,Copper,L1,Top*
G04 #@! TF.FilePolarity,Positive*
%FSLAX46Y46*%
G04 Gerber Fmt 4.6, Leading zero omitted, Abs format (unit mm)*
G04 Created by KiCad (PCBNEW 10.0.5) date 2026-09-10 14:25:07*
%MOMM*%
%LPD*%
G01*
G04 APERTURE LIST*
G04 Aperture macros list*
%AMHorizOval*
0 Thick line with rounded ends*
0 $1 width*
0 $2 $3 position (X,Y) of the first rounded end (center of the circle)*
0 $4 $5 position (X,Y) of the second rounded end (center of the circle)*
0 Add line between two ends*
20,1,$1,$2,$3,$4,$5,0*
0 Add two circle primitives to create the rounded ends*
1,1,$1,$2,$3*
1,1,$1,$4,$5*%
G04 Aperture macros list end*
G04 #@! TA.AperFunction,ComponentPad*
%ADD10R,1.700000X1.700000*%
G04 #@! TD*
G04 #@! TA.AperFunction,ComponentPad*
%ADD11C,1.700000*%
G04 #@! TD*
G04 #@! TA.AperFunction,ComponentPad*
%ADD12HorizOval,1.200000X0.453154X-0.211309X-0.453154X0.211309X0*%
G04 #@! TD*
G04 #@! TA.AperFunction,ComponentPad*
%ADD13HorizOval,1.200000X0.453154X0.211309X-0.453154X-0.211309X0*%
G04 #@! TD*
G04 #@! TA.AperFunction,ComponentPad*
%ADD14O,0.900000X1.700000*%
G04 #@! TD*
G04 #@! TA.AperFunction,ComponentPad*
%ADD15O,0.900000X2.000000*%
G04 #@! TD*
G04 #@! TA.AperFunction,ViaPad*
%ADD16C,0.800000*%
G04 #@! TD*
G04 #@! TA.AperFunction,ViaPad*
%ADD17C,4.000000*%
G04 #@! TD*
G04 #@! TA.AperFunction,ViaPad*
%ADD18C,0.600000*%
G04 #@! TD*
G04 #@! TA.AperFunction,Conductor*
%ADD19C,0.400000*%
G04 #@! TD*
G04 #@! TA.AperFunction,Conductor*
%ADD20C,0.250000*%
G04 #@! TD*
G04 #@! TA.AperFunction,Conductor*
%ADD21C,0.500000*%
G04 #@! TD*
G04 APERTURE END LIST*
D10*
X156700000Y-44600000D03*
D11*
X159240000Y-44600000D03*
X161780000Y-44600000D03*
X164320000Y-44600000D03*
X166860000Y-44600000D03*
X169400000Y-44600000D03*
X171940000Y-44600000D03*
X174480000Y-44600000D03*
D12*
X112050000Y-54470000D03*
D13*
X105700000Y-57010000D03*
D12*
X131100000Y-54470000D03*
D13*
X124750000Y-57010000D03*
D12*
X150150000Y-54470000D03*
D13*
X143800000Y-57010000D03*
D12*
X169200000Y-54470000D03*
D13*
X162850000Y-57010000D03*
D12*
X112050000Y-73520000D03*
D13*
X105700000Y-76060000D03*
D12*
X150150000Y-73520000D03*
D13*
X143800000Y-76060000D03*
D12*
X169200000Y-73520000D03*
D13*
X162850000Y-76060000D03*
D12*
X112050000Y-92570000D03*
D13*
X105700000Y-95110000D03*
D12*
X131100000Y-92570000D03*
D13*
X124750000Y-95110000D03*
D12*
X150150000Y-92570000D03*
D13*
X143800000Y-95110000D03*
D12*
X169200000Y-92570000D03*
D13*
X162850000Y-95110000D03*
D12*
X112050000Y-111620000D03*
D13*
X105700000Y-114160000D03*
D12*
X131100000Y-111620000D03*
D13*
X124750000Y-114160000D03*
D12*
X150150000Y-111620000D03*
D13*
X143800000Y-114160000D03*
D12*
X169200000Y-111620000D03*
D13*
X162850000Y-114160000D03*
D12*
X131100000Y-73520000D03*
D13*
X124750000Y-76060000D03*
D14*
X105190000Y-42070000D03*
D15*
X105190000Y-46240000D03*
D14*
X113830000Y-42070000D03*
D15*
X113830000Y-46240000D03*
D16*
X146250000Y-44600000D03*
X136900000Y-42050001D03*
X112530000Y-48270000D03*
X106750000Y-48750000D03*
X136200000Y-41100000D03*
X137850000Y-46100000D03*
D17*
X119050000Y-124000000D03*
X138100000Y-57500000D03*
D16*
X124400000Y-41950000D03*
D17*
X157150000Y-124000000D03*
D16*
X123200000Y-41900000D03*
X125050000Y-43100000D03*
X131350000Y-43050000D03*
X122000000Y-41900000D03*
X120700000Y-42450000D03*
X136400000Y-43800000D03*
X140000000Y-51400000D03*
X141500000Y-51600000D03*
X137125000Y-44900000D03*
X132100000Y-45900000D03*
X124850000Y-45900000D03*
D18*
X109250000Y-45200000D03*
X110600000Y-44299992D03*
D16*
X112700000Y-44200000D03*
D19*
X139449999Y-44600000D02*
X137299999Y-42450000D01*
X146250000Y-44600000D02*
X139449999Y-44600000D01*
X107230000Y-48270000D02*
X106750000Y-48750000D01*
X137299999Y-42450000D02*
X136900000Y-42050001D01*
X112530000Y-48270000D02*
X107230000Y-48270000D01*
X156700000Y-44600000D02*
X146250000Y-44600000D01*
D20*
X155740000Y-41100000D02*
X136200000Y-41100000D01*
X159240000Y-44600000D02*
X155740000Y-41100000D01*
X138900000Y-47150000D02*
X169390000Y-47150000D01*
X169390000Y-47150000D02*
X171940000Y-44600000D01*
X137850000Y-46100000D02*
X138900000Y-47150000D01*
D21*
X112050000Y-54470000D02*
X169200000Y-54470000D01*
X112050000Y-73520000D02*
X169200000Y-73520000D01*
X113092826Y-92570000D02*
X169200000Y-92570000D01*
D20*
X112050000Y-92570000D02*
X113092826Y-92570000D01*
D21*
X169200000Y-111620000D02*
X112050000Y-111620000D01*
D20*
X140000000Y-51400000D02*
X136400000Y-47800000D01*
X136400000Y-47800000D02*
X136400000Y-43800000D01*
X141500000Y-51600000D02*
X138400000Y-48500000D01*
X138400000Y-48500000D02*
X137100000Y-47200000D01*
X137125000Y-47175000D02*
X137125000Y-44900000D01*
X137100000Y-47200000D02*
X137125000Y-47175000D01*
X132100000Y-45900000D02*
X131534315Y-45900000D01*
X131534315Y-45900000D02*
X124850000Y-45900000D01*
X110699992Y-44200000D02*
X110600000Y-44299992D01*
X109699992Y-45200000D02*
X109250000Y-45200000D01*
X110600000Y-44299992D02*
X109699992Y-45200000D01*
X112700000Y-44200000D02*
X110699992Y-44200000D01*
G04 #@! TA.AperFunction,Conductor*
G36*
X135854723Y-40045502D02*
G01*
X135901216Y-40099158D01*
X135911320Y-40169432D01*
X135881826Y-40234012D01*
X135834821Y-40267908D01*
X135769668Y-40294895D01*
X135769664Y-40294897D01*
X135620869Y-40394319D01*
X135620862Y-40394324D01*
X135494324Y-40520862D01*
X135494319Y-40520869D01*
X135394899Y-40669662D01*
X135326414Y-40834996D01*
X135291500Y-41010518D01*
X135291500Y-41189481D01*
X135326414Y-41365003D01*
X135337001Y-41390561D01*
X135394898Y-41530336D01*
X135494322Y-41679135D01*
X135620865Y-41805678D01*
X135769664Y-41905102D01*
X135913719Y-41964772D01*
X135968999Y-42009319D01*
X135991420Y-42076683D01*
X135991500Y-42081180D01*
X135991500Y-42139482D01*
X136026414Y-42315004D01*
X136046473Y-42363430D01*
X136094898Y-42480337D01*
X136194322Y-42629136D01*
X136194324Y-42629138D01*
X136265750Y-42700564D01*
X136299776Y-42762876D01*
X136294711Y-42833691D01*
X136252164Y-42890527D01*
X136201237Y-42913237D01*
X136135000Y-42926413D01*
X136134999Y-42926413D01*
X136134996Y-42926414D01*
X135969662Y-42994899D01*
X135820869Y-43094319D01*
X135820862Y-43094324D01*
X135694324Y-43220862D01*
X135694319Y-43220869D01*
X135595519Y-43368735D01*
X135594898Y-43369664D01*
X135584446Y-43394898D01*
X135526414Y-43534996D01*
X135491500Y-43710518D01*
X135491500Y-43889481D01*
X135500897Y-43936721D01*
X135526246Y-44064161D01*
X135526414Y-44065003D01*
X135532093Y-44078713D01*
X135594898Y-44230336D01*
X135694322Y-44379135D01*
X135694324Y-44379137D01*
X135729595Y-44414408D01*
X135763621Y-44476720D01*
X135766500Y-44503503D01*
X135766500Y-47862396D01*
X135776185Y-47911086D01*
X135790845Y-47984785D01*
X135838600Y-48100075D01*
X135907929Y-48203833D01*
X135907931Y-48203835D01*
X139054595Y-51350499D01*
X139088621Y-51412811D01*
X139091500Y-51439594D01*
X139091500Y-51489481D01*
X139108838Y-51576645D01*
X139126413Y-51665000D01*
X139194898Y-51830336D01*
X139294322Y-51979135D01*
X139420865Y-52105678D01*
X139569664Y-52205102D01*
X139735000Y-52273587D01*
X139910521Y-52308500D01*
X139910522Y-52308500D01*
X140089478Y-52308500D01*
X140089479Y-52308500D01*
X140265000Y-52273587D01*
X140430336Y-52205102D01*
X140579135Y-52105678D01*
X140579134Y-52105678D01*
X140584282Y-52102239D01*
X140584974Y-52103275D01*
X140644271Y-52078079D01*
X140714252Y-52090047D01*
X140763647Y-52133227D01*
X140794322Y-52179135D01*
X140920865Y-52305678D01*
X141069664Y-52405102D01*
X141235000Y-52473587D01*
X141410521Y-52508500D01*
X141410522Y-52508500D01*
X141589478Y-52508500D01*
X141589479Y-52508500D01*
X141765000Y-52473587D01*
X141930336Y-52405102D01*
X142079135Y-52305678D01*
X142205678Y-52179135D01*
X142305102Y-52030336D01*
X142373587Y-51865000D01*
X142408500Y-51689479D01*
X142408500Y-51510521D01*
X142373587Y-51335000D01*
X142305102Y-51169664D01*
X142205678Y-51020865D01*
X142079135Y-50894322D01*
X141930336Y-50794898D01*
X141813429Y-50746473D01*
X141765003Y-50726414D01*
X141765001Y-50726413D01*
X141765000Y-50726413D01*
X141676645Y-50708838D01*
X141589481Y-50691500D01*
X141589479Y-50691500D01*
X141539594Y-50691500D01*
X141471473Y-50671498D01*
X141450499Y-50654595D01*
X138896482Y-48100578D01*
X138896462Y-48100556D01*
X138794501Y-47998595D01*
X138760475Y-47936283D01*
X138765540Y-47865468D01*
X138808087Y-47808632D01*
X138874607Y-47783821D01*
X138883596Y-47783500D01*
X169452393Y-47783500D01*
X169452394Y-47783500D01*
X169574785Y-47759155D01*
X169690075Y-47711400D01*
X169793833Y-47642071D01*
X171483487Y-45952416D01*
X171545797Y-45918393D01*
X171611514Y-45921679D01*
X171621884Y-45925049D01*
X171833084Y-45958500D01*
X171833087Y-45958500D01*
X172046913Y-45958500D01*
X172046916Y-45958500D01*
X172258116Y-45925049D01*
X172461483Y-45858972D01*
X172652009Y-45761894D01*
X172825004Y-45636206D01*
X172826214Y-45634996D01*
X172874950Y-45586261D01*
X172976201Y-45485009D01*
X172976206Y-45485004D01*
X173101894Y-45312009D01*
X173101902Y-45311992D01*
X173102854Y-45310441D01*
X173103377Y-45309967D01*
X173104804Y-45308004D01*
X173105216Y-45308303D01*
X173155497Y-45262804D01*
X173225537Y-45251189D01*
X173290738Y-45279285D01*
X173315485Y-45307842D01*
X173315624Y-45307742D01*
X173316794Y-45309353D01*
X173317726Y-45310428D01*
X173318536Y-45311750D01*
X173356620Y-45364167D01*
X173356621Y-45364168D01*
X173995841Y-44724947D01*
X174014075Y-44792993D01*
X174079901Y-44907007D01*
X174172993Y-45000099D01*
X174287007Y-45065925D01*
X174355051Y-45084157D01*
X173715831Y-45723378D01*
X173768249Y-45761463D01*
X173768251Y-45761464D01*
X173958707Y-45858506D01*
X173958713Y-45858509D01*
X174161996Y-45924559D01*
X174373126Y-45958000D01*
X174586874Y-45958000D01*
X174798003Y-45924559D01*
X175001286Y-45858509D01*
X175001292Y-45858506D01*
X175191750Y-45761463D01*
X175244167Y-45723378D01*
X175244167Y-45723376D01*
X174604948Y-45084157D01*
X174672993Y-45065925D01*
X174787007Y-45000099D01*
X174880099Y-44907007D01*
X174945925Y-44792993D01*
X174964157Y-44724948D01*
X175603376Y-45364167D01*
X175603378Y-45364167D01*
X175641463Y-45311750D01*
X175738506Y-45121292D01*
X175738509Y-45121286D01*
X175804559Y-44918003D01*
X175838000Y-44706873D01*
X175838000Y-44493126D01*
X175804559Y-44281996D01*
X175738509Y-44078713D01*
X175738506Y-44078707D01*
X175641464Y-43888251D01*
X175641463Y-43888249D01*
X175603378Y-43835831D01*
X174964157Y-44475051D01*
X174945925Y-44407007D01*
X174880099Y-44292993D01*
X174787007Y-44199901D01*
X174672993Y-44134075D01*
X174604947Y-44115841D01*
X175244168Y-43476621D01*
X175244167Y-43476620D01*
X175191750Y-43438536D01*
X175191748Y-43438535D01*
X175001292Y-43341493D01*
X175001286Y-43341490D01*
X174798003Y-43275440D01*
X174586874Y-43242000D01*
X174373126Y-43242000D01*
X174161996Y-43275440D01*
X173958713Y-43341490D01*
X173958707Y-43341493D01*
X173768253Y-43438534D01*
X173715831Y-43476621D01*
X173715831Y-43476622D01*
X174355051Y-44115842D01*
X174287007Y-44134075D01*
X174172993Y-44199901D01*
X174079901Y-44292993D01*
X174014075Y-44407007D01*
X173995842Y-44475051D01*
X173356622Y-43835831D01*
X173356621Y-43835831D01*
X173318528Y-43888261D01*
X173317724Y-43889574D01*
X173317288Y-43889967D01*
X173315624Y-43892259D01*
X173315142Y-43891909D01*
X173265075Y-43937203D01*
X173195033Y-43948807D01*
X173129836Y-43920702D01*
X173104901Y-43891924D01*
X173104804Y-43891996D01*
X173103975Y-43890855D01*
X173102859Y-43889567D01*
X173101899Y-43888001D01*
X173101894Y-43887991D01*
X172976206Y-43714996D01*
X172976203Y-43714993D01*
X172976201Y-43714990D01*
X172825009Y-43563798D01*
X172825006Y-43563796D01*
X172825004Y-43563794D01*
X172652601Y-43438536D01*
X172652012Y-43438108D01*
X172652011Y-43438107D01*
X172652009Y-43438106D01*
X172461483Y-43341028D01*
X172461480Y-43341027D01*
X172461478Y-43341026D01*
X172258120Y-43274952D01*
X172258123Y-43274952D01*
X172218801Y-43268724D01*
X172046916Y-43241500D01*
X171833084Y-43241500D01*
X171647777Y-43270850D01*
X171621878Y-43274952D01*
X171418521Y-43341026D01*
X171418515Y-43341029D01*
X171227987Y-43438108D01*
X171054993Y-43563796D01*
X171054990Y-43563798D01*
X170903798Y-43714990D01*
X170903796Y-43714993D01*
X170778108Y-43887987D01*
X170777434Y-43889088D01*
X170777068Y-43889418D01*
X170775196Y-43891996D01*
X170774654Y-43891602D01*
X170724787Y-43936721D01*
X170654745Y-43948328D01*
X170589547Y-43920226D01*
X170564976Y-43891870D01*
X170564804Y-43891996D01*
X170563341Y-43889982D01*
X170562566Y-43889088D01*
X170561896Y-43887996D01*
X170561894Y-43887991D01*
X170436206Y-43714996D01*
X170436203Y-43714993D01*
X170436201Y-43714990D01*
X170285009Y-43563798D01*
X170285006Y-43563796D01*
X170285004Y-43563794D01*
X170112601Y-43438536D01*
X170112012Y-43438108D01*
X170112011Y-43438107D01*
X170112009Y-43438106D01*
X169921483Y-43341028D01*
X169921480Y-43341027D01*
X169921478Y-43341026D01*
X169718120Y-43274952D01*
X169718123Y-43274952D01*
X169678801Y-43268724D01*
X169506916Y-43241500D01*
X169293084Y-43241500D01*
X169107777Y-43270850D01*
X169081878Y-43274952D01*
X168878521Y-43341026D01*
X168878515Y-43341029D01*
X168687987Y-43438108D01*
X168514993Y-43563796D01*
X168514990Y-43563798D01*
X168363798Y-43714990D01*
X168363796Y-43714993D01*
X168238108Y-43887987D01*
X168237434Y-43889088D01*
X168237068Y-43889418D01*
X168235196Y-43891996D01*
X168234654Y-43891602D01*
X168184787Y-43936721D01*
X168114745Y-43948328D01*
X168049547Y-43920226D01*
X168024976Y-43891870D01*
X168024804Y-43891996D01*
X168023341Y-43889982D01*
X168022566Y-43889088D01*
X168021896Y-43887996D01*
X168021894Y-43887991D01*
X167896206Y-43714996D01*
X167896203Y-43714993D01*
X167896201Y-43714990D01*
X167745009Y-43563798D01*
X167745006Y-43563796D01*
X167745004Y-43563794D01*
X167572601Y-43438536D01*
X167572012Y-43438108D01*
X167572011Y-43438107D01*
X167572009Y-43438106D01*
X167381483Y-43341028D01*
X167381480Y-43341027D01*
X167381478Y-43341026D01*
X167178120Y-43274952D01*
X167178123Y-43274952D01*
X167138801Y-43268724D01*
X166966916Y-43241500D01*
X166753084Y-43241500D01*
X166567777Y-43270850D01*
X166541878Y-43274952D01*
X166338521Y-43341026D01*
X166338515Y-43341029D01*
X166147987Y-43438108D01*
X165974993Y-43563796D01*
X165974990Y-43563798D01*
X165823798Y-43714990D01*
X165823796Y-43714993D01*
X165698108Y-43887987D01*
X165697434Y-43889088D01*
X165697068Y-43889418D01*
X165695196Y-43891996D01*
X165694654Y-43891602D01*
X165644787Y-43936721D01*
X165574745Y-43948328D01*
X165509547Y-43920226D01*
X165484976Y-43891870D01*
X165484804Y-43891996D01*
X165483341Y-43889982D01*
X165482566Y-43889088D01*
X165481896Y-43887996D01*
X165481894Y-43887991D01*
X165356206Y-43714996D01*
X165356203Y-43714993D01*
X165356201Y-43714990D01*
X165205009Y-43563798D01*
X165205006Y-43563796D01*
X165205004Y-43563794D01*
X165032601Y-43438536D01*
X165032012Y-43438108D01*
X165032011Y-43438107D01*
X165032009Y-43438106D01*
X164841483Y-43341028D01*
X164841480Y-43341027D01*
X164841478Y-43341026D01*
X164638120Y-43274952D01*
X164638123Y-43274952D01*
X164598801Y-43268724D01*
X164426916Y-43241500D01*
X164213084Y-43241500D01*
X164027777Y-43270850D01*
X164001878Y-43274952D01*
X163798521Y-43341026D01*
X163798515Y-43341029D01*
X163607987Y-43438108D01*
X163434993Y-43563796D01*
X163434990Y-43563798D01*
X163283798Y-43714990D01*
X163283796Y-43714993D01*
X163158108Y-43887987D01*
X163157434Y-43889088D01*
X163157068Y-43889418D01*
X163155196Y-43891996D01*
X163154654Y-43891602D01*
X163104787Y-43936721D01*
X163034745Y-43948328D01*
X162969547Y-43920226D01*
X162944976Y-43891870D01*
X162944804Y-43891996D01*
X162943341Y-43889982D01*
X162942566Y-43889088D01*
X162941896Y-43887996D01*
X162941894Y-43887991D01*
X162816206Y-43714996D01*
X162816203Y-43714993D01*
X162816201Y-43714990D01*
X162665009Y-43563798D01*
X162665006Y-43563796D01*
X162665004Y-43563794D01*
X162492601Y-43438536D01*
X162492012Y-43438108D01*
X162492011Y-43438107D01*
X162492009Y-43438106D01*
X162301483Y-43341028D01*
X162301480Y-43341027D01*
X162301478Y-43341026D01*
X162098120Y-43274952D01*
X162098123Y-43274952D01*
X162058801Y-43268724D01*
X161886916Y-43241500D01*
X161673084Y-43241500D01*
X161487777Y-43270850D01*
X161461878Y-43274952D01*
X161258521Y-43341026D01*
X161258515Y-43341029D01*
X161067987Y-43438108D01*
X160894993Y-43563796D01*
X160894990Y-43563798D01*
X160743798Y-43714990D01*
X160743796Y-43714993D01*
X160618108Y-43887987D01*
X160617434Y-43889088D01*
X160617068Y-43889418D01*
X160615196Y-43891996D01*
X160614654Y-43891602D01*
X160564787Y-43936721D01*
X160494745Y-43948328D01*
X160429547Y-43920226D01*
X160404976Y-43891870D01*
X160404804Y-43891996D01*
X160403341Y-43889982D01*
X160402566Y-43889088D01*
X160401896Y-43887996D01*
X160401894Y-43887991D01*
X160276206Y-43714996D01*
X160276203Y-43714993D01*
X160276201Y-43714990D01*
X160125009Y-43563798D01*
X160125006Y-43563796D01*
X160125004Y-43563794D01*
X159952601Y-43438536D01*
X159952012Y-43438108D01*
X159952011Y-43438107D01*
X159952009Y-43438106D01*
X159761483Y-43341028D01*
X159761480Y-43341027D01*
X159761478Y-43341026D01*
X159558120Y-43274952D01*
X159558123Y-43274952D01*
X159518801Y-43268724D01*
X159346916Y-43241500D01*
X159133084Y-43241500D01*
X158921884Y-43274951D01*
X158921882Y-43274951D01*
X158921879Y-43274952D01*
X158911510Y-43278321D01*
X158840543Y-43280345D01*
X158783485Y-43247581D01*
X156143835Y-40607931D01*
X156143833Y-40607929D01*
X156040075Y-40538600D01*
X155924785Y-40490845D01*
X155851086Y-40476185D01*
X155802396Y-40466500D01*
X155802394Y-40466500D01*
X136903503Y-40466500D01*
X136835382Y-40446498D01*
X136814408Y-40429595D01*
X136779137Y-40394324D01*
X136779135Y-40394322D01*
X136630336Y-40294898D01*
X136630337Y-40294898D01*
X136630335Y-40294897D01*
X136630331Y-40294895D01*
X136565179Y-40267908D01*
X136509898Y-40223360D01*
X136487478Y-40155996D01*
X136505037Y-40087205D01*
X136556999Y-40038827D01*
X136613398Y-40025500D01*
X176548500Y-40025500D01*
X176616621Y-40045502D01*
X176663114Y-40099158D01*
X176674500Y-40151500D01*
X176674500Y-126548500D01*
X176654498Y-126616621D01*
X176600842Y-126663114D01*
X176548500Y-126674500D01*
X99651500Y-126674500D01*
X99583379Y-126654498D01*
X99536886Y-126600842D01*
X99525500Y-126548500D01*
X99525500Y-116613389D01*
X103329500Y-116613389D01*
X103329500Y-116786611D01*
X103356598Y-116957701D01*
X103410127Y-117122445D01*
X103410128Y-117122448D01*
X103410130Y-117122452D01*
X103488768Y-117276788D01*
X103590587Y-117416930D01*
X103713069Y-117539412D01*
X103713072Y-117539414D01*
X103853212Y-117641232D01*
X104007555Y-117719873D01*
X104172299Y-117773402D01*
X104343389Y-117800500D01*
X104343392Y-117800500D01*
X104516608Y-117800500D01*
X104516611Y-117800500D01*
X104687701Y-117773402D01*
X104852445Y-117719873D01*
X105006788Y-117641232D01*
X105146928Y-117539414D01*
X105269414Y-117416928D01*
X105371232Y-117276788D01*
X105449873Y-117122445D01*
X105503402Y-116957701D01*
X105530500Y-116786611D01*
X105530500Y-116613389D01*
X105520855Y-116552491D01*
X107259500Y-116552491D01*
X107259500Y-116847508D01*
X107298005Y-117139985D01*
X107298006Y-117139991D01*
X107298007Y-117139993D01*
X107374361Y-117424952D01*
X107487257Y-117697507D01*
X107487258Y-117697508D01*
X107487263Y-117697519D01*
X107634759Y-117952990D01*
X107634764Y-117952997D01*
X107814346Y-118187033D01*
X107814365Y-118187054D01*
X108022945Y-118395634D01*
X108022966Y-118395653D01*
X108257002Y-118575235D01*
X108257009Y-118575240D01*
X108512480Y-118722736D01*
X108512484Y-118722737D01*
X108512493Y-118722743D01*
X108785048Y-118835639D01*
X109070007Y-118911993D01*
X109070013Y-118911993D01*
X109070014Y-118911994D01*
X109103574Y-118916412D01*
X109362494Y-118950500D01*
X109362501Y-118950500D01*
X109657499Y-118950500D01*
X109657506Y-118950500D01*
X109949993Y-118911993D01*
X110234952Y-118835639D01*
X110507507Y-118722743D01*
X110762994Y-118575238D01*
X110997042Y-118395646D01*
X111205646Y-118187042D01*
X111385238Y-117952994D01*
X111532743Y-117697507D01*
X111645639Y-117424952D01*
X111721993Y-117139993D01*
X111760500Y-116847506D01*
X111760500Y-116613389D01*
X113489500Y-116613389D01*
X113489500Y-116786611D01*
X113516598Y-116957701D01*
X113570127Y-117122445D01*
X113570128Y-117122448D01*
X113570130Y-117122452D01*
X113648768Y-117276788D01*
X113750587Y-117416930D01*
X113873069Y-117539412D01*
X113873072Y-117539414D01*
X114013212Y-117641232D01*
X114167555Y-117719873D01*
X114332299Y-117773402D01*
X114503389Y-117800500D01*
X114503392Y-117800500D01*
X114676608Y-117800500D01*
X114676611Y-117800500D01*
X114847701Y-117773402D01*
X115012445Y-117719873D01*
X115166788Y-117641232D01*
X115306928Y-117539414D01*
X115429414Y-117416928D01*
X115531232Y-117276788D01*
X115609873Y-117122445D01*
X115663402Y-116957701D01*
X115690500Y-116786611D01*
X115690500Y-116613389D01*
X122379500Y-116613389D01*
X122379500Y-116786611D01*
X122406598Y-116957701D01*
X122460127Y-117122445D01*
X122460128Y-117122448D01*
X122460130Y-117122452D01*
X122538768Y-117276788D01*
X122640587Y-117416930D01*
X122763069Y-117539412D01*
X122763072Y-117539414D01*
X122903212Y-117641232D01*
X123057555Y-117719873D01*
X123222299Y-117773402D01*
X123393389Y-117800500D01*
X123393392Y-117800500D01*
X123566608Y-117800500D01*
X123566611Y-117800500D01*
X123737701Y-117773402D01*
X123902445Y-117719873D01*
X124056788Y-117641232D01*
X124196928Y-117539414D01*
X124319414Y-117416928D01*
X124421232Y-117276788D01*
X124499873Y-117122445D01*
X124553402Y-116957701D01*
X124580500Y-116786611D01*
X124580500Y-116613389D01*
X124570855Y-116552491D01*
X126309500Y-116552491D01*
X126309500Y-116847508D01*
X126348005Y-117139985D01*
X126348006Y-117139991D01*
X126348007Y-117139993D01*
X126424361Y-117424952D01*
X126537257Y-117697507D01*
X126537258Y-117697508D01*
X126537263Y-117697519D01*
X126684759Y-117952990D01*
X126684764Y-117952997D01*
X126864346Y-118187033D01*
X126864365Y-118187054D01*
X127072945Y-118395634D01*
X127072966Y-118395653D01*
X127307002Y-118575235D01*
X127307009Y-118575240D01*
X127562480Y-118722736D01*
X127562484Y-118722737D01*
X127562493Y-118722743D01*
X127835048Y-118835639D01*
X128120007Y-118911993D01*
X128120013Y-118911993D01*
X128120014Y-118911994D01*
X128153574Y-118916412D01*
X128412494Y-118950500D01*
X128412501Y-118950500D01*
X128707499Y-118950500D01*
X128707506Y-118950500D01*
X128999993Y-118911993D01*
X129284952Y-118835639D01*
X129557507Y-118722743D01*
X129812994Y-118575238D01*
X130047042Y-118395646D01*
X130255646Y-118187042D01*
X130435238Y-117952994D01*
X130582743Y-117697507D01*
X130695639Y-117424952D01*
X130771993Y-117139993D01*
X130810500Y-116847506D01*
X130810500Y-116613389D01*
X132539500Y-116613389D01*
X132539500Y-116786611D01*
X132566598Y-116957701D01*
X132620127Y-117122445D01*
X132620128Y-117122448D01*
X132620130Y-117122452D01*
X132698768Y-117276788D01*
X132800587Y-117416930D01*
X132923069Y-117539412D01*
X132923072Y-117539414D01*
X133063212Y-117641232D01*
X133217555Y-117719873D01*
X133382299Y-117773402D01*
X133553389Y-117800500D01*
X133553392Y-117800500D01*
X133726608Y-117800500D01*
X133726611Y-117800500D01*
X133897701Y-117773402D01*
X134062445Y-117719873D01*
X134216788Y-117641232D01*
X134356928Y-117539414D01*
X134479414Y-117416928D01*
X134581232Y-117276788D01*
X134659873Y-117122445D01*
X134713402Y-116957701D01*
X134740500Y-116786611D01*
X134740500Y-116613389D01*
X141429500Y-116613389D01*
X141429500Y-116786611D01*
X141456598Y-116957701D01*
X141510127Y-117122445D01*
X141510128Y-117122448D01*
X141510130Y-117122452D01*
X141588768Y-117276788D01*
X141690587Y-117416930D01*
X141813069Y-117539412D01*
X141813072Y-117539414D01*
X141953212Y-117641232D01*
X142107555Y-117719873D01*
X142272299Y-117773402D01*
X142443389Y-117800500D01*
X142443392Y-117800500D01*
X142616608Y-117800500D01*
X142616611Y-117800500D01*
X142787701Y-117773402D01*
X142952445Y-117719873D01*
X143106788Y-117641232D01*
X143246928Y-117539414D01*
X143369414Y-117416928D01*
X143471232Y-117276788D01*
X143549873Y-117122445D01*
X143603402Y-116957701D01*
X143630500Y-116786611D01*
X143630500Y-116613389D01*
X143620855Y-116552491D01*
X145359500Y-116552491D01*
X145359500Y-116847508D01*
X145398005Y-117139985D01*
X145398006Y-117139991D01*
X145398007Y-117139993D01*
X145474361Y-117424952D01*
X145587257Y-117697507D01*
X145587258Y-117697508D01*
X145587263Y-117697519D01*
X145734759Y-117952990D01*
X145734764Y-117952997D01*
X145914346Y-118187033D01*
X145914365Y-118187054D01*
X146122945Y-118395634D01*
X146122966Y-118395653D01*
X146357002Y-118575235D01*
X146357009Y-118575240D01*
X146612480Y-118722736D01*
X146612484Y-118722737D01*
X146612493Y-118722743D01*
X146885048Y-118835639D01*
X147170007Y-118911993D01*
X147170013Y-118911993D01*
X147170014Y-118911994D01*
X147203574Y-118916412D01*
X147462494Y-118950500D01*
X147462501Y-118950500D01*
X147757499Y-118950500D01*
X147757506Y-118950500D01*
X148049993Y-118911993D01*
X148334952Y-118835639D01*
X148607507Y-118722743D01*
X148862994Y-118575238D01*
X149097042Y-118395646D01*
X149305646Y-118187042D01*
X149485238Y-117952994D01*
X149632743Y-117697507D01*
X149745639Y-117424952D01*
X149821993Y-117139993D01*
X149860500Y-116847506D01*
X149860500Y-116613389D01*
X151589500Y-116613389D01*
X151589500Y-116786611D01*
X151616598Y-116957701D01*
X151670127Y-117122445D01*
X151670128Y-117122448D01*
X151670130Y-117122452D01*
X151748768Y-117276788D01*
X151850587Y-117416930D01*
X151973069Y-117539412D01*
X151973072Y-117539414D01*
X152113212Y-117641232D01*
X152267555Y-117719873D01*
X152432299Y-117773402D01*
X152603389Y-117800500D01*
X152603392Y-117800500D01*
X152776608Y-117800500D01*
X152776611Y-117800500D01*
X152947701Y-117773402D01*
X153112445Y-117719873D01*
X153266788Y-117641232D01*
X153406928Y-117539414D01*
X153529414Y-117416928D01*
X153631232Y-117276788D01*
X153709873Y-117122445D01*
X153763402Y-116957701D01*
X153790500Y-116786611D01*
X153790500Y-116613389D01*
X160479500Y-116613389D01*
X160479500Y-116786611D01*
X160506598Y-116957701D01*
X160560127Y-117122445D01*
X160560128Y-117122448D01*
X160560130Y-117122452D01*
X160638768Y-117276788D01*
X160740587Y-117416930D01*
X160863069Y-117539412D01*
X160863072Y-117539414D01*
X161003212Y-117641232D01*
X161157555Y-117719873D01*
X161322299Y-117773402D01*
X161493389Y-117800500D01*
X161493392Y-117800500D01*
X161666608Y-117800500D01*
X161666611Y-117800500D01*
X161837701Y-117773402D01*
X162002445Y-117719873D01*
X162156788Y-117641232D01*
X162296928Y-117539414D01*
X162419414Y-117416928D01*
X162521232Y-117276788D01*
X162599873Y-117122445D01*
X162653402Y-116957701D01*
X162680500Y-116786611D01*
X162680500Y-116613389D01*
X162670855Y-116552491D01*
X164409500Y-116552491D01*
X164409500Y-116847508D01*
X164448005Y-117139985D01*
X164448006Y-117139991D01*
X164448007Y-117139993D01*
X164524361Y-117424952D01*
X164637257Y-117697507D01*
X164637258Y-117697508D01*
X164637263Y-117697519D01*
X164784759Y-117952990D01*
X164784764Y-117952997D01*
X164964346Y-118187033D01*
X164964365Y-118187054D01*
X165172945Y-118395634D01*
X165172966Y-118395653D01*
X165407002Y-118575235D01*
X165407009Y-118575240D01*
X165662480Y-118722736D01*
X165662484Y-118722737D01*
X165662493Y-118722743D01*
X165935048Y-118835639D01*
X166220007Y-118911993D01*
X166220013Y-118911993D01*
X166220014Y-118911994D01*
X166253574Y-118916412D01*
X166512494Y-118950500D01*
X166512501Y-118950500D01*
X166807499Y-118950500D01*
X166807506Y-118950500D01*
X167099993Y-118911993D01*
X167384952Y-118835639D01*
X167657507Y-118722743D01*
X167912994Y-118575238D01*
X168147042Y-118395646D01*
X168355646Y-118187042D01*
X168535238Y-117952994D01*
X168682743Y-117697507D01*
X168795639Y-117424952D01*
X168871993Y-117139993D01*
X168910500Y-116847506D01*
X168910500Y-116613389D01*
X170639500Y-116613389D01*
X170639500Y-116786611D01*
X170666598Y-116957701D01*
X170720127Y-117122445D01*
X170720128Y-117122448D01*
X170720130Y-117122452D01*
X170798768Y-117276788D01*
X170900587Y-117416930D01*
X171023069Y-117539412D01*
X171023072Y-117539414D01*
X171163212Y-117641232D01*
X171317555Y-117719873D01*
X171482299Y-117773402D01*
X171653389Y-117800500D01*
X171653392Y-117800500D01*
X171826608Y-117800500D01*
X171826611Y-117800500D01*
X171997701Y-117773402D01*
X172162445Y-117719873D01*
X172316788Y-117641232D01*
X172456928Y-117539414D01*
X172579414Y-117416928D01*
X172681232Y-117276788D01*
X172759873Y-117122445D01*
X172813402Y-116957701D01*
X172840500Y-116786611D01*
X172840500Y-116613389D01*
X172813402Y-116442299D01*
X172759873Y-116277555D01*
X172750935Y-116260014D01*
X172681231Y-116123211D01*
X172579412Y-115983069D01*
X172456930Y-115860587D01*
X172316788Y-115758768D01*
X172162452Y-115680130D01*
X172162448Y-115680128D01*
X172162445Y-115680127D01*
X171997701Y-115626598D01*
X171826611Y-115599500D01*
X171653389Y-115599500D01*
X171482299Y-115626598D01*
X171482296Y-115626598D01*
X171482295Y-115626599D01*
X171403253Y-115652281D01*
X171317555Y-115680127D01*
X171317553Y-115680127D01*
X171317547Y-115680130D01*
X171163211Y-115758768D01*
X171023069Y-115860587D01*
X170900587Y-115983069D01*
X170798768Y-116123211D01*
X170720130Y-116277547D01*
X170720127Y-116277553D01*
X170720127Y-116277555D01*
X170666598Y-116442299D01*
X170639500Y-116613389D01*
X168910500Y-116613389D01*
X168910500Y-116552494D01*
X168871993Y-116260007D01*
X168795639Y-115975048D01*
X168682743Y-115702493D01*
X168682737Y-115702484D01*
X168682736Y-115702480D01*
X168535240Y-115447009D01*
X168535235Y-115447002D01*
X168355653Y-115212966D01*
X168355634Y-115212945D01*
X168147054Y-115004365D01*
X168147033Y-115004346D01*
X167912997Y-114824764D01*
X167912990Y-114824759D01*
X167657519Y-114677263D01*
X167657511Y-114677259D01*
X167657507Y-114677257D01*
X167384952Y-114564361D01*
X167099993Y-114488007D01*
X167099991Y-114488006D01*
X167099985Y-114488005D01*
X166807508Y-114449500D01*
X166807506Y-114449500D01*
X166512494Y-114449500D01*
X166512491Y-114449500D01*
X166220014Y-114488005D01*
X165935048Y-114564361D01*
X165662491Y-114677258D01*
X165662480Y-114677263D01*
X165407009Y-114824759D01*
X165407002Y-114824764D01*
X165172966Y-115004346D01*
X165172945Y-115004365D01*
X164964365Y-115212945D01*
X164964346Y-115212966D01*
X164784764Y-115447002D01*
X164784759Y-115447009D01*
X164637263Y-115702480D01*
X164637258Y-115702491D01*
X164524361Y-115975048D01*
X164448005Y-116260014D01*
X164409500Y-116552491D01*
X162670855Y-116552491D01*
X162653402Y-116442299D01*
X162599873Y-116277555D01*
X162590935Y-116260014D01*
X162521231Y-116123211D01*
X162419412Y-115983069D01*
X162296930Y-115860587D01*
X162156788Y-115758768D01*
X162002452Y-115680130D01*
X162002448Y-115680128D01*
X162002445Y-115680127D01*
X161837701Y-115626598D01*
X161666611Y-115599500D01*
X161493389Y-115599500D01*
X161322299Y-115626598D01*
X161322296Y-115626598D01*
X161322295Y-115626599D01*
X161243253Y-115652281D01*
X161157555Y-115680127D01*
X161157553Y-115680127D01*
X161157547Y-115680130D01*
X161003211Y-115758768D01*
X160863069Y-115860587D01*
X160740587Y-115983069D01*
X160638768Y-116123211D01*
X160560130Y-116277547D01*
X160560127Y-116277553D01*
X160560127Y-116277555D01*
X160506598Y-116442299D01*
X160479500Y-116613389D01*
X153790500Y-116613389D01*
X153763402Y-116442299D01*
X153709873Y-116277555D01*
X153700935Y-116260014D01*
X153631231Y-116123211D01*
X153529412Y-115983069D01*
X153406930Y-115860587D01*
X153266788Y-115758768D01*
X153112452Y-115680130D01*
X153112448Y-115680128D01*
X153112445Y-115680127D01*
X152947701Y-115626598D01*
X152776611Y-115599500D01*
X152603389Y-115599500D01*
X152432299Y-115626598D01*
X152432296Y-115626598D01*
X152432295Y-115626599D01*
X152353253Y-115652281D01*
X152267555Y-115680127D01*
X152267553Y-115680127D01*
X152267547Y-115680130D01*
X152113211Y-115758768D01*
X151973069Y-115860587D01*
X151850587Y-115983069D01*
X151748768Y-116123211D01*
X151670130Y-116277547D01*
X151670127Y-116277553D01*
X151670127Y-116277555D01*
X151616598Y-116442299D01*
X151589500Y-116613389D01*
X149860500Y-116613389D01*
X149860500Y-116552494D01*
X149821993Y-116260007D01*
X149745639Y-115975048D01*
X149632743Y-115702493D01*
X149632737Y-115702484D01*
X149632736Y-115702480D01*
X149485240Y-115447009D01*
X149485235Y-115447002D01*
X149305653Y-115212966D01*
X149305634Y-115212945D01*
X149097054Y-115004365D01*
X149097033Y-115004346D01*
X148862997Y-114824764D01*
X148862990Y-114824759D01*
X148607519Y-114677263D01*
X148607511Y-114677259D01*
X148607507Y-114677257D01*
X148334952Y-114564361D01*
X148049993Y-114488007D01*
X148049991Y-114488006D01*
X148049985Y-114488005D01*
X147757508Y-114449500D01*
X147757506Y-114449500D01*
X147462494Y-114449500D01*
X147462491Y-114449500D01*
X147170014Y-114488005D01*
X146885048Y-114564361D01*
X146612491Y-114677258D01*
X146612480Y-114677263D01*
X146357009Y-114824759D01*
X146357002Y-114824764D01*
X146122966Y-115004346D01*
X146122945Y-115004365D01*
X145914365Y-115212945D01*
X145914346Y-115212966D01*
X145734764Y-115447002D01*
X145734759Y-115447009D01*
X145587263Y-115702480D01*
X145587258Y-115702491D01*
X145474361Y-115975048D01*
X145398005Y-116260014D01*
X145359500Y-116552491D01*
X143620855Y-116552491D01*
X143603402Y-116442299D01*
X143549873Y-116277555D01*
X143540935Y-116260014D01*
X143471231Y-116123211D01*
X143369412Y-115983069D01*
X143246930Y-115860587D01*
X143106788Y-115758768D01*
X142952452Y-115680130D01*
X142952448Y-115680128D01*
X142952445Y-115680127D01*
X142787701Y-115626598D01*
X142616611Y-115599500D01*
X142443389Y-115599500D01*
X142272299Y-115626598D01*
X142272296Y-115626598D01*
X142272295Y-115626599D01*
X142193253Y-115652281D01*
X142107555Y-115680127D01*
X142107553Y-115680127D01*
X142107547Y-115680130D01*
X141953211Y-115758768D01*
X141813069Y-115860587D01*
X141690587Y-115983069D01*
X141588768Y-116123211D01*
X141510130Y-116277547D01*
X141510127Y-116277553D01*
X141510127Y-116277555D01*
X141456598Y-116442299D01*
X141429500Y-116613389D01*
X134740500Y-116613389D01*
X134713402Y-116442299D01*
X134659873Y-116277555D01*
X134650935Y-116260014D01*
X134581231Y-116123211D01*
X134479412Y-115983069D01*
X134356930Y-115860587D01*
X134216788Y-115758768D01*
X134062452Y-115680130D01*
X134062448Y-115680128D01*
X134062445Y-115680127D01*
X133897701Y-115626598D01*
X133726611Y-115599500D01*
X133553389Y-115599500D01*
X133382299Y-115626598D01*
X133382296Y-115626598D01*
X133382295Y-115626599D01*
X133303253Y-115652281D01*
X133217555Y-115680127D01*
X133217553Y-115680127D01*
X133217547Y-115680130D01*
X133063211Y-115758768D01*
X132923069Y-115860587D01*
X132800587Y-115983069D01*
X132698768Y-116123211D01*
X132620130Y-116277547D01*
X132620127Y-116277553D01*
X132620127Y-116277555D01*
X132566598Y-116442299D01*
X132539500Y-116613389D01*
X130810500Y-116613389D01*
X130810500Y-116552494D01*
X130771993Y-116260007D01*
X130695639Y-115975048D01*
X130582743Y-115702493D01*
X130582737Y-115702484D01*
X130582736Y-115702480D01*
X130435240Y-115447009D01*
X130435235Y-115447002D01*
X130255653Y-115212966D01*
X130255634Y-115212945D01*
X130047054Y-115004365D01*
X130047033Y-115004346D01*
X129812997Y-114824764D01*
X129812990Y-114824759D01*
X129557519Y-114677263D01*
X129557511Y-114677259D01*
X129557507Y-114677257D01*
X129284952Y-114564361D01*
X128999993Y-114488007D01*
X128999991Y-114488006D01*
X128999985Y-114488005D01*
X128707508Y-114449500D01*
X128707506Y-114449500D01*
X128412494Y-114449500D01*
X128412491Y-114449500D01*
X128120014Y-114488005D01*
X127835048Y-114564361D01*
X127562491Y-114677258D01*
X127562480Y-114677263D01*
X127307009Y-114824759D01*
X127307002Y-114824764D01*
X127072966Y-115004346D01*
X127072945Y-115004365D01*
X126864365Y-115212945D01*
X126864346Y-115212966D01*
X126684764Y-115447002D01*
X126684759Y-115447009D01*
X126537263Y-115702480D01*
X126537258Y-115702491D01*
X126424361Y-115975048D01*
X126348005Y-116260014D01*
X126309500Y-116552491D01*
X124570855Y-116552491D01*
X124553402Y-116442299D01*
X124499873Y-116277555D01*
X124490935Y-116260014D01*
X124421231Y-116123211D01*
X124319412Y-115983069D01*
X124196930Y-115860587D01*
X124056788Y-115758768D01*
X123902452Y-115680130D01*
X123902448Y-115680128D01*
X123902445Y-115680127D01*
X123737701Y-115626598D01*
X123566611Y-115599500D01*
X123393389Y-115599500D01*
X123222299Y-115626598D01*
X123222296Y-115626598D01*
X123222295Y-115626599D01*
X123143253Y-115652281D01*
X123057555Y-115680127D01*
X123057553Y-115680127D01*
X123057547Y-115680130D01*
X122903211Y-115758768D01*
X122763069Y-115860587D01*
X122640587Y-115983069D01*
X122538768Y-116123211D01*
X122460130Y-116277547D01*
X122460127Y-116277553D01*
X122460127Y-116277555D01*
X122406598Y-116442299D01*
X122379500Y-116613389D01*
X115690500Y-116613389D01*
X115663402Y-116442299D01*
X115609873Y-116277555D01*
X115600935Y-116260014D01*
X115531231Y-116123211D01*
X115429412Y-115983069D01*
X115306930Y-115860587D01*
X115166788Y-115758768D01*
X115012452Y-115680130D01*
X115012448Y-115680128D01*
X115012445Y-115680127D01*
X114847701Y-115626598D01*
X114676611Y-115599500D01*
X114503389Y-115599500D01*
X114332299Y-115626598D01*
X114332296Y-115626598D01*
X114332295Y-115626599D01*
X114253253Y-115652281D01*
X114167555Y-115680127D01*
X114167553Y-115680127D01*
X114167547Y-115680130D01*
X114013211Y-115758768D01*
X113873069Y-115860587D01*
X113750587Y-115983069D01*
X113648768Y-116123211D01*
X113570130Y-116277547D01*
X113570127Y-116277553D01*
X113570127Y-116277555D01*
X113516598Y-116442299D01*
X113489500Y-116613389D01*
X111760500Y-116613389D01*
X111760500Y-116552494D01*
X111721993Y-116260007D01*
X111645639Y-115975048D01*
X111532743Y-115702493D01*
X111532737Y-115702484D01*
X111532736Y-115702480D01*
X111385240Y-115447009D01*
X111385235Y-115447002D01*
X111205653Y-115212966D01*
X111205634Y-115212945D01*
X110997054Y-115004365D01*
X110997033Y-115004346D01*
X110762997Y-114824764D01*
X110762990Y-114824759D01*
X110507519Y-114677263D01*
X110507511Y-114677259D01*
X110507507Y-114677257D01*
X110234952Y-114564361D01*
X109949993Y-114488007D01*
X109949991Y-114488006D01*
X109949985Y-114488005D01*
X109657508Y-114449500D01*
X109657506Y-114449500D01*
X109362494Y-114449500D01*
X109362491Y-114449500D01*
X109070014Y-114488005D01*
X108785048Y-114564361D01*
X108512491Y-114677258D01*
X108512480Y-114677263D01*
X108257009Y-114824759D01*
X108257002Y-114824764D01*
X108022966Y-115004346D01*
X108022945Y-115004365D01*
X107814365Y-115212945D01*
X107814346Y-115212966D01*
X107634764Y-115447002D01*
X107634759Y-115447009D01*
X107487263Y-115702480D01*
X107487258Y-115702491D01*
X107374361Y-115975048D01*
X107298005Y-116260014D01*
X107259500Y-116552491D01*
X105520855Y-116552491D01*
X105503402Y-116442299D01*
X105449873Y-116277555D01*
X105440935Y-116260014D01*
X105371231Y-116123211D01*
X105269412Y-115983069D01*
X105146930Y-115860587D01*
X105006788Y-115758768D01*
X104852452Y-115680130D01*
X104852448Y-115680128D01*
X104852445Y-115680127D01*
X104687701Y-115626598D01*
X104516611Y-115599500D01*
X104343389Y-115599500D01*
X104172299Y-115626598D01*
X104172296Y-115626598D01*
X104172295Y-115626599D01*
X104093253Y-115652281D01*
X104007555Y-115680127D01*
X104007553Y-115680127D01*
X104007547Y-115680130D01*
X103853211Y-115758768D01*
X103713069Y-115860587D01*
X103590587Y-115983069D01*
X103488768Y-116123211D01*
X103410130Y-116277547D01*
X103410127Y-116277553D01*
X103410127Y-116277555D01*
X103356598Y-116442299D01*
X103329500Y-116613389D01*
X99525500Y-116613389D01*
X99525500Y-114419807D01*
X104135975Y-114419807D01*
X104144350Y-114488007D01*
X104153725Y-114564361D01*
X104157242Y-114592998D01*
X104205332Y-114760711D01*
X104279070Y-114918843D01*
X104376639Y-115063496D01*
X104376645Y-115063503D01*
X104495633Y-115191105D01*
X104495637Y-115191108D01*
X104633132Y-115298530D01*
X104785736Y-115383120D01*
X104949696Y-115442797D01*
X105120971Y-115476089D01*
X105270984Y-115481328D01*
X105295344Y-115482179D01*
X105295344Y-115482178D01*
X105295348Y-115482179D01*
X105468529Y-115460914D01*
X105552390Y-115436867D01*
X105636245Y-115412823D01*
X105636246Y-115412822D01*
X105636251Y-115412821D01*
X106700693Y-114916464D01*
X106845345Y-114818895D01*
X106972953Y-114699900D01*
X107080375Y-114562405D01*
X107159419Y-114419807D01*
X123185975Y-114419807D01*
X123194350Y-114488007D01*
X123203725Y-114564361D01*
X123207242Y-114592998D01*
X123255332Y-114760711D01*
X123329070Y-114918843D01*
X123426639Y-115063496D01*
X123426645Y-115063503D01*
X123545633Y-115191105D01*
X123545637Y-115191108D01*
X123683132Y-115298530D01*
X123835736Y-115383120D01*
X123999696Y-115442797D01*
X124170971Y-115476089D01*
X124320984Y-115481328D01*
X124345344Y-115482179D01*
X124345344Y-115482178D01*
X124345348Y-115482179D01*
X124518529Y-115460914D01*
X124602390Y-115436867D01*
X124686245Y-115412823D01*
X124686246Y-115412822D01*
X124686251Y-115412821D01*
X125750693Y-114916464D01*
X125895345Y-114818895D01*
X126022953Y-114699900D01*
X126130375Y-114562405D01*
X126209419Y-114419807D01*
X142235975Y-114419807D01*
X142244350Y-114488007D01*
X142253725Y-114564361D01*
X142257242Y-114592998D01*
X142305332Y-114760711D01*
X142379070Y-114918843D01*
X142476639Y-115063496D01*
X142476645Y-115063503D01*
X142595633Y-115191105D01*
X142595637Y-115191108D01*
X142733132Y-115298530D01*
X142885736Y-115383120D01*
X143049696Y-115442797D01*
X143220971Y-115476089D01*
X143370984Y-115481328D01*
X143395344Y-115482179D01*
X143395344Y-115482178D01*
X143395348Y-115482179D01*
X143568529Y-115460914D01*
X143652390Y-115436867D01*
X143736245Y-115412823D01*
X143736246Y-115412822D01*
X143736251Y-115412821D01*
X144800693Y-114916464D01*
X144945345Y-114818895D01*
X145072953Y-114699900D01*
X145180375Y-114562405D01*
X145259419Y-114419807D01*
X161285975Y-114419807D01*
X161294350Y-114488007D01*
X161303725Y-114564361D01*
X161307242Y-114592998D01*
X161355332Y-114760711D01*
X161429070Y-114918843D01*
X161526639Y-115063496D01*
X161526645Y-115063503D01*
X161645633Y-115191105D01*
X161645637Y-115191108D01*
X161783132Y-115298530D01*
X161935736Y-115383120D01*
X162099696Y-115442797D01*
X162270971Y-115476089D01*
X162420984Y-115481328D01*
X162445344Y-115482179D01*
X162445344Y-115482178D01*
X162445348Y-115482179D01*
X162618529Y-115460914D01*
X162702390Y-115436867D01*
X162786245Y-115412823D01*
X162786246Y-115412822D01*
X162786251Y-115412821D01*
X163850693Y-114916464D01*
X163995345Y-114818895D01*
X164122953Y-114699900D01*
X164230375Y-114562405D01*
X164314965Y-114409801D01*
X164374642Y-114245841D01*
X164407934Y-114074566D01*
X164414024Y-113900189D01*
X164392759Y-113727008D01*
X164344666Y-113559286D01*
X164270931Y-113401159D01*
X164270928Y-113401155D01*
X164270927Y-113401152D01*
X164173358Y-113256500D01*
X164054362Y-113128892D01*
X164054360Y-113128890D01*
X164054359Y-113128889D01*
X163971865Y-113064438D01*
X163916868Y-113021470D01*
X163916866Y-113021469D01*
X163916865Y-113021468D01*
X163801453Y-112957494D01*
X163764264Y-112936880D01*
X163764263Y-112936879D01*
X163764262Y-112936879D01*
X163600305Y-112877203D01*
X163429031Y-112843911D01*
X163429032Y-112843911D01*
X163254655Y-112837820D01*
X163112972Y-112855217D01*
X163081471Y-112859086D01*
X163081470Y-112859086D01*
X163081464Y-112859087D01*
X162913754Y-112907176D01*
X161849309Y-113403534D01*
X161704658Y-113501102D01*
X161704651Y-113501108D01*
X161577049Y-113620096D01*
X161469622Y-113757599D01*
X161385034Y-113910200D01*
X161325358Y-114074157D01*
X161292066Y-114245430D01*
X161285975Y-114419807D01*
X145259419Y-114419807D01*
X145264965Y-114409801D01*
X145324642Y-114245841D01*
X145357934Y-114074566D01*
X145364024Y-113900189D01*
X145342759Y-113727008D01*
X145294666Y-113559286D01*
X145220931Y-113401159D01*
X145220928Y-113401155D01*
X145220927Y-113401152D01*
X145123358Y-113256500D01*
X145004362Y-113128892D01*
X145004360Y-113128890D01*
X145004359Y-113128889D01*
X144921865Y-113064438D01*
X144866868Y-113021470D01*
X144866866Y-113021469D01*
X144866865Y-113021468D01*
X144751453Y-112957494D01*
X144714264Y-112936880D01*
X144714263Y-112936879D01*
X144714262Y-112936879D01*
X144550305Y-112877203D01*
X144379031Y-112843911D01*
X144379032Y-112843911D01*
X144204655Y-112837820D01*
X144062972Y-112855217D01*
X144031471Y-112859086D01*
X144031470Y-112859086D01*
X144031464Y-112859087D01*
X143863754Y-112907176D01*
X142799309Y-113403534D01*
X142654658Y-113501102D01*
X142654651Y-113501108D01*
X142527049Y-113620096D01*
X142419622Y-113757599D01*
X142335034Y-113910200D01*
X142275358Y-114074157D01*
X142242066Y-114245430D01*
X142235975Y-114419807D01*
X126209419Y-114419807D01*
X126214965Y-114409801D01*
X126274642Y-114245841D01*
X126307934Y-114074566D01*
X126314024Y-113900189D01*
X126292759Y-113727008D01*
X126244666Y-113559286D01*
X126170931Y-113401159D01*
X126170928Y-113401155D01*
X126170927Y-113401152D01*
X126073358Y-113256500D01*
X125954362Y-113128892D01*
X125954360Y-113128890D01*
X125954359Y-113128889D01*
X125871865Y-113064438D01*
X125816868Y-113021470D01*
X125816866Y-113021469D01*
X125816865Y-113021468D01*
X125701453Y-112957494D01*
X125664264Y-112936880D01*
X125664263Y-112936879D01*
X125664262Y-112936879D01*
X125500305Y-112877203D01*
X125329031Y-112843911D01*
X125329032Y-112843911D01*
X125154655Y-112837820D01*
X125012972Y-112855217D01*
X124981471Y-112859086D01*
X124981470Y-112859086D01*
X124981464Y-112859087D01*
X124813754Y-112907176D01*
X123749309Y-113403534D01*
X123604658Y-113501102D01*
X123604651Y-113501108D01*
X123477049Y-113620096D01*
X123369622Y-113757599D01*
X123285034Y-113910200D01*
X123225358Y-114074157D01*
X123192066Y-114245430D01*
X123185975Y-114419807D01*
X107159419Y-114419807D01*
X107164965Y-114409801D01*
X107224642Y-114245841D01*
X107257934Y-114074566D01*
X107264024Y-113900189D01*
X107242759Y-113727008D01*
X107194666Y-113559286D01*
X107120931Y-113401159D01*
X107120928Y-113401155D01*
X107120927Y-113401152D01*
X107023358Y-113256500D01*
X106904362Y-113128892D01*
X106904360Y-113128890D01*
X106904359Y-113128889D01*
X106821865Y-113064438D01*
X106766868Y-113021470D01*
X106766866Y-113021469D01*
X106766865Y-113021468D01*
X106651453Y-112957494D01*
X106614264Y-112936880D01*
X106614263Y-112936879D01*
X106614262Y-112936879D01*
X106450305Y-112877203D01*
X106279031Y-112843911D01*
X106279032Y-112843911D01*
X106104655Y-112837820D01*
X105962972Y-112855217D01*
X105931471Y-112859086D01*
X105931470Y-112859086D01*
X105931464Y-112859087D01*
X105763754Y-112907176D01*
X104699309Y-113403534D01*
X104554658Y-113501102D01*
X104554651Y-113501108D01*
X104427049Y-113620096D01*
X104319622Y-113757599D01*
X104235034Y-113910200D01*
X104175358Y-114074157D01*
X104142066Y-114245430D01*
X104135975Y-114419807D01*
X99525500Y-114419807D01*
X99525500Y-111360192D01*
X110485975Y-111360192D01*
X110492066Y-111534569D01*
X110525278Y-111705430D01*
X110525358Y-111705841D01*
X110585035Y-111869801D01*
X110669625Y-112022405D01*
X110693527Y-112052998D01*
X110777049Y-112159903D01*
X110880130Y-112256025D01*
X110904655Y-112278895D01*
X111049307Y-112376464D01*
X111049308Y-112376464D01*
X111049309Y-112376465D01*
X111075659Y-112388752D01*
X112113749Y-112872821D01*
X112113750Y-112872821D01*
X112113754Y-112872823D01*
X112281464Y-112920912D01*
X112281471Y-112920914D01*
X112454652Y-112942179D01*
X112629029Y-112936089D01*
X112800304Y-112902797D01*
X112964264Y-112843120D01*
X113116868Y-112758530D01*
X113254362Y-112651108D01*
X113373358Y-112523500D01*
X113433699Y-112434041D01*
X113488374Y-112388752D01*
X113538157Y-112378500D01*
X130075739Y-112378500D01*
X130128988Y-112390304D01*
X131163749Y-112872821D01*
X131163750Y-112872821D01*
X131163754Y-112872823D01*
X131331464Y-112920912D01*
X131331471Y-112920914D01*
X131504652Y-112942179D01*
X131679029Y-112936089D01*
X131850304Y-112902797D01*
X132014264Y-112843120D01*
X132166868Y-112758530D01*
X132304362Y-112651108D01*
X132423358Y-112523500D01*
X132483699Y-112434041D01*
X132538374Y-112388752D01*
X132588157Y-112378500D01*
X149125739Y-112378500D01*
X149178988Y-112390304D01*
X150213749Y-112872821D01*
X150213750Y-112872821D01*
X150213754Y-112872823D01*
X150381464Y-112920912D01*
X150381471Y-112920914D01*
X150554652Y-112942179D01*
X150729029Y-112936089D01*
X150900304Y-112902797D01*
X151064264Y-112843120D01*
X151216868Y-112758530D01*
X151354362Y-112651108D01*
X151473358Y-112523500D01*
X151533699Y-112434041D01*
X151588374Y-112388752D01*
X151638157Y-112378500D01*
X168175739Y-112378500D01*
X168228988Y-112390304D01*
X169263749Y-112872821D01*
X169263750Y-112872821D01*
X169263754Y-112872823D01*
X169431464Y-112920912D01*
X169431471Y-112920914D01*
X169604652Y-112942179D01*
X169779029Y-112936089D01*
X169950304Y-112902797D01*
X170114264Y-112843120D01*
X170266868Y-112758530D01*
X170404362Y-112651108D01*
X170523358Y-112523500D01*
X170620927Y-112378848D01*
X170621090Y-112378500D01*
X170694667Y-112220711D01*
X170742757Y-112052998D01*
X170742759Y-112052992D01*
X170764024Y-111879811D01*
X170757934Y-111705434D01*
X170724642Y-111534159D01*
X170664965Y-111370199D01*
X170580375Y-111217595D01*
X170472953Y-111080100D01*
X170472950Y-111080096D01*
X170345348Y-110961108D01*
X170345345Y-110961105D01*
X170200693Y-110863536D01*
X170200692Y-110863535D01*
X170200690Y-110863534D01*
X169136245Y-110367176D01*
X168968535Y-110319087D01*
X168968530Y-110319086D01*
X168968529Y-110319086D01*
X168898315Y-110310464D01*
X168795343Y-110297820D01*
X168620967Y-110303911D01*
X168449694Y-110337203D01*
X168285737Y-110396879D01*
X168133136Y-110481467D01*
X167995633Y-110588894D01*
X167876645Y-110716496D01*
X167876639Y-110716502D01*
X167816302Y-110805958D01*
X167761627Y-110851248D01*
X167711843Y-110861500D01*
X151174261Y-110861500D01*
X151121011Y-110849695D01*
X150086245Y-110367176D01*
X149918535Y-110319087D01*
X149918530Y-110319086D01*
X149918529Y-110319086D01*
X149848315Y-110310464D01*
X149745343Y-110297820D01*
X149570967Y-110303911D01*
X149399694Y-110337203D01*
X149235737Y-110396879D01*
X149083136Y-110481467D01*
X148945633Y-110588894D01*
X148826645Y-110716496D01*
X148826639Y-110716502D01*
X148766302Y-110805958D01*
X148711627Y-110851248D01*
X148661843Y-110861500D01*
X132124261Y-110861500D01*
X132071011Y-110849695D01*
X131036245Y-110367176D01*
X130868535Y-110319087D01*
X130868530Y-110319086D01*
X130868529Y-110319086D01*
X130798315Y-110310464D01*
X130695343Y-110297820D01*
X130520967Y-110303911D01*
X130349694Y-110337203D01*
X130185737Y-110396879D01*
X130033136Y-110481467D01*
X129895633Y-110588894D01*
X129776645Y-110716496D01*
X129776639Y-110716502D01*
X129716302Y-110805958D01*
X129661627Y-110851248D01*
X129611843Y-110861500D01*
X113074261Y-110861500D01*
X113021011Y-110849695D01*
X111986245Y-110367176D01*
X111818535Y-110319087D01*
X111818530Y-110319086D01*
X111818529Y-110319086D01*
X111748315Y-110310464D01*
X111645343Y-110297820D01*
X111470967Y-110303911D01*
X111299694Y-110337203D01*
X111135737Y-110396879D01*
X110983136Y-110481467D01*
X110845633Y-110588894D01*
X110726645Y-110716496D01*
X110726639Y-110716503D01*
X110629070Y-110861156D01*
X110555332Y-111019288D01*
X110507242Y-111187001D01*
X110485975Y-111360192D01*
X99525500Y-111360192D01*
X99525500Y-97563389D01*
X103329500Y-97563389D01*
X103329500Y-97736611D01*
X103356598Y-97907701D01*
X103410127Y-98072445D01*
X103410128Y-98072448D01*
X103410130Y-98072452D01*
X103488768Y-98226788D01*
X103590587Y-98366930D01*
X103713069Y-98489412D01*
X103713072Y-98489414D01*
X103853212Y-98591232D01*
X104007555Y-98669873D01*
X104172299Y-98723402D01*
X104343389Y-98750500D01*
X104343392Y-98750500D01*
X104516608Y-98750500D01*
X104516611Y-98750500D01*
X104687701Y-98723402D01*
X104852445Y-98669873D01*
X105006788Y-98591232D01*
X105146928Y-98489414D01*
X105269414Y-98366928D01*
X105371232Y-98226788D01*
X105449873Y-98072445D01*
X105503402Y-97907701D01*
X105530500Y-97736611D01*
X105530500Y-97563389D01*
X105520855Y-97502491D01*
X107259500Y-97502491D01*
X107259500Y-97797508D01*
X107298005Y-98089985D01*
X107298006Y-98089991D01*
X107298007Y-98089993D01*
X107374361Y-98374952D01*
X107487257Y-98647507D01*
X107487258Y-98647508D01*
X107487263Y-98647519D01*
X107634759Y-98902990D01*
X107634764Y-98902997D01*
X107814346Y-99137033D01*
X107814365Y-99137054D01*
X108022945Y-99345634D01*
X108022966Y-99345653D01*
X108257002Y-99525235D01*
X108257009Y-99525240D01*
X108512480Y-99672736D01*
X108512484Y-99672737D01*
X108512493Y-99672743D01*
X108785048Y-99785639D01*
X109070007Y-99861993D01*
X109070013Y-99861993D01*
X109070014Y-99861994D01*
X109103574Y-99866412D01*
X109362494Y-99900500D01*
X109362501Y-99900500D01*
X109657499Y-99900500D01*
X109657506Y-99900500D01*
X109949993Y-99861993D01*
X110234952Y-99785639D01*
X110507507Y-99672743D01*
X110762994Y-99525238D01*
X110997042Y-99345646D01*
X111205646Y-99137042D01*
X111385238Y-98902994D01*
X111532743Y-98647507D01*
X111645639Y-98374952D01*
X111721993Y-98089993D01*
X111760500Y-97797506D01*
X111760500Y-97563389D01*
X113489500Y-97563389D01*
X113489500Y-97736611D01*
X113516598Y-97907701D01*
X113570127Y-98072445D01*
X113570128Y-98072448D01*
X113570130Y-98072452D01*
X113648768Y-98226788D01*
X113750587Y-98366930D01*
X113873069Y-98489412D01*
X113873072Y-98489414D01*
X114013212Y-98591232D01*
X114167555Y-98669873D01*
X114332299Y-98723402D01*
X114503389Y-98750500D01*
X114503392Y-98750500D01*
X114676608Y-98750500D01*
X114676611Y-98750500D01*
X114847701Y-98723402D01*
X115012445Y-98669873D01*
X115166788Y-98591232D01*
X115306928Y-98489414D01*
X115429414Y-98366928D01*
X115531232Y-98226788D01*
X115609873Y-98072445D01*
X115663402Y-97907701D01*
X115690500Y-97736611D01*
X115690500Y-97563389D01*
X122379500Y-97563389D01*
X122379500Y-97736611D01*
X122406598Y-97907701D01*
X122460127Y-98072445D01*
X122460128Y-98072448D01*
X122460130Y-98072452D01*
X122538768Y-98226788D01*
X122640587Y-98366930D01*
X122763069Y-98489412D01*
X122763072Y-98489414D01*
X122903212Y-98591232D01*
X123057555Y-98669873D01*
X123222299Y-98723402D01*
X123393389Y-98750500D01*
X123393392Y-98750500D01*
X123566608Y-98750500D01*
X123566611Y-98750500D01*
X123737701Y-98723402D01*
X123902445Y-98669873D01*
X124056788Y-98591232D01*
X124196928Y-98489414D01*
X124319414Y-98366928D01*
X124421232Y-98226788D01*
X124499873Y-98072445D01*
X124553402Y-97907701D01*
X124580500Y-97736611D01*
X124580500Y-97563389D01*
X124570855Y-97502491D01*
X126309500Y-97502491D01*
X126309500Y-97797508D01*
X126348005Y-98089985D01*
X126348006Y-98089991D01*
X126348007Y-98089993D01*
X126424361Y-98374952D01*
X126537257Y-98647507D01*
X126537258Y-98647508D01*
X126537263Y-98647519D01*
X126684759Y-98902990D01*
X126684764Y-98902997D01*
X126864346Y-99137033D01*
X126864365Y-99137054D01*
X127072945Y-99345634D01*
X127072966Y-99345653D01*
X127307002Y-99525235D01*
X127307009Y-99525240D01*
X127562480Y-99672736D01*
X127562484Y-99672737D01*
X127562493Y-99672743D01*
X127835048Y-99785639D01*
X128120007Y-99861993D01*
X128120013Y-99861993D01*
X128120014Y-99861994D01*
X128153574Y-99866412D01*
X128412494Y-99900500D01*
X128412501Y-99900500D01*
X128707499Y-99900500D01*
X128707506Y-99900500D01*
X128999993Y-99861993D01*
X129284952Y-99785639D01*
X129557507Y-99672743D01*
X129812994Y-99525238D01*
X130047042Y-99345646D01*
X130255646Y-99137042D01*
X130435238Y-98902994D01*
X130582743Y-98647507D01*
X130695639Y-98374952D01*
X130771993Y-98089993D01*
X130810500Y-97797506D01*
X130810500Y-97563389D01*
X132539500Y-97563389D01*
X132539500Y-97736611D01*
X132566598Y-97907701D01*
X132620127Y-98072445D01*
X132620128Y-98072448D01*
X132620130Y-98072452D01*
X132698768Y-98226788D01*
X132800587Y-98366930D01*
X132923069Y-98489412D01*
X132923072Y-98489414D01*
X133063212Y-98591232D01*
X133217555Y-98669873D01*
X133382299Y-98723402D01*
X133553389Y-98750500D01*
X133553392Y-98750500D01*
X133726608Y-98750500D01*
X133726611Y-98750500D01*
X133897701Y-98723402D01*
X134062445Y-98669873D01*
X134216788Y-98591232D01*
X134356928Y-98489414D01*
X134479414Y-98366928D01*
X134581232Y-98226788D01*
X134659873Y-98072445D01*
X134713402Y-97907701D01*
X134740500Y-97736611D01*
X134740500Y-97563389D01*
X141429500Y-97563389D01*
X141429500Y-97736611D01*
X141456598Y-97907701D01*
X141510127Y-98072445D01*
X141510128Y-98072448D01*
X141510130Y-98072452D01*
X141588768Y-98226788D01*
X141690587Y-98366930D01*
X141813069Y-98489412D01*
X141813072Y-98489414D01*
X141953212Y-98591232D01*
X142107555Y-98669873D01*
X142272299Y-98723402D01*
X142443389Y-98750500D01*
X142443392Y-98750500D01*
X142616608Y-98750500D01*
X142616611Y-98750500D01*
X142787701Y-98723402D01*
X142952445Y-98669873D01*
X143106788Y-98591232D01*
X143246928Y-98489414D01*
X143369414Y-98366928D01*
X143471232Y-98226788D01*
X143549873Y-98072445D01*
X143603402Y-97907701D01*
X143630500Y-97736611D01*
X143630500Y-97563389D01*
X143620855Y-97502491D01*
X145359500Y-97502491D01*
X145359500Y-97797508D01*
X145398005Y-98089985D01*
X145398006Y-98089991D01*
X145398007Y-98089993D01*
X145474361Y-98374952D01*
X145587257Y-98647507D01*
X145587258Y-98647508D01*
X145587263Y-98647519D01*
X145734759Y-98902990D01*
X145734764Y-98902997D01*
X145914346Y-99137033D01*
X145914365Y-99137054D01*
X146122945Y-99345634D01*
X146122966Y-99345653D01*
X146357002Y-99525235D01*
X146357009Y-99525240D01*
X146612480Y-99672736D01*
X146612484Y-99672737D01*
X146612493Y-99672743D01*
X146885048Y-99785639D01*
X147170007Y-99861993D01*
X147170013Y-99861993D01*
X147170014Y-99861994D01*
X147203574Y-99866412D01*
X147462494Y-99900500D01*
X147462501Y-99900500D01*
X147757499Y-99900500D01*
X147757506Y-99900500D01*
X148049993Y-99861993D01*
X148334952Y-99785639D01*
X148607507Y-99672743D01*
X148862994Y-99525238D01*
X149097042Y-99345646D01*
X149305646Y-99137042D01*
X149485238Y-98902994D01*
X149632743Y-98647507D01*
X149745639Y-98374952D01*
X149821993Y-98089993D01*
X149860500Y-97797506D01*
X149860500Y-97563389D01*
X151589500Y-97563389D01*
X151589500Y-97736611D01*
X151616598Y-97907701D01*
X151670127Y-98072445D01*
X151670128Y-98072448D01*
X151670130Y-98072452D01*
X151748768Y-98226788D01*
X151850587Y-98366930D01*
X151973069Y-98489412D01*
X151973072Y-98489414D01*
X152113212Y-98591232D01*
X152267555Y-98669873D01*
X152432299Y-98723402D01*
X152603389Y-98750500D01*
X152603392Y-98750500D01*
X152776608Y-98750500D01*
X152776611Y-98750500D01*
X152947701Y-98723402D01*
X153112445Y-98669873D01*
X153266788Y-98591232D01*
X153406928Y-98489414D01*
X153529414Y-98366928D01*
X153631232Y-98226788D01*
X153709873Y-98072445D01*
X153763402Y-97907701D01*
X153790500Y-97736611D01*
X153790500Y-97563389D01*
X160479500Y-97563389D01*
X160479500Y-97736611D01*
X160506598Y-97907701D01*
X160560127Y-98072445D01*
X160560128Y-98072448D01*
X160560130Y-98072452D01*
X160638768Y-98226788D01*
X160740587Y-98366930D01*
X160863069Y-98489412D01*
X160863072Y-98489414D01*
X161003212Y-98591232D01*
X161157555Y-98669873D01*
X161322299Y-98723402D01*
X161493389Y-98750500D01*
X161493392Y-98750500D01*
X161666608Y-98750500D01*
X161666611Y-98750500D01*
X161837701Y-98723402D01*
X162002445Y-98669873D01*
X162156788Y-98591232D01*
X162296928Y-98489414D01*
X162419414Y-98366928D01*
X162521232Y-98226788D01*
X162599873Y-98072445D01*
X162653402Y-97907701D01*
X162680500Y-97736611D01*
X162680500Y-97563389D01*
X162670855Y-97502491D01*
X164409500Y-97502491D01*
X164409500Y-97797508D01*
X164448005Y-98089985D01*
X164448006Y-98089991D01*
X164448007Y-98089993D01*
X164524361Y-98374952D01*
X164637257Y-98647507D01*
X164637258Y-98647508D01*
X164637263Y-98647519D01*
X164784759Y-98902990D01*
X164784764Y-98902997D01*
X164964346Y-99137033D01*
X164964365Y-99137054D01*
X165172945Y-99345634D01*
X165172966Y-99345653D01*
X165407002Y-99525235D01*
X165407009Y-99525240D01*
X165662480Y-99672736D01*
X165662484Y-99672737D01*
X165662493Y-99672743D01*
X165935048Y-99785639D01*
X166220007Y-99861993D01*
X166220013Y-99861993D01*
X166220014Y-99861994D01*
X166253574Y-99866412D01*
X166512494Y-99900500D01*
X166512501Y-99900500D01*
X166807499Y-99900500D01*
X166807506Y-99900500D01*
X167099993Y-99861993D01*
X167384952Y-99785639D01*
X167657507Y-99672743D01*
X167912994Y-99525238D01*
X168147042Y-99345646D01*
X168355646Y-99137042D01*
X168535238Y-98902994D01*
X168682743Y-98647507D01*
X168795639Y-98374952D01*
X168871993Y-98089993D01*
X168910500Y-97797506D01*
X168910500Y-97563389D01*
X170639500Y-97563389D01*
X170639500Y-97736611D01*
X170666598Y-97907701D01*
X170720127Y-98072445D01*
X170720128Y-98072448D01*
X170720130Y-98072452D01*
X170798768Y-98226788D01*
X170900587Y-98366930D01*
X171023069Y-98489412D01*
X171023072Y-98489414D01*
X171163212Y-98591232D01*
X171317555Y-98669873D01*
X171482299Y-98723402D01*
X171653389Y-98750500D01*
X171653392Y-98750500D01*
X171826608Y-98750500D01*
X171826611Y-98750500D01*
X171997701Y-98723402D01*
X172162445Y-98669873D01*
X172316788Y-98591232D01*
X172456928Y-98489414D01*
X172579414Y-98366928D01*
X172681232Y-98226788D01*
X172759873Y-98072445D01*
X172813402Y-97907701D01*
X172840500Y-97736611D01*
X172840500Y-97563389D01*
X172813402Y-97392299D01*
X172759873Y-97227555D01*
X172750935Y-97210014D01*
X172681231Y-97073211D01*
X172579412Y-96933069D01*
X172456930Y-96810587D01*
X172316788Y-96708768D01*
X172162452Y-96630130D01*
X172162448Y-96630128D01*
X172162445Y-96630127D01*
X171997701Y-96576598D01*
X171826611Y-96549500D01*
X171653389Y-96549500D01*
X171482299Y-96576598D01*
X171482296Y-96576598D01*
X171482295Y-96576599D01*
X171403253Y-96602281D01*
X171317555Y-96630127D01*
X171317553Y-96630127D01*
X171317547Y-96630130D01*
X171163211Y-96708768D01*
X171023069Y-96810587D01*
X170900587Y-96933069D01*
X170798768Y-97073211D01*
X170720130Y-97227547D01*
X170720127Y-97227553D01*
X170720127Y-97227555D01*
X170666598Y-97392299D01*
X170639500Y-97563389D01*
X168910500Y-97563389D01*
X168910500Y-97502494D01*
X168871993Y-97210007D01*
X168795639Y-96925048D01*
X168682743Y-96652493D01*
X168682737Y-96652484D01*
X168682736Y-96652480D01*
X168535240Y-96397009D01*
X168535235Y-96397002D01*
X168355653Y-96162966D01*
X168355634Y-96162945D01*
X168147054Y-95954365D01*
X168147033Y-95954346D01*
X167912997Y-95774764D01*
X167912990Y-95774759D01*
X167657519Y-95627263D01*
X167657511Y-95627259D01*
X167657507Y-95627257D01*
X167384952Y-95514361D01*
X167099993Y-95438007D01*
X167099991Y-95438006D01*
X167099985Y-95438005D01*
X166807508Y-95399500D01*
X166807506Y-95399500D01*
X166512494Y-95399500D01*
X166512491Y-95399500D01*
X166220014Y-95438005D01*
X165935048Y-95514361D01*
X165662491Y-95627258D01*
X165662480Y-95627263D01*
X165407009Y-95774759D01*
X165407002Y-95774764D01*
X165172966Y-95954346D01*
X165172945Y-95954365D01*
X164964365Y-96162945D01*
X164964346Y-96162966D01*
X164784764Y-96397002D01*
X164784759Y-96397009D01*
X164637263Y-96652480D01*
X164637258Y-96652491D01*
X164524361Y-96925048D01*
X164448005Y-97210014D01*
X164409500Y-97502491D01*
X162670855Y-97502491D01*
X162653402Y-97392299D01*
X162599873Y-97227555D01*
X162590935Y-97210014D01*
X162521231Y-97073211D01*
X162419412Y-96933069D01*
X162296930Y-96810587D01*
X162156788Y-96708768D01*
X162002452Y-96630130D01*
X162002448Y-96630128D01*
X162002445Y-96630127D01*
X161837701Y-96576598D01*
X161666611Y-96549500D01*
X161493389Y-96549500D01*
X161322299Y-96576598D01*
X161322296Y-96576598D01*
X161322295Y-96576599D01*
X161243253Y-96602281D01*
X161157555Y-96630127D01*
X161157553Y-96630127D01*
X161157547Y-96630130D01*
X161003211Y-96708768D01*
X160863069Y-96810587D01*
X160740587Y-96933069D01*
X160638768Y-97073211D01*
X160560130Y-97227547D01*
X160560127Y-97227553D01*
X160560127Y-97227555D01*
X160506598Y-97392299D01*
X160479500Y-97563389D01*
X153790500Y-97563389D01*
X153763402Y-97392299D01*
X153709873Y-97227555D01*
X153700935Y-97210014D01*
X153631231Y-97073211D01*
X153529412Y-96933069D01*
X153406930Y-96810587D01*
X153266788Y-96708768D01*
X153112452Y-96630130D01*
X153112448Y-96630128D01*
X153112445Y-96630127D01*
X152947701Y-96576598D01*
X152776611Y-96549500D01*
X152603389Y-96549500D01*
X152432299Y-96576598D01*
X152432296Y-96576598D01*
X152432295Y-96576599D01*
X152353253Y-96602281D01*
X152267555Y-96630127D01*
X152267553Y-96630127D01*
X152267547Y-96630130D01*
X152113211Y-96708768D01*
X151973069Y-96810587D01*
X151850587Y-96933069D01*
X151748768Y-97073211D01*
X151670130Y-97227547D01*
X151670127Y-97227553D01*
X151670127Y-97227555D01*
X151616598Y-97392299D01*
X151589500Y-97563389D01*
X149860500Y-97563389D01*
X149860500Y-97502494D01*
X149821993Y-97210007D01*
X149745639Y-96925048D01*
X149632743Y-96652493D01*
X149632737Y-96652484D01*
X149632736Y-96652480D01*
X149485240Y-96397009D01*
X149485235Y-96397002D01*
X149305653Y-96162966D01*
X149305634Y-96162945D01*
X149097054Y-95954365D01*
X149097033Y-95954346D01*
X148862997Y-95774764D01*
X148862990Y-95774759D01*
X148607519Y-95627263D01*
X148607511Y-95627259D01*
X148607507Y-95627257D01*
X148334952Y-95514361D01*
X148049993Y-95438007D01*
X148049991Y-95438006D01*
X148049985Y-95438005D01*
X147757508Y-95399500D01*
X147757506Y-95399500D01*
X147462494Y-95399500D01*
X147462491Y-95399500D01*
X147170014Y-95438005D01*
X146885048Y-95514361D01*
X146612491Y-95627258D01*
X146612480Y-95627263D01*
X146357009Y-95774759D01*
X146357002Y-95774764D01*
X146122966Y-95954346D01*
X146122945Y-95954365D01*
X145914365Y-96162945D01*
X145914346Y-96162966D01*
X145734764Y-96397002D01*
X145734759Y-96397009D01*
X145587263Y-96652480D01*
X145587258Y-96652491D01*
X145474361Y-96925048D01*
X145398005Y-97210014D01*
X145359500Y-97502491D01*
X143620855Y-97502491D01*
X143603402Y-97392299D01*
X143549873Y-97227555D01*
X143540935Y-97210014D01*
X143471231Y-97073211D01*
X143369412Y-96933069D01*
X143246930Y-96810587D01*
X143106788Y-96708768D01*
X142952452Y-96630130D01*
X142952448Y-96630128D01*
X142952445Y-96630127D01*
X142787701Y-96576598D01*
X142616611Y-96549500D01*
X142443389Y-96549500D01*
X142272299Y-96576598D01*
X142272296Y-96576598D01*
X142272295Y-96576599D01*
X142193253Y-96602281D01*
X142107555Y-96630127D01*
X142107553Y-96630127D01*
X142107547Y-96630130D01*
X141953211Y-96708768D01*
X141813069Y-96810587D01*
X141690587Y-96933069D01*
X141588768Y-97073211D01*
X141510130Y-97227547D01*
X141510127Y-97227553D01*
X141510127Y-97227555D01*
X141456598Y-97392299D01*
X141429500Y-97563389D01*
X134740500Y-97563389D01*
X134713402Y-97392299D01*
X134659873Y-97227555D01*
X134650935Y-97210014D01*
X134581231Y-97073211D01*
X134479412Y-96933069D01*
X134356930Y-96810587D01*
X134216788Y-96708768D01*
X134062452Y-96630130D01*
X134062448Y-96630128D01*
X134062445Y-96630127D01*
X133897701Y-96576598D01*
X133726611Y-96549500D01*
X133553389Y-96549500D01*
X133382299Y-96576598D01*
X133382296Y-96576598D01*
X133382295Y-96576599D01*
X133303253Y-96602281D01*
X133217555Y-96630127D01*
X133217553Y-96630127D01*
X133217547Y-96630130D01*
X133063211Y-96708768D01*
X132923069Y-96810587D01*
X132800587Y-96933069D01*
X132698768Y-97073211D01*
X132620130Y-97227547D01*
X132620127Y-97227553D01*
X132620127Y-97227555D01*
X132566598Y-97392299D01*
X132539500Y-97563389D01*
X130810500Y-97563389D01*
X130810500Y-97502494D01*
X130771993Y-97210007D01*
X130695639Y-96925048D01*
X130582743Y-96652493D01*
X130582737Y-96652484D01*
X130582736Y-96652480D01*
X130435240Y-96397009D01*
X130435235Y-96397002D01*
X130255653Y-96162966D01*
X130255634Y-96162945D01*
X130047054Y-95954365D01*
X130047033Y-95954346D01*
X129812997Y-95774764D01*
X129812990Y-95774759D01*
X129557519Y-95627263D01*
X129557511Y-95627259D01*
X129557507Y-95627257D01*
X129284952Y-95514361D01*
X128999993Y-95438007D01*
X128999991Y-95438006D01*
X128999985Y-95438005D01*
X128707508Y-95399500D01*
X128707506Y-95399500D01*
X128412494Y-95399500D01*
X128412491Y-95399500D01*
X128120014Y-95438005D01*
X127835048Y-95514361D01*
X127562491Y-95627258D01*
X127562480Y-95627263D01*
X127307009Y-95774759D01*
X127307002Y-95774764D01*
X127072966Y-95954346D01*
X127072945Y-95954365D01*
X126864365Y-96162945D01*
X126864346Y-96162966D01*
X126684764Y-96397002D01*
X126684759Y-96397009D01*
X126537263Y-96652480D01*
X126537258Y-96652491D01*
X126424361Y-96925048D01*
X126348005Y-97210014D01*
X126309500Y-97502491D01*
X124570855Y-97502491D01*
X124553402Y-97392299D01*
X124499873Y-97227555D01*
X124490935Y-97210014D01*
X124421231Y-97073211D01*
X124319412Y-96933069D01*
X124196930Y-96810587D01*
X124056788Y-96708768D01*
X123902452Y-96630130D01*
X123902448Y-96630128D01*
X123902445Y-96630127D01*
X123737701Y-96576598D01*
X123566611Y-96549500D01*
X123393389Y-96549500D01*
X123222299Y-96576598D01*
X123222296Y-96576598D01*
X123222295Y-96576599D01*
X123143253Y-96602281D01*
X123057555Y-96630127D01*
X123057553Y-96630127D01*
X123057547Y-96630130D01*
X122903211Y-96708768D01*
X122763069Y-96810587D01*
X122640587Y-96933069D01*
X122538768Y-97073211D01*
X122460130Y-97227547D01*
X122460127Y-97227553D01*
X122460127Y-97227555D01*
X122406598Y-97392299D01*
X122379500Y-97563389D01*
X115690500Y-97563389D01*
X115663402Y-97392299D01*
X115609873Y-97227555D01*
X115600935Y-97210014D01*
X115531231Y-97073211D01*
X115429412Y-96933069D01*
X115306930Y-96810587D01*
X115166788Y-96708768D01*
X115012452Y-96630130D01*
X115012448Y-96630128D01*
X115012445Y-96630127D01*
X114847701Y-96576598D01*
X114676611Y-96549500D01*
X114503389Y-96549500D01*
X114332299Y-96576598D01*
X114332296Y-96576598D01*
X114332295Y-96576599D01*
X114253253Y-96602281D01*
X114167555Y-96630127D01*
X114167553Y-96630127D01*
X114167547Y-96630130D01*
X114013211Y-96708768D01*
X113873069Y-96810587D01*
X113750587Y-96933069D01*
X113648768Y-97073211D01*
X113570130Y-97227547D01*
X113570127Y-97227553D01*
X113570127Y-97227555D01*
X113516598Y-97392299D01*
X113489500Y-97563389D01*
X111760500Y-97563389D01*
X111760500Y-97502494D01*
X111721993Y-97210007D01*
X111645639Y-96925048D01*
X111532743Y-96652493D01*
X111532737Y-96652484D01*
X111532736Y-96652480D01*
X111385240Y-96397009D01*
X111385235Y-96397002D01*
X111205653Y-96162966D01*
X111205634Y-96162945D01*
X110997054Y-95954365D01*
X110997033Y-95954346D01*
X110762997Y-95774764D01*
X110762990Y-95774759D01*
X110507519Y-95627263D01*
X110507511Y-95627259D01*
X110507507Y-95627257D01*
X110234952Y-95514361D01*
X109949993Y-95438007D01*
X109949991Y-95438006D01*
X109949985Y-95438005D01*
X109657508Y-95399500D01*
X109657506Y-95399500D01*
X109362494Y-95399500D01*
X109362491Y-95399500D01*
X109070014Y-95438005D01*
X108785048Y-95514361D01*
X108512491Y-95627258D01*
X108512480Y-95627263D01*
X108257009Y-95774759D01*
X108257002Y-95774764D01*
X108022966Y-95954346D01*
X108022945Y-95954365D01*
X107814365Y-96162945D01*
X107814346Y-96162966D01*
X107634764Y-96397002D01*
X107634759Y-96397009D01*
X107487263Y-96652480D01*
X107487258Y-96652491D01*
X107374361Y-96925048D01*
X107298005Y-97210014D01*
X107259500Y-97502491D01*
X105520855Y-97502491D01*
X105503402Y-97392299D01*
X105449873Y-97227555D01*
X105440935Y-97210014D01*
X105371231Y-97073211D01*
X105269412Y-96933069D01*
X105146930Y-96810587D01*
X105006788Y-96708768D01*
X104852452Y-96630130D01*
X104852448Y-96630128D01*
X104852445Y-96630127D01*
X104687701Y-96576598D01*
X104516611Y-96549500D01*
X104343389Y-96549500D01*
X104172299Y-96576598D01*
X104172296Y-96576598D01*
X104172295Y-96576599D01*
X104093253Y-96602281D01*
X104007555Y-96630127D01*
X104007553Y-96630127D01*
X104007547Y-96630130D01*
X103853211Y-96708768D01*
X103713069Y-96810587D01*
X103590587Y-96933069D01*
X103488768Y-97073211D01*
X103410130Y-97227547D01*
X103410127Y-97227553D01*
X103410127Y-97227555D01*
X103356598Y-97392299D01*
X103329500Y-97563389D01*
X99525500Y-97563389D01*
X99525500Y-95369807D01*
X104135975Y-95369807D01*
X104144350Y-95438007D01*
X104153725Y-95514361D01*
X104157242Y-95542998D01*
X104205332Y-95710711D01*
X104279070Y-95868843D01*
X104376639Y-96013496D01*
X104376645Y-96013503D01*
X104495633Y-96141105D01*
X104495637Y-96141108D01*
X104633132Y-96248530D01*
X104785736Y-96333120D01*
X104949696Y-96392797D01*
X105120971Y-96426089D01*
X105270984Y-96431328D01*
X105295344Y-96432179D01*
X105295344Y-96432178D01*
X105295348Y-96432179D01*
X105468529Y-96410914D01*
X105552390Y-96386867D01*
X105636245Y-96362823D01*
X105636246Y-96362822D01*
X105636251Y-96362821D01*
X106700693Y-95866464D01*
X106845345Y-95768895D01*
X106972953Y-95649900D01*
X107080375Y-95512405D01*
X107159419Y-95369807D01*
X123185975Y-95369807D01*
X123194350Y-95438007D01*
X123203725Y-95514361D01*
X123207242Y-95542998D01*
X123255332Y-95710711D01*
X123329070Y-95868843D01*
X123426639Y-96013496D01*
X123426645Y-96013503D01*
X123545633Y-96141105D01*
X123545637Y-96141108D01*
X123683132Y-96248530D01*
X123835736Y-96333120D01*
X123999696Y-96392797D01*
X124170971Y-96426089D01*
X124320984Y-96431328D01*
X124345344Y-96432179D01*
X124345344Y-96432178D01*
X124345348Y-96432179D01*
X124518529Y-96410914D01*
X124602390Y-96386867D01*
X124686245Y-96362823D01*
X124686246Y-96362822D01*
X124686251Y-96362821D01*
X125750693Y-95866464D01*
X125895345Y-95768895D01*
X126022953Y-95649900D01*
X126130375Y-95512405D01*
X126209419Y-95369807D01*
X142235975Y-95369807D01*
X142244350Y-95438007D01*
X142253725Y-95514361D01*
X142257242Y-95542998D01*
X142305332Y-95710711D01*
X142379070Y-95868843D01*
X142476639Y-96013496D01*
X142476645Y-96013503D01*
X142595633Y-96141105D01*
X142595637Y-96141108D01*
X142733132Y-96248530D01*
X142885736Y-96333120D01*
X143049696Y-96392797D01*
X143220971Y-96426089D01*
X143370984Y-96431328D01*
X143395344Y-96432179D01*
X143395344Y-96432178D01*
X143395348Y-96432179D01*
X143568529Y-96410914D01*
X143652390Y-96386867D01*
X143736245Y-96362823D01*
X143736246Y-96362822D01*
X143736251Y-96362821D01*
X144800693Y-95866464D01*
X144945345Y-95768895D01*
X145072953Y-95649900D01*
X145180375Y-95512405D01*
X145259419Y-95369807D01*
X161285975Y-95369807D01*
X161294350Y-95438007D01*
X161303725Y-95514361D01*
X161307242Y-95542998D01*
X161355332Y-95710711D01*
X161429070Y-95868843D01*
X161526639Y-96013496D01*
X161526645Y-96013503D01*
X161645633Y-96141105D01*
X161645637Y-96141108D01*
X161783132Y-96248530D01*
X161935736Y-96333120D01*
X162099696Y-96392797D01*
X162270971Y-96426089D01*
X162420984Y-96431328D01*
X162445344Y-96432179D01*
X162445344Y-96432178D01*
X162445348Y-96432179D01*
X162618529Y-96410914D01*
X162702390Y-96386867D01*
X162786245Y-96362823D01*
X162786246Y-96362822D01*
X162786251Y-96362821D01*
X163850693Y-95866464D01*
X163995345Y-95768895D01*
X164122953Y-95649900D01*
X164230375Y-95512405D01*
X164314965Y-95359801D01*
X164374642Y-95195841D01*
X164407934Y-95024566D01*
X164414024Y-94850189D01*
X164392759Y-94677008D01*
X164344666Y-94509286D01*
X164270931Y-94351159D01*
X164270928Y-94351155D01*
X164270927Y-94351152D01*
X164173358Y-94206500D01*
X164054362Y-94078892D01*
X164054360Y-94078890D01*
X164054359Y-94078889D01*
X163971865Y-94014438D01*
X163916868Y-93971470D01*
X163916866Y-93971469D01*
X163916865Y-93971468D01*
X163801453Y-93907494D01*
X163764264Y-93886880D01*
X163764263Y-93886879D01*
X163764262Y-93886879D01*
X163600305Y-93827203D01*
X163429031Y-93793911D01*
X163429032Y-93793911D01*
X163254655Y-93787820D01*
X163112972Y-93805217D01*
X163081471Y-93809086D01*
X163081470Y-93809086D01*
X163081464Y-93809087D01*
X162913754Y-93857176D01*
X161849309Y-94353534D01*
X161704658Y-94451102D01*
X161704651Y-94451108D01*
X161577049Y-94570096D01*
X161469622Y-94707599D01*
X161385034Y-94860200D01*
X161325358Y-95024157D01*
X161292066Y-95195430D01*
X161285975Y-95369807D01*
X145259419Y-95369807D01*
X145264965Y-95359801D01*
X145324642Y-95195841D01*
X145357934Y-95024566D01*
X145364024Y-94850189D01*
X145342759Y-94677008D01*
X145294666Y-94509286D01*
X145220931Y-94351159D01*
X145220928Y-94351155D01*
X145220927Y-94351152D01*
X145123358Y-94206500D01*
X145004362Y-94078892D01*
X145004360Y-94078890D01*
X145004359Y-94078889D01*
X144921865Y-94014438D01*
X144866868Y-93971470D01*
X144866866Y-93971469D01*
X144866865Y-93971468D01*
X144751453Y-93907494D01*
X144714264Y-93886880D01*
X144714263Y-93886879D01*
X144714262Y-93886879D01*
X144550305Y-93827203D01*
X144379031Y-93793911D01*
X144379032Y-93793911D01*
X144204655Y-93787820D01*
X144062972Y-93805217D01*
X144031471Y-93809086D01*
X144031470Y-93809086D01*
X144031464Y-93809087D01*
X143863754Y-93857176D01*
X142799309Y-94353534D01*
X142654658Y-94451102D01*
X142654651Y-94451108D01*
X142527049Y-94570096D01*
X142419622Y-94707599D01*
X142335034Y-94860200D01*
X142275358Y-95024157D01*
X142242066Y-95195430D01*
X142235975Y-95369807D01*
X126209419Y-95369807D01*
X126214965Y-95359801D01*
X126274642Y-95195841D01*
X126307934Y-95024566D01*
X126314024Y-94850189D01*
X126292759Y-94677008D01*
X126244666Y-94509286D01*
X126170931Y-94351159D01*
X126170928Y-94351155D01*
X126170927Y-94351152D01*
X126073358Y-94206500D01*
X125954362Y-94078892D01*
X125954360Y-94078890D01*
X125954359Y-94078889D01*
X125871865Y-94014438D01*
X125816868Y-93971470D01*
X125816866Y-93971469D01*
X125816865Y-93971468D01*
X125701453Y-93907494D01*
X125664264Y-93886880D01*
X125664263Y-93886879D01*
X125664262Y-93886879D01*
X125500305Y-93827203D01*
X125329031Y-93793911D01*
X125329032Y-93793911D01*
X125154655Y-93787820D01*
X125012972Y-93805217D01*
X124981471Y-93809086D01*
X124981470Y-93809086D01*
X124981464Y-93809087D01*
X124813754Y-93857176D01*
X123749309Y-94353534D01*
X123604658Y-94451102D01*
X123604651Y-94451108D01*
X123477049Y-94570096D01*
X123369622Y-94707599D01*
X123285034Y-94860200D01*
X123225358Y-95024157D01*
X123192066Y-95195430D01*
X123185975Y-95369807D01*
X107159419Y-95369807D01*
X107164965Y-95359801D01*
X107224642Y-95195841D01*
X107257934Y-95024566D01*
X107264024Y-94850189D01*
X107242759Y-94677008D01*
X107194666Y-94509286D01*
X107120931Y-94351159D01*
X107120928Y-94351155D01*
X107120927Y-94351152D01*
X107023358Y-94206500D01*
X106904362Y-94078892D01*
X106904360Y-94078890D01*
X106904359Y-94078889D01*
X106821865Y-94014438D01*
X106766868Y-93971470D01*
X106766866Y-93971469D01*
X106766865Y-93971468D01*
X106651453Y-93907494D01*
X106614264Y-93886880D01*
X106614263Y-93886879D01*
X106614262Y-93886879D01*
X106450305Y-93827203D01*
X106279031Y-93793911D01*
X106279032Y-93793911D01*
X106104655Y-93787820D01*
X105962972Y-93805217D01*
X105931471Y-93809086D01*
X105931470Y-93809086D01*
X105931464Y-93809087D01*
X105763754Y-93857176D01*
X104699309Y-94353534D01*
X104554658Y-94451102D01*
X104554651Y-94451108D01*
X104427049Y-94570096D01*
X104319622Y-94707599D01*
X104235034Y-94860200D01*
X104175358Y-95024157D01*
X104142066Y-95195430D01*
X104135975Y-95369807D01*
X99525500Y-95369807D01*
X99525500Y-92310192D01*
X110485975Y-92310192D01*
X110492066Y-92484569D01*
X110525278Y-92655430D01*
X110525358Y-92655841D01*
X110585035Y-92819801D01*
X110669625Y-92972405D01*
X110693527Y-93002998D01*
X110777049Y-93109903D01*
X110880130Y-93206025D01*
X110904655Y-93228895D01*
X111049307Y-93326464D01*
X111049308Y-93326464D01*
X111049309Y-93326465D01*
X111075659Y-93338752D01*
X112113749Y-93822821D01*
X112113750Y-93822821D01*
X112113754Y-93822823D01*
X112281464Y-93870912D01*
X112281471Y-93870914D01*
X112454652Y-93892179D01*
X112629029Y-93886089D01*
X112800304Y-93852797D01*
X112964264Y-93793120D01*
X113116868Y-93708530D01*
X113254362Y-93601108D01*
X113373358Y-93473500D01*
X113433699Y-93384041D01*
X113488374Y-93338752D01*
X113538157Y-93328500D01*
X130075739Y-93328500D01*
X130128988Y-93340304D01*
X131163749Y-93822821D01*
X131163750Y-93822821D01*
X131163754Y-93822823D01*
X131331464Y-93870912D01*
X131331471Y-93870914D01*
X131504652Y-93892179D01*
X131679029Y-93886089D01*
X131850304Y-93852797D01*
X132014264Y-93793120D01*
X132166868Y-93708530D01*
X132304362Y-93601108D01*
X132423358Y-93473500D01*
X132483699Y-93384041D01*
X132538374Y-93338752D01*
X132588157Y-93328500D01*
X149125739Y-93328500D01*
X149178988Y-93340304D01*
X150213749Y-93822821D01*
X150213750Y-93822821D01*
X150213754Y-93822823D01*
X150381464Y-93870912D01*
X150381471Y-93870914D01*
X150554652Y-93892179D01*
X150729029Y-93886089D01*
X150900304Y-93852797D01*
X151064264Y-93793120D01*
X151216868Y-93708530D01*
X151354362Y-93601108D01*
X151473358Y-93473500D01*
X151533699Y-93384041D01*
X151588374Y-93338752D01*
X151638157Y-93328500D01*
X168175739Y-93328500D01*
X168228988Y-93340304D01*
X169263749Y-93822821D01*
X169263750Y-93822821D01*
X169263754Y-93822823D01*
X169431464Y-93870912D01*
X169431471Y-93870914D01*
X169604652Y-93892179D01*
X169779029Y-93886089D01*
X169950304Y-93852797D01*
X170114264Y-93793120D01*
X170266868Y-93708530D01*
X170404362Y-93601108D01*
X170523358Y-93473500D01*
X170620927Y-93328848D01*
X170621090Y-93328500D01*
X170694667Y-93170711D01*
X170742757Y-93002998D01*
X170742759Y-93002992D01*
X170764024Y-92829811D01*
X170757934Y-92655434D01*
X170724642Y-92484159D01*
X170664965Y-92320199D01*
X170580375Y-92167595D01*
X170472953Y-92030100D01*
X170472950Y-92030096D01*
X170345348Y-91911108D01*
X170345345Y-91911105D01*
X170200693Y-91813536D01*
X170200692Y-91813535D01*
X170200690Y-91813534D01*
X169136245Y-91317176D01*
X168968535Y-91269087D01*
X168968530Y-91269086D01*
X168968529Y-91269086D01*
X168898315Y-91260464D01*
X168795343Y-91247820D01*
X168620967Y-91253911D01*
X168449694Y-91287203D01*
X168285737Y-91346879D01*
X168133136Y-91431467D01*
X167995633Y-91538894D01*
X167876645Y-91666496D01*
X167876639Y-91666502D01*
X167816302Y-91755958D01*
X167761627Y-91801248D01*
X167711843Y-91811500D01*
X151174261Y-91811500D01*
X151121011Y-91799695D01*
X150086245Y-91317176D01*
X149918535Y-91269087D01*
X149918530Y-91269086D01*
X149918529Y-91269086D01*
X149848315Y-91260464D01*
X149745343Y-91247820D01*
X149570967Y-91253911D01*
X149399694Y-91287203D01*
X149235737Y-91346879D01*
X149083136Y-91431467D01*
X148945633Y-91538894D01*
X148826645Y-91666496D01*
X148826639Y-91666502D01*
X148766302Y-91755958D01*
X148711627Y-91801248D01*
X148661843Y-91811500D01*
X132124261Y-91811500D01*
X132071011Y-91799695D01*
X131036245Y-91317176D01*
X130868535Y-91269087D01*
X130868530Y-91269086D01*
X130868529Y-91269086D01*
X130798315Y-91260464D01*
X130695343Y-91247820D01*
X130520967Y-91253911D01*
X130349694Y-91287203D01*
X130185737Y-91346879D01*
X130033136Y-91431467D01*
X129895633Y-91538894D01*
X129776645Y-91666496D01*
X129776639Y-91666502D01*
X129716302Y-91755958D01*
X129661627Y-91801248D01*
X129611843Y-91811500D01*
X113074261Y-91811500D01*
X113021011Y-91799695D01*
X111986245Y-91317176D01*
X111818535Y-91269087D01*
X111818530Y-91269086D01*
X111818529Y-91269086D01*
X111748315Y-91260464D01*
X111645343Y-91247820D01*
X111470967Y-91253911D01*
X111299694Y-91287203D01*
X111135737Y-91346879D01*
X110983136Y-91431467D01*
X110845633Y-91538894D01*
X110726645Y-91666496D01*
X110726639Y-91666503D01*
X110629070Y-91811156D01*
X110555332Y-91969288D01*
X110507242Y-92137001D01*
X110485975Y-92310192D01*
X99525500Y-92310192D01*
X99525500Y-78513389D01*
X103329500Y-78513389D01*
X103329500Y-78686611D01*
X103356598Y-78857701D01*
X103410127Y-79022445D01*
X103410128Y-79022448D01*
X103410130Y-79022452D01*
X103488768Y-79176788D01*
X103590587Y-79316930D01*
X103713069Y-79439412D01*
X103713072Y-79439414D01*
X103853212Y-79541232D01*
X104007555Y-79619873D01*
X104172299Y-79673402D01*
X104343389Y-79700500D01*
X104343392Y-79700500D01*
X104516608Y-79700500D01*
X104516611Y-79700500D01*
X104687701Y-79673402D01*
X104852445Y-79619873D01*
X105006788Y-79541232D01*
X105146928Y-79439414D01*
X105269414Y-79316928D01*
X105371232Y-79176788D01*
X105449873Y-79022445D01*
X105503402Y-78857701D01*
X105530500Y-78686611D01*
X105530500Y-78513389D01*
X105520855Y-78452491D01*
X107259500Y-78452491D01*
X107259500Y-78747508D01*
X107298005Y-79039985D01*
X107298006Y-79039991D01*
X107298007Y-79039993D01*
X107374361Y-79324952D01*
X107487257Y-79597507D01*
X107487258Y-79597508D01*
X107487263Y-79597519D01*
X107634759Y-79852990D01*
X107634764Y-79852997D01*
X107814346Y-80087033D01*
X107814365Y-80087054D01*
X108022945Y-80295634D01*
X108022966Y-80295653D01*
X108257002Y-80475235D01*
X108257009Y-80475240D01*
X108512480Y-80622736D01*
X108512484Y-80622737D01*
X108512493Y-80622743D01*
X108785048Y-80735639D01*
X109070007Y-80811993D01*
X109070013Y-80811993D01*
X109070014Y-80811994D01*
X109103574Y-80816412D01*
X109362494Y-80850500D01*
X109362501Y-80850500D01*
X109657499Y-80850500D01*
X109657506Y-80850500D01*
X109949993Y-80811993D01*
X110234952Y-80735639D01*
X110507507Y-80622743D01*
X110762994Y-80475238D01*
X110997042Y-80295646D01*
X111205646Y-80087042D01*
X111385238Y-79852994D01*
X111532743Y-79597507D01*
X111645639Y-79324952D01*
X111721993Y-79039993D01*
X111760500Y-78747506D01*
X111760500Y-78513389D01*
X113489500Y-78513389D01*
X113489500Y-78686611D01*
X113516598Y-78857701D01*
X113570127Y-79022445D01*
X113570128Y-79022448D01*
X113570130Y-79022452D01*
X113648768Y-79176788D01*
X113750587Y-79316930D01*
X113873069Y-79439412D01*
X113873072Y-79439414D01*
X114013212Y-79541232D01*
X114167555Y-79619873D01*
X114332299Y-79673402D01*
X114503389Y-79700500D01*
X114503392Y-79700500D01*
X114676608Y-79700500D01*
X114676611Y-79700500D01*
X114847701Y-79673402D01*
X115012445Y-79619873D01*
X115166788Y-79541232D01*
X115306928Y-79439414D01*
X115429414Y-79316928D01*
X115531232Y-79176788D01*
X115609873Y-79022445D01*
X115663402Y-78857701D01*
X115690500Y-78686611D01*
X115690500Y-78513389D01*
X122379500Y-78513389D01*
X122379500Y-78686611D01*
X122406598Y-78857701D01*
X122460127Y-79022445D01*
X122460128Y-79022448D01*
X122460130Y-79022452D01*
X122538768Y-79176788D01*
X122640587Y-79316930D01*
X122763069Y-79439412D01*
X122763072Y-79439414D01*
X122903212Y-79541232D01*
X123057555Y-79619873D01*
X123222299Y-79673402D01*
X123393389Y-79700500D01*
X123393392Y-79700500D01*
X123566608Y-79700500D01*
X123566611Y-79700500D01*
X123737701Y-79673402D01*
X123902445Y-79619873D01*
X124056788Y-79541232D01*
X124196928Y-79439414D01*
X124319414Y-79316928D01*
X124421232Y-79176788D01*
X124499873Y-79022445D01*
X124553402Y-78857701D01*
X124580500Y-78686611D01*
X124580500Y-78513389D01*
X124570855Y-78452491D01*
X126309500Y-78452491D01*
X126309500Y-78747508D01*
X126348005Y-79039985D01*
X126348006Y-79039991D01*
X126348007Y-79039993D01*
X126424361Y-79324952D01*
X126537257Y-79597507D01*
X126537258Y-79597508D01*
X126537263Y-79597519D01*
X126684759Y-79852990D01*
X126684764Y-79852997D01*
X126864346Y-80087033D01*
X126864365Y-80087054D01*
X127072945Y-80295634D01*
X127072966Y-80295653D01*
X127307002Y-80475235D01*
X127307009Y-80475240D01*
X127562480Y-80622736D01*
X127562484Y-80622737D01*
X127562493Y-80622743D01*
X127835048Y-80735639D01*
X128120007Y-80811993D01*
X128120013Y-80811993D01*
X128120014Y-80811994D01*
X128153574Y-80816412D01*
X128412494Y-80850500D01*
X128412501Y-80850500D01*
X128707499Y-80850500D01*
X128707506Y-80850500D01*
X128999993Y-80811993D01*
X129284952Y-80735639D01*
X129557507Y-80622743D01*
X129812994Y-80475238D01*
X130047042Y-80295646D01*
X130255646Y-80087042D01*
X130435238Y-79852994D01*
X130582743Y-79597507D01*
X130695639Y-79324952D01*
X130771993Y-79039993D01*
X130810500Y-78747506D01*
X130810500Y-78513389D01*
X132539500Y-78513389D01*
X132539500Y-78686611D01*
X132566598Y-78857701D01*
X132620127Y-79022445D01*
X132620128Y-79022448D01*
X132620130Y-79022452D01*
X132698768Y-79176788D01*
X132800587Y-79316930D01*
X132923069Y-79439412D01*
X132923072Y-79439414D01*
X133063212Y-79541232D01*
X133217555Y-79619873D01*
X133382299Y-79673402D01*
X133553389Y-79700500D01*
X133553392Y-79700500D01*
X133726608Y-79700500D01*
X133726611Y-79700500D01*
X133897701Y-79673402D01*
X134062445Y-79619873D01*
X134216788Y-79541232D01*
X134356928Y-79439414D01*
X134479414Y-79316928D01*
X134581232Y-79176788D01*
X134659873Y-79022445D01*
X134713402Y-78857701D01*
X134740500Y-78686611D01*
X134740500Y-78513389D01*
X141429500Y-78513389D01*
X141429500Y-78686611D01*
X141456598Y-78857701D01*
X141510127Y-79022445D01*
X141510128Y-79022448D01*
X141510130Y-79022452D01*
X141588768Y-79176788D01*
X141690587Y-79316930D01*
X141813069Y-79439412D01*
X141813072Y-79439414D01*
X141953212Y-79541232D01*
X142107555Y-79619873D01*
X142272299Y-79673402D01*
X142443389Y-79700500D01*
X142443392Y-79700500D01*
X142616608Y-79700500D01*
X142616611Y-79700500D01*
X142787701Y-79673402D01*
X142952445Y-79619873D01*
X143106788Y-79541232D01*
X143246928Y-79439414D01*
X143369414Y-79316928D01*
X143471232Y-79176788D01*
X143549873Y-79022445D01*
X143603402Y-78857701D01*
X143630500Y-78686611D01*
X143630500Y-78513389D01*
X143620855Y-78452491D01*
X145359500Y-78452491D01*
X145359500Y-78747508D01*
X145398005Y-79039985D01*
X145398006Y-79039991D01*
X145398007Y-79039993D01*
X145474361Y-79324952D01*
X145587257Y-79597507D01*
X145587258Y-79597508D01*
X145587263Y-79597519D01*
X145734759Y-79852990D01*
X145734764Y-79852997D01*
X145914346Y-80087033D01*
X145914365Y-80087054D01*
X146122945Y-80295634D01*
X146122966Y-80295653D01*
X146357002Y-80475235D01*
X146357009Y-80475240D01*
X146612480Y-80622736D01*
X146612484Y-80622737D01*
X146612493Y-80622743D01*
X146885048Y-80735639D01*
X147170007Y-80811993D01*
X147170013Y-80811993D01*
X147170014Y-80811994D01*
X147203574Y-80816412D01*
X147462494Y-80850500D01*
X147462501Y-80850500D01*
X147757499Y-80850500D01*
X147757506Y-80850500D01*
X148049993Y-80811993D01*
X148334952Y-80735639D01*
X148607507Y-80622743D01*
X148862994Y-80475238D01*
X149097042Y-80295646D01*
X149305646Y-80087042D01*
X149485238Y-79852994D01*
X149632743Y-79597507D01*
X149745639Y-79324952D01*
X149821993Y-79039993D01*
X149860500Y-78747506D01*
X149860500Y-78513389D01*
X151589500Y-78513389D01*
X151589500Y-78686611D01*
X151616598Y-78857701D01*
X151670127Y-79022445D01*
X151670128Y-79022448D01*
X151670130Y-79022452D01*
X151748768Y-79176788D01*
X151850587Y-79316930D01*
X151973069Y-79439412D01*
X151973072Y-79439414D01*
X152113212Y-79541232D01*
X152267555Y-79619873D01*
X152432299Y-79673402D01*
X152603389Y-79700500D01*
X152603392Y-79700500D01*
X152776608Y-79700500D01*
X152776611Y-79700500D01*
X152947701Y-79673402D01*
X153112445Y-79619873D01*
X153266788Y-79541232D01*
X153406928Y-79439414D01*
X153529414Y-79316928D01*
X153631232Y-79176788D01*
X153709873Y-79022445D01*
X153763402Y-78857701D01*
X153790500Y-78686611D01*
X153790500Y-78513389D01*
X160479500Y-78513389D01*
X160479500Y-78686611D01*
X160506598Y-78857701D01*
X160560127Y-79022445D01*
X160560128Y-79022448D01*
X160560130Y-79022452D01*
X160638768Y-79176788D01*
X160740587Y-79316930D01*
X160863069Y-79439412D01*
X160863072Y-79439414D01*
X161003212Y-79541232D01*
X161157555Y-79619873D01*
X161322299Y-79673402D01*
X161493389Y-79700500D01*
X161493392Y-79700500D01*
X161666608Y-79700500D01*
X161666611Y-79700500D01*
X161837701Y-79673402D01*
X162002445Y-79619873D01*
X162156788Y-79541232D01*
X162296928Y-79439414D01*
X162419414Y-79316928D01*
X162521232Y-79176788D01*
X162599873Y-79022445D01*
X162653402Y-78857701D01*
X162680500Y-78686611D01*
X162680500Y-78513389D01*
X162670855Y-78452491D01*
X164409500Y-78452491D01*
X164409500Y-78747508D01*
X164448005Y-79039985D01*
X164448006Y-79039991D01*
X164448007Y-79039993D01*
X164524361Y-79324952D01*
X164637257Y-79597507D01*
X164637258Y-79597508D01*
X164637263Y-79597519D01*
X164784759Y-79852990D01*
X164784764Y-79852997D01*
X164964346Y-80087033D01*
X164964365Y-80087054D01*
X165172945Y-80295634D01*
X165172966Y-80295653D01*
X165407002Y-80475235D01*
X165407009Y-80475240D01*
X165662480Y-80622736D01*
X165662484Y-80622737D01*
X165662493Y-80622743D01*
X165935048Y-80735639D01*
X166220007Y-80811993D01*
X166220013Y-80811993D01*
X166220014Y-80811994D01*
X166253574Y-80816412D01*
X166512494Y-80850500D01*
X166512501Y-80850500D01*
X166807499Y-80850500D01*
X166807506Y-80850500D01*
X167099993Y-80811993D01*
X167384952Y-80735639D01*
X167657507Y-80622743D01*
X167912994Y-80475238D01*
X168147042Y-80295646D01*
X168355646Y-80087042D01*
X168535238Y-79852994D01*
X168682743Y-79597507D01*
X168795639Y-79324952D01*
X168871993Y-79039993D01*
X168910500Y-78747506D01*
X168910500Y-78513389D01*
X170639500Y-78513389D01*
X170639500Y-78686611D01*
X170666598Y-78857701D01*
X170720127Y-79022445D01*
X170720128Y-79022448D01*
X170720130Y-79022452D01*
X170798768Y-79176788D01*
X170900587Y-79316930D01*
X171023069Y-79439412D01*
X171023072Y-79439414D01*
X171163212Y-79541232D01*
X171317555Y-79619873D01*
X171482299Y-79673402D01*
X171653389Y-79700500D01*
X171653392Y-79700500D01*
X171826608Y-79700500D01*
X171826611Y-79700500D01*
X171997701Y-79673402D01*
X172162445Y-79619873D01*
X172316788Y-79541232D01*
X172456928Y-79439414D01*
X172579414Y-79316928D01*
X172681232Y-79176788D01*
X172759873Y-79022445D01*
X172813402Y-78857701D01*
X172840500Y-78686611D01*
X172840500Y-78513389D01*
X172813402Y-78342299D01*
X172759873Y-78177555D01*
X172750935Y-78160014D01*
X172681231Y-78023211D01*
X172579412Y-77883069D01*
X172456930Y-77760587D01*
X172316788Y-77658768D01*
X172162452Y-77580130D01*
X172162448Y-77580128D01*
X172162445Y-77580127D01*
X171997701Y-77526598D01*
X171826611Y-77499500D01*
X171653389Y-77499500D01*
X171482299Y-77526598D01*
X171482296Y-77526598D01*
X171482295Y-77526599D01*
X171403253Y-77552281D01*
X171317555Y-77580127D01*
X171317553Y-77580127D01*
X171317547Y-77580130D01*
X171163211Y-77658768D01*
X171023069Y-77760587D01*
X170900587Y-77883069D01*
X170798768Y-78023211D01*
X170720130Y-78177547D01*
X170720127Y-78177553D01*
X170720127Y-78177555D01*
X170666598Y-78342299D01*
X170639500Y-78513389D01*
X168910500Y-78513389D01*
X168910500Y-78452494D01*
X168871993Y-78160007D01*
X168795639Y-77875048D01*
X168682743Y-77602493D01*
X168682737Y-77602484D01*
X168682736Y-77602480D01*
X168535240Y-77347009D01*
X168535235Y-77347002D01*
X168355653Y-77112966D01*
X168355634Y-77112945D01*
X168147054Y-76904365D01*
X168147033Y-76904346D01*
X167912997Y-76724764D01*
X167912990Y-76724759D01*
X167657519Y-76577263D01*
X167657511Y-76577259D01*
X167657507Y-76577257D01*
X167384952Y-76464361D01*
X167099993Y-76388007D01*
X167099991Y-76388006D01*
X167099985Y-76388005D01*
X166807508Y-76349500D01*
X166807506Y-76349500D01*
X166512494Y-76349500D01*
X166512491Y-76349500D01*
X166220014Y-76388005D01*
X165935048Y-76464361D01*
X165662491Y-76577258D01*
X165662480Y-76577263D01*
X165407009Y-76724759D01*
X165407002Y-76724764D01*
X165172966Y-76904346D01*
X165172945Y-76904365D01*
X164964365Y-77112945D01*
X164964346Y-77112966D01*
X164784764Y-77347002D01*
X164784759Y-77347009D01*
X164637263Y-77602480D01*
X164637258Y-77602491D01*
X164524361Y-77875048D01*
X164448005Y-78160014D01*
X164409500Y-78452491D01*
X162670855Y-78452491D01*
X162653402Y-78342299D01*
X162599873Y-78177555D01*
X162590935Y-78160014D01*
X162521231Y-78023211D01*
X162419412Y-77883069D01*
X162296930Y-77760587D01*
X162156788Y-77658768D01*
X162002452Y-77580130D01*
X162002448Y-77580128D01*
X162002445Y-77580127D01*
X161837701Y-77526598D01*
X161666611Y-77499500D01*
X161493389Y-77499500D01*
X161322299Y-77526598D01*
X161322296Y-77526598D01*
X161322295Y-77526599D01*
X161243253Y-77552281D01*
X161157555Y-77580127D01*
X161157553Y-77580127D01*
X161157547Y-77580130D01*
X161003211Y-77658768D01*
X160863069Y-77760587D01*
X160740587Y-77883069D01*
X160638768Y-78023211D01*
X160560130Y-78177547D01*
X160560127Y-78177553D01*
X160560127Y-78177555D01*
X160506598Y-78342299D01*
X160479500Y-78513389D01*
X153790500Y-78513389D01*
X153763402Y-78342299D01*
X153709873Y-78177555D01*
X153700935Y-78160014D01*
X153631231Y-78023211D01*
X153529412Y-77883069D01*
X153406930Y-77760587D01*
X153266788Y-77658768D01*
X153112452Y-77580130D01*
X153112448Y-77580128D01*
X153112445Y-77580127D01*
X152947701Y-77526598D01*
X152776611Y-77499500D01*
X152603389Y-77499500D01*
X152432299Y-77526598D01*
X152432296Y-77526598D01*
X152432295Y-77526599D01*
X152353253Y-77552281D01*
X152267555Y-77580127D01*
X152267553Y-77580127D01*
X152267547Y-77580130D01*
X152113211Y-77658768D01*
X151973069Y-77760587D01*
X151850587Y-77883069D01*
X151748768Y-78023211D01*
X151670130Y-78177547D01*
X151670127Y-78177553D01*
X151670127Y-78177555D01*
X151616598Y-78342299D01*
X151589500Y-78513389D01*
X149860500Y-78513389D01*
X149860500Y-78452494D01*
X149821993Y-78160007D01*
X149745639Y-77875048D01*
X149632743Y-77602493D01*
X149632737Y-77602484D01*
X149632736Y-77602480D01*
X149485240Y-77347009D01*
X149485235Y-77347002D01*
X149305653Y-77112966D01*
X149305634Y-77112945D01*
X149097054Y-76904365D01*
X149097033Y-76904346D01*
X148862997Y-76724764D01*
X148862990Y-76724759D01*
X148607519Y-76577263D01*
X148607511Y-76577259D01*
X148607507Y-76577257D01*
X148334952Y-76464361D01*
X148049993Y-76388007D01*
X148049991Y-76388006D01*
X148049985Y-76388005D01*
X147757508Y-76349500D01*
X147757506Y-76349500D01*
X147462494Y-76349500D01*
X147462491Y-76349500D01*
X147170014Y-76388005D01*
X146885048Y-76464361D01*
X146612491Y-76577258D01*
X146612480Y-76577263D01*
X146357009Y-76724759D01*
X146357002Y-76724764D01*
X146122966Y-76904346D01*
X146122945Y-76904365D01*
X145914365Y-77112945D01*
X145914346Y-77112966D01*
X145734764Y-77347002D01*
X145734759Y-77347009D01*
X145587263Y-77602480D01*
X145587258Y-77602491D01*
X145474361Y-77875048D01*
X145398005Y-78160014D01*
X145359500Y-78452491D01*
X143620855Y-78452491D01*
X143603402Y-78342299D01*
X143549873Y-78177555D01*
X143540935Y-78160014D01*
X143471231Y-78023211D01*
X143369412Y-77883069D01*
X143246930Y-77760587D01*
X143106788Y-77658768D01*
X142952452Y-77580130D01*
X142952448Y-77580128D01*
X142952445Y-77580127D01*
X142787701Y-77526598D01*
X142616611Y-77499500D01*
X142443389Y-77499500D01*
X142272299Y-77526598D01*
X142272296Y-77526598D01*
X142272295Y-77526599D01*
X142193253Y-77552281D01*
X142107555Y-77580127D01*
X142107553Y-77580127D01*
X142107547Y-77580130D01*
X141953211Y-77658768D01*
X141813069Y-77760587D01*
X141690587Y-77883069D01*
X141588768Y-78023211D01*
X141510130Y-78177547D01*
X141510127Y-78177553D01*
X141510127Y-78177555D01*
X141456598Y-78342299D01*
X141429500Y-78513389D01*
X134740500Y-78513389D01*
X134713402Y-78342299D01*
X134659873Y-78177555D01*
X134650935Y-78160014D01*
X134581231Y-78023211D01*
X134479412Y-77883069D01*
X134356930Y-77760587D01*
X134216788Y-77658768D01*
X134062452Y-77580130D01*
X134062448Y-77580128D01*
X134062445Y-77580127D01*
X133897701Y-77526598D01*
X133726611Y-77499500D01*
X133553389Y-77499500D01*
X133382299Y-77526598D01*
X133382296Y-77526598D01*
X133382295Y-77526599D01*
X133303253Y-77552281D01*
X133217555Y-77580127D01*
X133217553Y-77580127D01*
X133217547Y-77580130D01*
X133063211Y-77658768D01*
X132923069Y-77760587D01*
X132800587Y-77883069D01*
X132698768Y-78023211D01*
X132620130Y-78177547D01*
X132620127Y-78177553D01*
X132620127Y-78177555D01*
X132566598Y-78342299D01*
X132539500Y-78513389D01*
X130810500Y-78513389D01*
X130810500Y-78452494D01*
X130771993Y-78160007D01*
X130695639Y-77875048D01*
X130582743Y-77602493D01*
X130582737Y-77602484D01*
X130582736Y-77602480D01*
X130435240Y-77347009D01*
X130435235Y-77347002D01*
X130255653Y-77112966D01*
X130255634Y-77112945D01*
X130047054Y-76904365D01*
X130047033Y-76904346D01*
X129812997Y-76724764D01*
X129812990Y-76724759D01*
X129557519Y-76577263D01*
X129557511Y-76577259D01*
X129557507Y-76577257D01*
X129284952Y-76464361D01*
X128999993Y-76388007D01*
X128999991Y-76388006D01*
X128999985Y-76388005D01*
X128707508Y-76349500D01*
X128707506Y-76349500D01*
X128412494Y-76349500D01*
X128412491Y-76349500D01*
X128120014Y-76388005D01*
X127835048Y-76464361D01*
X127562491Y-76577258D01*
X127562480Y-76577263D01*
X127307009Y-76724759D01*
X127307002Y-76724764D01*
X127072966Y-76904346D01*
X127072945Y-76904365D01*
X126864365Y-77112945D01*
X126864346Y-77112966D01*
X126684764Y-77347002D01*
X126684759Y-77347009D01*
X126537263Y-77602480D01*
X126537258Y-77602491D01*
X126424361Y-77875048D01*
X126348005Y-78160014D01*
X126309500Y-78452491D01*
X124570855Y-78452491D01*
X124553402Y-78342299D01*
X124499873Y-78177555D01*
X124490935Y-78160014D01*
X124421231Y-78023211D01*
X124319412Y-77883069D01*
X124196930Y-77760587D01*
X124056788Y-77658768D01*
X123902452Y-77580130D01*
X123902448Y-77580128D01*
X123902445Y-77580127D01*
X123737701Y-77526598D01*
X123566611Y-77499500D01*
X123393389Y-77499500D01*
X123222299Y-77526598D01*
X123222296Y-77526598D01*
X123222295Y-77526599D01*
X123143253Y-77552281D01*
X123057555Y-77580127D01*
X123057553Y-77580127D01*
X123057547Y-77580130D01*
X122903211Y-77658768D01*
X122763069Y-77760587D01*
X122640587Y-77883069D01*
X122538768Y-78023211D01*
X122460130Y-78177547D01*
X122460127Y-78177553D01*
X122460127Y-78177555D01*
X122406598Y-78342299D01*
X122379500Y-78513389D01*
X115690500Y-78513389D01*
X115663402Y-78342299D01*
X115609873Y-78177555D01*
X115600935Y-78160014D01*
X115531231Y-78023211D01*
X115429412Y-77883069D01*
X115306930Y-77760587D01*
X115166788Y-77658768D01*
X115012452Y-77580130D01*
X115012448Y-77580128D01*
X115012445Y-77580127D01*
X114847701Y-77526598D01*
X114676611Y-77499500D01*
X114503389Y-77499500D01*
X114332299Y-77526598D01*
X114332296Y-77526598D01*
X114332295Y-77526599D01*
X114253253Y-77552281D01*
X114167555Y-77580127D01*
X114167553Y-77580127D01*
X114167547Y-77580130D01*
X114013211Y-77658768D01*
X113873069Y-77760587D01*
X113750587Y-77883069D01*
X113648768Y-78023211D01*
X113570130Y-78177547D01*
X113570127Y-78177553D01*
X113570127Y-78177555D01*
X113516598Y-78342299D01*
X113489500Y-78513389D01*
X111760500Y-78513389D01*
X111760500Y-78452494D01*
X111721993Y-78160007D01*
X111645639Y-77875048D01*
X111532743Y-77602493D01*
X111532737Y-77602484D01*
X111532736Y-77602480D01*
X111385240Y-77347009D01*
X111385235Y-77347002D01*
X111205653Y-77112966D01*
X111205634Y-77112945D01*
X110997054Y-76904365D01*
X110997033Y-76904346D01*
X110762997Y-76724764D01*
X110762990Y-76724759D01*
X110507519Y-76577263D01*
X110507511Y-76577259D01*
X110507507Y-76577257D01*
X110234952Y-76464361D01*
X109949993Y-76388007D01*
X109949991Y-76388006D01*
X109949985Y-76388005D01*
X109657508Y-76349500D01*
X109657506Y-76349500D01*
X109362494Y-76349500D01*
X109362491Y-76349500D01*
X109070014Y-76388005D01*
X108785048Y-76464361D01*
X108512491Y-76577258D01*
X108512480Y-76577263D01*
X108257009Y-76724759D01*
X108257002Y-76724764D01*
X108022966Y-76904346D01*
X108022945Y-76904365D01*
X107814365Y-77112945D01*
X107814346Y-77112966D01*
X107634764Y-77347002D01*
X107634759Y-77347009D01*
X107487263Y-77602480D01*
X107487258Y-77602491D01*
X107374361Y-77875048D01*
X107298005Y-78160014D01*
X107259500Y-78452491D01*
X105520855Y-78452491D01*
X105503402Y-78342299D01*
X105449873Y-78177555D01*
X105440935Y-78160014D01*
X105371231Y-78023211D01*
X105269412Y-77883069D01*
X105146930Y-77760587D01*
X105006788Y-77658768D01*
X104852452Y-77580130D01*
X104852448Y-77580128D01*
X104852445Y-77580127D01*
X104687701Y-77526598D01*
X104516611Y-77499500D01*
X104343389Y-77499500D01*
X104172299Y-77526598D01*
X104172296Y-77526598D01*
X104172295Y-77526599D01*
X104093253Y-77552281D01*
X104007555Y-77580127D01*
X104007553Y-77580127D01*
X104007547Y-77580130D01*
X103853211Y-77658768D01*
X103713069Y-77760587D01*
X103590587Y-77883069D01*
X103488768Y-78023211D01*
X103410130Y-78177547D01*
X103410127Y-78177553D01*
X103410127Y-78177555D01*
X103356598Y-78342299D01*
X103329500Y-78513389D01*
X99525500Y-78513389D01*
X99525500Y-76319807D01*
X104135975Y-76319807D01*
X104144350Y-76388007D01*
X104153725Y-76464361D01*
X104157242Y-76492998D01*
X104205332Y-76660711D01*
X104279070Y-76818843D01*
X104376639Y-76963496D01*
X104376645Y-76963503D01*
X104495633Y-77091105D01*
X104495637Y-77091108D01*
X104633132Y-77198530D01*
X104785736Y-77283120D01*
X104949696Y-77342797D01*
X105120971Y-77376089D01*
X105270984Y-77381328D01*
X105295344Y-77382179D01*
X105295344Y-77382178D01*
X105295348Y-77382179D01*
X105468529Y-77360914D01*
X105552390Y-77336867D01*
X105636245Y-77312823D01*
X105636246Y-77312822D01*
X105636251Y-77312821D01*
X106700693Y-76816464D01*
X106845345Y-76718895D01*
X106972953Y-76599900D01*
X107080375Y-76462405D01*
X107159419Y-76319807D01*
X123185975Y-76319807D01*
X123194350Y-76388007D01*
X123203725Y-76464361D01*
X123207242Y-76492998D01*
X123255332Y-76660711D01*
X123329070Y-76818843D01*
X123426639Y-76963496D01*
X123426645Y-76963503D01*
X123545633Y-77091105D01*
X123545637Y-77091108D01*
X123683132Y-77198530D01*
X123835736Y-77283120D01*
X123999696Y-77342797D01*
X124170971Y-77376089D01*
X124320984Y-77381328D01*
X124345344Y-77382179D01*
X124345344Y-77382178D01*
X124345348Y-77382179D01*
X124518529Y-77360914D01*
X124602390Y-77336867D01*
X124686245Y-77312823D01*
X124686246Y-77312822D01*
X124686251Y-77312821D01*
X125750693Y-76816464D01*
X125895345Y-76718895D01*
X126022953Y-76599900D01*
X126130375Y-76462405D01*
X126209419Y-76319807D01*
X142235975Y-76319807D01*
X142244350Y-76388007D01*
X142253725Y-76464361D01*
X142257242Y-76492998D01*
X142305332Y-76660711D01*
X142379070Y-76818843D01*
X142476639Y-76963496D01*
X142476645Y-76963503D01*
X142595633Y-77091105D01*
X142595637Y-77091108D01*
X142733132Y-77198530D01*
X142885736Y-77283120D01*
X143049696Y-77342797D01*
X143220971Y-77376089D01*
X143370984Y-77381328D01*
X143395344Y-77382179D01*
X143395344Y-77382178D01*
X143395348Y-77382179D01*
X143568529Y-77360914D01*
X143652390Y-77336867D01*
X143736245Y-77312823D01*
X143736246Y-77312822D01*
X143736251Y-77312821D01*
X144800693Y-76816464D01*
X144945345Y-76718895D01*
X145072953Y-76599900D01*
X145180375Y-76462405D01*
X145259419Y-76319807D01*
X161285975Y-76319807D01*
X161294350Y-76388007D01*
X161303725Y-76464361D01*
X161307242Y-76492998D01*
X161355332Y-76660711D01*
X161429070Y-76818843D01*
X161526639Y-76963496D01*
X161526645Y-76963503D01*
X161645633Y-77091105D01*
X161645637Y-77091108D01*
X161783132Y-77198530D01*
X161935736Y-77283120D01*
X162099696Y-77342797D01*
X162270971Y-77376089D01*
X162420984Y-77381328D01*
X162445344Y-77382179D01*
X162445344Y-77382178D01*
X162445348Y-77382179D01*
X162618529Y-77360914D01*
X162702390Y-77336867D01*
X162786245Y-77312823D01*
X162786246Y-77312822D01*
X162786251Y-77312821D01*
X163850693Y-76816464D01*
X163995345Y-76718895D01*
X164122953Y-76599900D01*
X164230375Y-76462405D01*
X164314965Y-76309801D01*
X164374642Y-76145841D01*
X164407934Y-75974566D01*
X164414024Y-75800189D01*
X164392759Y-75627008D01*
X164344666Y-75459286D01*
X164270931Y-75301159D01*
X164270928Y-75301155D01*
X164270927Y-75301152D01*
X164173358Y-75156500D01*
X164054362Y-75028892D01*
X164054360Y-75028890D01*
X164054359Y-75028889D01*
X163971865Y-74964438D01*
X163916868Y-74921470D01*
X163916866Y-74921469D01*
X163916865Y-74921468D01*
X163801453Y-74857494D01*
X163764264Y-74836880D01*
X163764263Y-74836879D01*
X163764262Y-74836879D01*
X163600305Y-74777203D01*
X163429031Y-74743911D01*
X163429032Y-74743911D01*
X163254655Y-74737820D01*
X163112972Y-74755217D01*
X163081471Y-74759086D01*
X163081470Y-74759086D01*
X163081464Y-74759087D01*
X162913754Y-74807176D01*
X161849309Y-75303534D01*
X161704658Y-75401102D01*
X161704651Y-75401108D01*
X161577049Y-75520096D01*
X161469622Y-75657599D01*
X161385034Y-75810200D01*
X161325358Y-75974157D01*
X161292066Y-76145430D01*
X161285975Y-76319807D01*
X145259419Y-76319807D01*
X145264965Y-76309801D01*
X145324642Y-76145841D01*
X145357934Y-75974566D01*
X145364024Y-75800189D01*
X145342759Y-75627008D01*
X145294666Y-75459286D01*
X145220931Y-75301159D01*
X145220928Y-75301155D01*
X145220927Y-75301152D01*
X145123358Y-75156500D01*
X145004362Y-75028892D01*
X145004360Y-75028890D01*
X145004359Y-75028889D01*
X144921865Y-74964438D01*
X144866868Y-74921470D01*
X144866866Y-74921469D01*
X144866865Y-74921468D01*
X144751453Y-74857494D01*
X144714264Y-74836880D01*
X144714263Y-74836879D01*
X144714262Y-74836879D01*
X144550305Y-74777203D01*
X144379031Y-74743911D01*
X144379032Y-74743911D01*
X144204655Y-74737820D01*
X144062972Y-74755217D01*
X144031471Y-74759086D01*
X144031470Y-74759086D01*
X144031464Y-74759087D01*
X143863754Y-74807176D01*
X142799309Y-75303534D01*
X142654658Y-75401102D01*
X142654651Y-75401108D01*
X142527049Y-75520096D01*
X142419622Y-75657599D01*
X142335034Y-75810200D01*
X142275358Y-75974157D01*
X142242066Y-76145430D01*
X142235975Y-76319807D01*
X126209419Y-76319807D01*
X126214965Y-76309801D01*
X126274642Y-76145841D01*
X126307934Y-75974566D01*
X126314024Y-75800189D01*
X126292759Y-75627008D01*
X126244666Y-75459286D01*
X126170931Y-75301159D01*
X126170928Y-75301155D01*
X126170927Y-75301152D01*
X126073358Y-75156500D01*
X125954362Y-75028892D01*
X125954360Y-75028890D01*
X125954359Y-75028889D01*
X125871865Y-74964438D01*
X125816868Y-74921470D01*
X125816866Y-74921469D01*
X125816865Y-74921468D01*
X125701453Y-74857494D01*
X125664264Y-74836880D01*
X125664263Y-74836879D01*
X125664262Y-74836879D01*
X125500305Y-74777203D01*
X125329031Y-74743911D01*
X125329032Y-74743911D01*
X125154655Y-74737820D01*
X125012972Y-74755217D01*
X124981471Y-74759086D01*
X124981470Y-74759086D01*
X124981464Y-74759087D01*
X124813754Y-74807176D01*
X123749309Y-75303534D01*
X123604658Y-75401102D01*
X123604651Y-75401108D01*
X123477049Y-75520096D01*
X123369622Y-75657599D01*
X123285034Y-75810200D01*
X123225358Y-75974157D01*
X123192066Y-76145430D01*
X123185975Y-76319807D01*
X107159419Y-76319807D01*
X107164965Y-76309801D01*
X107224642Y-76145841D01*
X107257934Y-75974566D01*
X107264024Y-75800189D01*
X107242759Y-75627008D01*
X107194666Y-75459286D01*
X107120931Y-75301159D01*
X107120928Y-75301155D01*
X107120927Y-75301152D01*
X107023358Y-75156500D01*
X106904362Y-75028892D01*
X106904360Y-75028890D01*
X106904359Y-75028889D01*
X106821865Y-74964438D01*
X106766868Y-74921470D01*
X106766866Y-74921469D01*
X106766865Y-74921468D01*
X106651453Y-74857494D01*
X106614264Y-74836880D01*
X106614263Y-74836879D01*
X106614262Y-74836879D01*
X106450305Y-74777203D01*
X106279031Y-74743911D01*
X106279032Y-74743911D01*
X106104655Y-74737820D01*
X105962972Y-74755217D01*
X105931471Y-74759086D01*
X105931470Y-74759086D01*
X105931464Y-74759087D01*
X105763754Y-74807176D01*
X104699309Y-75303534D01*
X104554658Y-75401102D01*
X104554651Y-75401108D01*
X104427049Y-75520096D01*
X104319622Y-75657599D01*
X104235034Y-75810200D01*
X104175358Y-75974157D01*
X104142066Y-76145430D01*
X104135975Y-76319807D01*
X99525500Y-76319807D01*
X99525500Y-73260192D01*
X110485975Y-73260192D01*
X110492066Y-73434569D01*
X110525278Y-73605430D01*
X110525358Y-73605841D01*
X110585035Y-73769801D01*
X110669625Y-73922405D01*
X110693527Y-73952998D01*
X110777049Y-74059903D01*
X110880130Y-74156025D01*
X110904655Y-74178895D01*
X111049307Y-74276464D01*
X111049308Y-74276464D01*
X111049309Y-74276465D01*
X111075659Y-74288752D01*
X112113749Y-74772821D01*
X112113750Y-74772821D01*
X112113754Y-74772823D01*
X112281464Y-74820912D01*
X112281471Y-74820914D01*
X112454652Y-74842179D01*
X112629029Y-74836089D01*
X112800304Y-74802797D01*
X112964264Y-74743120D01*
X113116868Y-74658530D01*
X113254362Y-74551108D01*
X113373358Y-74423500D01*
X113433699Y-74334041D01*
X113488374Y-74288752D01*
X113538157Y-74278500D01*
X130075739Y-74278500D01*
X130128988Y-74290304D01*
X131163749Y-74772821D01*
X131163750Y-74772821D01*
X131163754Y-74772823D01*
X131331464Y-74820912D01*
X131331471Y-74820914D01*
X131504652Y-74842179D01*
X131679029Y-74836089D01*
X131850304Y-74802797D01*
X132014264Y-74743120D01*
X132166868Y-74658530D01*
X132304362Y-74551108D01*
X132423358Y-74423500D01*
X132483699Y-74334041D01*
X132538374Y-74288752D01*
X132588157Y-74278500D01*
X149125739Y-74278500D01*
X149178988Y-74290304D01*
X150213749Y-74772821D01*
X150213750Y-74772821D01*
X150213754Y-74772823D01*
X150381464Y-74820912D01*
X150381471Y-74820914D01*
X150554652Y-74842179D01*
X150729029Y-74836089D01*
X150900304Y-74802797D01*
X151064264Y-74743120D01*
X151216868Y-74658530D01*
X151354362Y-74551108D01*
X151473358Y-74423500D01*
X151533699Y-74334041D01*
X151588374Y-74288752D01*
X151638157Y-74278500D01*
X168175739Y-74278500D01*
X168228988Y-74290304D01*
X169263749Y-74772821D01*
X169263750Y-74772821D01*
X169263754Y-74772823D01*
X169431464Y-74820912D01*
X169431471Y-74820914D01*
X169604652Y-74842179D01*
X169779029Y-74836089D01*
X169950304Y-74802797D01*
X170114264Y-74743120D01*
X170266868Y-74658530D01*
X170404362Y-74551108D01*
X170523358Y-74423500D01*
X170620927Y-74278848D01*
X170621090Y-74278500D01*
X170694667Y-74120711D01*
X170742757Y-73952998D01*
X170742759Y-73952992D01*
X170764024Y-73779811D01*
X170757934Y-73605434D01*
X170724642Y-73434159D01*
X170664965Y-73270199D01*
X170580375Y-73117595D01*
X170472953Y-72980100D01*
X170472950Y-72980096D01*
X170345348Y-72861108D01*
X170345345Y-72861105D01*
X170200693Y-72763536D01*
X170200692Y-72763535D01*
X170200690Y-72763534D01*
X169136245Y-72267176D01*
X168968535Y-72219087D01*
X168968530Y-72219086D01*
X168968529Y-72219086D01*
X168898315Y-72210464D01*
X168795343Y-72197820D01*
X168620967Y-72203911D01*
X168449694Y-72237203D01*
X168285737Y-72296879D01*
X168133136Y-72381467D01*
X167995633Y-72488894D01*
X167876645Y-72616496D01*
X167876639Y-72616502D01*
X167816302Y-72705958D01*
X167761627Y-72751248D01*
X167711843Y-72761500D01*
X151174261Y-72761500D01*
X151121011Y-72749695D01*
X150086245Y-72267176D01*
X149918535Y-72219087D01*
X149918530Y-72219086D01*
X149918529Y-72219086D01*
X149848315Y-72210464D01*
X149745343Y-72197820D01*
X149570967Y-72203911D01*
X149399694Y-72237203D01*
X149235737Y-72296879D01*
X149083136Y-72381467D01*
X148945633Y-72488894D01*
X148826645Y-72616496D01*
X148826639Y-72616502D01*
X148766302Y-72705958D01*
X148711627Y-72751248D01*
X148661843Y-72761500D01*
X132124261Y-72761500D01*
X132071011Y-72749695D01*
X131036245Y-72267176D01*
X130868535Y-72219087D01*
X130868530Y-72219086D01*
X130868529Y-72219086D01*
X130798315Y-72210464D01*
X130695343Y-72197820D01*
X130520967Y-72203911D01*
X130349694Y-72237203D01*
X130185737Y-72296879D01*
X130033136Y-72381467D01*
X129895633Y-72488894D01*
X129776645Y-72616496D01*
X129776639Y-72616502D01*
X129716302Y-72705958D01*
X129661627Y-72751248D01*
X129611843Y-72761500D01*
X113074261Y-72761500D01*
X113021011Y-72749695D01*
X111986245Y-72267176D01*
X111818535Y-72219087D01*
X111818530Y-72219086D01*
X111818529Y-72219086D01*
X111748315Y-72210464D01*
X111645343Y-72197820D01*
X111470967Y-72203911D01*
X111299694Y-72237203D01*
X111135737Y-72296879D01*
X110983136Y-72381467D01*
X110845633Y-72488894D01*
X110726645Y-72616496D01*
X110726639Y-72616503D01*
X110629070Y-72761156D01*
X110555332Y-72919288D01*
X110507242Y-73087001D01*
X110485975Y-73260192D01*
X99525500Y-73260192D01*
X99525500Y-59463389D01*
X103329500Y-59463389D01*
X103329500Y-59636611D01*
X103356598Y-59807701D01*
X103410127Y-59972445D01*
X103410128Y-59972448D01*
X103410130Y-59972452D01*
X103488768Y-60126788D01*
X103590587Y-60266930D01*
X103713069Y-60389412D01*
X103713072Y-60389414D01*
X103853212Y-60491232D01*
X104007555Y-60569873D01*
X104172299Y-60623402D01*
X104343389Y-60650500D01*
X104343392Y-60650500D01*
X104516608Y-60650500D01*
X104516611Y-60650500D01*
X104687701Y-60623402D01*
X104852445Y-60569873D01*
X105006788Y-60491232D01*
X105146928Y-60389414D01*
X105269414Y-60266928D01*
X105371232Y-60126788D01*
X105449873Y-59972445D01*
X105503402Y-59807701D01*
X105530500Y-59636611D01*
X105530500Y-59463389D01*
X105520855Y-59402491D01*
X107259500Y-59402491D01*
X107259500Y-59697508D01*
X107298005Y-59989985D01*
X107298006Y-59989991D01*
X107298007Y-59989993D01*
X107374361Y-60274952D01*
X107487257Y-60547507D01*
X107487258Y-60547508D01*
X107487263Y-60547519D01*
X107634759Y-60802990D01*
X107634764Y-60802997D01*
X107814346Y-61037033D01*
X107814365Y-61037054D01*
X108022945Y-61245634D01*
X108022966Y-61245653D01*
X108257002Y-61425235D01*
X108257009Y-61425240D01*
X108512480Y-61572736D01*
X108512484Y-61572737D01*
X108512493Y-61572743D01*
X108785048Y-61685639D01*
X109070007Y-61761993D01*
X109070013Y-61761993D01*
X109070014Y-61761994D01*
X109103574Y-61766412D01*
X109362494Y-61800500D01*
X109362501Y-61800500D01*
X109657499Y-61800500D01*
X109657506Y-61800500D01*
X109949993Y-61761993D01*
X110234952Y-61685639D01*
X110507507Y-61572743D01*
X110762994Y-61425238D01*
X110997042Y-61245646D01*
X111205646Y-61037042D01*
X111385238Y-60802994D01*
X111532743Y-60547507D01*
X111645639Y-60274952D01*
X111721993Y-59989993D01*
X111760500Y-59697506D01*
X111760500Y-59463389D01*
X113489500Y-59463389D01*
X113489500Y-59636611D01*
X113516598Y-59807701D01*
X113570127Y-59972445D01*
X113570128Y-59972448D01*
X113570130Y-59972452D01*
X113648768Y-60126788D01*
X113750587Y-60266930D01*
X113873069Y-60389412D01*
X113873072Y-60389414D01*
X114013212Y-60491232D01*
X114167555Y-60569873D01*
X114332299Y-60623402D01*
X114503389Y-60650500D01*
X114503392Y-60650500D01*
X114676608Y-60650500D01*
X114676611Y-60650500D01*
X114847701Y-60623402D01*
X115012445Y-60569873D01*
X115166788Y-60491232D01*
X115306928Y-60389414D01*
X115429414Y-60266928D01*
X115531232Y-60126788D01*
X115609873Y-59972445D01*
X115663402Y-59807701D01*
X115690500Y-59636611D01*
X115690500Y-59463389D01*
X122379500Y-59463389D01*
X122379500Y-59636611D01*
X122406598Y-59807701D01*
X122460127Y-59972445D01*
X122460128Y-59972448D01*
X122460130Y-59972452D01*
X122538768Y-60126788D01*
X122640587Y-60266930D01*
X122763069Y-60389412D01*
X122763072Y-60389414D01*
X122903212Y-60491232D01*
X123057555Y-60569873D01*
X123222299Y-60623402D01*
X123393389Y-60650500D01*
X123393392Y-60650500D01*
X123566608Y-60650500D01*
X123566611Y-60650500D01*
X123737701Y-60623402D01*
X123902445Y-60569873D01*
X124056788Y-60491232D01*
X124196928Y-60389414D01*
X124319414Y-60266928D01*
X124421232Y-60126788D01*
X124499873Y-59972445D01*
X124553402Y-59807701D01*
X124580500Y-59636611D01*
X124580500Y-59463389D01*
X124570855Y-59402491D01*
X126309500Y-59402491D01*
X126309500Y-59697508D01*
X126348005Y-59989985D01*
X126348006Y-59989991D01*
X126348007Y-59989993D01*
X126424361Y-60274952D01*
X126537257Y-60547507D01*
X126537258Y-60547508D01*
X126537263Y-60547519D01*
X126684759Y-60802990D01*
X126684764Y-60802997D01*
X126864346Y-61037033D01*
X126864365Y-61037054D01*
X127072945Y-61245634D01*
X127072966Y-61245653D01*
X127307002Y-61425235D01*
X127307009Y-61425240D01*
X127562480Y-61572736D01*
X127562484Y-61572737D01*
X127562493Y-61572743D01*
X127835048Y-61685639D01*
X128120007Y-61761993D01*
X128120013Y-61761993D01*
X128120014Y-61761994D01*
X128153574Y-61766412D01*
X128412494Y-61800500D01*
X128412501Y-61800500D01*
X128707499Y-61800500D01*
X128707506Y-61800500D01*
X128999993Y-61761993D01*
X129284952Y-61685639D01*
X129557507Y-61572743D01*
X129812994Y-61425238D01*
X130047042Y-61245646D01*
X130255646Y-61037042D01*
X130435238Y-60802994D01*
X130582743Y-60547507D01*
X130695639Y-60274952D01*
X130771993Y-59989993D01*
X130810500Y-59697506D01*
X130810500Y-59463389D01*
X132539500Y-59463389D01*
X132539500Y-59636611D01*
X132566598Y-59807701D01*
X132620127Y-59972445D01*
X132620128Y-59972448D01*
X132620130Y-59972452D01*
X132698768Y-60126788D01*
X132800587Y-60266930D01*
X132923069Y-60389412D01*
X132923072Y-60389414D01*
X133063212Y-60491232D01*
X133217555Y-60569873D01*
X133382299Y-60623402D01*
X133553389Y-60650500D01*
X133553392Y-60650500D01*
X133726608Y-60650500D01*
X133726611Y-60650500D01*
X133897701Y-60623402D01*
X134062445Y-60569873D01*
X134216788Y-60491232D01*
X134356928Y-60389414D01*
X134479414Y-60266928D01*
X134581232Y-60126788D01*
X134659873Y-59972445D01*
X134713402Y-59807701D01*
X134740500Y-59636611D01*
X134740500Y-59463389D01*
X141429500Y-59463389D01*
X141429500Y-59636611D01*
X141456598Y-59807701D01*
X141510127Y-59972445D01*
X141510128Y-59972448D01*
X141510130Y-59972452D01*
X141588768Y-60126788D01*
X141690587Y-60266930D01*
X141813069Y-60389412D01*
X141813072Y-60389414D01*
X141953212Y-60491232D01*
X142107555Y-60569873D01*
X142272299Y-60623402D01*
X142443389Y-60650500D01*
X142443392Y-60650500D01*
X142616608Y-60650500D01*
X142616611Y-60650500D01*
X142787701Y-60623402D01*
X142952445Y-60569873D01*
X143106788Y-60491232D01*
X143246928Y-60389414D01*
X143369414Y-60266928D01*
X143471232Y-60126788D01*
X143549873Y-59972445D01*
X143603402Y-59807701D01*
X143630500Y-59636611D01*
X143630500Y-59463389D01*
X143620855Y-59402491D01*
X145359500Y-59402491D01*
X145359500Y-59697508D01*
X145398005Y-59989985D01*
X145398006Y-59989991D01*
X145398007Y-59989993D01*
X145474361Y-60274952D01*
X145587257Y-60547507D01*
X145587258Y-60547508D01*
X145587263Y-60547519D01*
X145734759Y-60802990D01*
X145734764Y-60802997D01*
X145914346Y-61037033D01*
X145914365Y-61037054D01*
X146122945Y-61245634D01*
X146122966Y-61245653D01*
X146357002Y-61425235D01*
X146357009Y-61425240D01*
X146612480Y-61572736D01*
X146612484Y-61572737D01*
X146612493Y-61572743D01*
X146885048Y-61685639D01*
X147170007Y-61761993D01*
X147170013Y-61761993D01*
X147170014Y-61761994D01*
X147203574Y-61766412D01*
X147462494Y-61800500D01*
X147462501Y-61800500D01*
X147757499Y-61800500D01*
X147757506Y-61800500D01*
X148049993Y-61761993D01*
X148334952Y-61685639D01*
X148607507Y-61572743D01*
X148862994Y-61425238D01*
X149097042Y-61245646D01*
X149305646Y-61037042D01*
X149485238Y-60802994D01*
X149632743Y-60547507D01*
X149745639Y-60274952D01*
X149821993Y-59989993D01*
X149860500Y-59697506D01*
X149860500Y-59463389D01*
X151589500Y-59463389D01*
X151589500Y-59636611D01*
X151616598Y-59807701D01*
X151670127Y-59972445D01*
X151670128Y-59972448D01*
X151670130Y-59972452D01*
X151748768Y-60126788D01*
X151850587Y-60266930D01*
X151973069Y-60389412D01*
X151973072Y-60389414D01*
X152113212Y-60491232D01*
X152267555Y-60569873D01*
X152432299Y-60623402D01*
X152603389Y-60650500D01*
X152603392Y-60650500D01*
X152776608Y-60650500D01*
X152776611Y-60650500D01*
X152947701Y-60623402D01*
X153112445Y-60569873D01*
X153266788Y-60491232D01*
X153406928Y-60389414D01*
X153529414Y-60266928D01*
X153631232Y-60126788D01*
X153709873Y-59972445D01*
X153763402Y-59807701D01*
X153790500Y-59636611D01*
X153790500Y-59463389D01*
X160479500Y-59463389D01*
X160479500Y-59636611D01*
X160506598Y-59807701D01*
X160560127Y-59972445D01*
X160560128Y-59972448D01*
X160560130Y-59972452D01*
X160638768Y-60126788D01*
X160740587Y-60266930D01*
X160863069Y-60389412D01*
X160863072Y-60389414D01*
X161003212Y-60491232D01*
X161157555Y-60569873D01*
X161322299Y-60623402D01*
X161493389Y-60650500D01*
X161493392Y-60650500D01*
X161666608Y-60650500D01*
X161666611Y-60650500D01*
X161837701Y-60623402D01*
X162002445Y-60569873D01*
X162156788Y-60491232D01*
X162296928Y-60389414D01*
X162419414Y-60266928D01*
X162521232Y-60126788D01*
X162599873Y-59972445D01*
X162653402Y-59807701D01*
X162680500Y-59636611D01*
X162680500Y-59463389D01*
X162670855Y-59402491D01*
X164409500Y-59402491D01*
X164409500Y-59697508D01*
X164448005Y-59989985D01*
X164448006Y-59989991D01*
X164448007Y-59989993D01*
X164524361Y-60274952D01*
X164637257Y-60547507D01*
X164637258Y-60547508D01*
X164637263Y-60547519D01*
X164784759Y-60802990D01*
X164784764Y-60802997D01*
X164964346Y-61037033D01*
X164964365Y-61037054D01*
X165172945Y-61245634D01*
X165172966Y-61245653D01*
X165407002Y-61425235D01*
X165407009Y-61425240D01*
X165662480Y-61572736D01*
X165662484Y-61572737D01*
X165662493Y-61572743D01*
X165935048Y-61685639D01*
X166220007Y-61761993D01*
X166220013Y-61761993D01*
X166220014Y-61761994D01*
X166253574Y-61766412D01*
X166512494Y-61800500D01*
X166512501Y-61800500D01*
X166807499Y-61800500D01*
X166807506Y-61800500D01*
X167099993Y-61761993D01*
X167384952Y-61685639D01*
X167657507Y-61572743D01*
X167912994Y-61425238D01*
X168147042Y-61245646D01*
X168355646Y-61037042D01*
X168535238Y-60802994D01*
X168682743Y-60547507D01*
X168795639Y-60274952D01*
X168871993Y-59989993D01*
X168910500Y-59697506D01*
X168910500Y-59463389D01*
X170639500Y-59463389D01*
X170639500Y-59636611D01*
X170666598Y-59807701D01*
X170720127Y-59972445D01*
X170720128Y-59972448D01*
X170720130Y-59972452D01*
X170798768Y-60126788D01*
X170900587Y-60266930D01*
X171023069Y-60389412D01*
X171023072Y-60389414D01*
X171163212Y-60491232D01*
X171317555Y-60569873D01*
X171482299Y-60623402D01*
X171653389Y-60650500D01*
X171653392Y-60650500D01*
X171826608Y-60650500D01*
X171826611Y-60650500D01*
X171997701Y-60623402D01*
X172162445Y-60569873D01*
X172316788Y-60491232D01*
X172456928Y-60389414D01*
X172579414Y-60266928D01*
X172681232Y-60126788D01*
X172759873Y-59972445D01*
X172813402Y-59807701D01*
X172840500Y-59636611D01*
X172840500Y-59463389D01*
X172813402Y-59292299D01*
X172759873Y-59127555D01*
X172750935Y-59110014D01*
X172681231Y-58973211D01*
X172579412Y-58833069D01*
X172456930Y-58710587D01*
X172316788Y-58608768D01*
X172162452Y-58530130D01*
X172162448Y-58530128D01*
X172162445Y-58530127D01*
X171997701Y-58476598D01*
X171826611Y-58449500D01*
X171653389Y-58449500D01*
X171482299Y-58476598D01*
X171482296Y-58476598D01*
X171482295Y-58476599D01*
X171403253Y-58502281D01*
X171317555Y-58530127D01*
X171317553Y-58530127D01*
X171317547Y-58530130D01*
X171163211Y-58608768D01*
X171023069Y-58710587D01*
X170900587Y-58833069D01*
X170798768Y-58973211D01*
X170720130Y-59127547D01*
X170720127Y-59127553D01*
X170720127Y-59127555D01*
X170666598Y-59292299D01*
X170639500Y-59463389D01*
X168910500Y-59463389D01*
X168910500Y-59402494D01*
X168871993Y-59110007D01*
X168795639Y-58825048D01*
X168682743Y-58552493D01*
X168682737Y-58552484D01*
X168682736Y-58552480D01*
X168535240Y-58297009D01*
X168535235Y-58297002D01*
X168355653Y-58062966D01*
X168355634Y-58062945D01*
X168147054Y-57854365D01*
X168147033Y-57854346D01*
X167912997Y-57674764D01*
X167912990Y-57674759D01*
X167657519Y-57527263D01*
X167657511Y-57527259D01*
X167657507Y-57527257D01*
X167384952Y-57414361D01*
X167099993Y-57338007D01*
X167099991Y-57338006D01*
X167099985Y-57338005D01*
X166807508Y-57299500D01*
X166807506Y-57299500D01*
X166512494Y-57299500D01*
X166512491Y-57299500D01*
X166220014Y-57338005D01*
X165935048Y-57414361D01*
X165662491Y-57527258D01*
X165662480Y-57527263D01*
X165407009Y-57674759D01*
X165407002Y-57674764D01*
X165172966Y-57854346D01*
X165172945Y-57854365D01*
X164964365Y-58062945D01*
X164964346Y-58062966D01*
X164784764Y-58297002D01*
X164784759Y-58297009D01*
X164637263Y-58552480D01*
X164637258Y-58552491D01*
X164524361Y-58825048D01*
X164448005Y-59110014D01*
X164409500Y-59402491D01*
X162670855Y-59402491D01*
X162653402Y-59292299D01*
X162599873Y-59127555D01*
X162590935Y-59110014D01*
X162521231Y-58973211D01*
X162419412Y-58833069D01*
X162296930Y-58710587D01*
X162156788Y-58608768D01*
X162002452Y-58530130D01*
X162002448Y-58530128D01*
X162002445Y-58530127D01*
X161837701Y-58476598D01*
X161666611Y-58449500D01*
X161493389Y-58449500D01*
X161322299Y-58476598D01*
X161322296Y-58476598D01*
X161322295Y-58476599D01*
X161243253Y-58502281D01*
X161157555Y-58530127D01*
X161157553Y-58530127D01*
X161157547Y-58530130D01*
X161003211Y-58608768D01*
X160863069Y-58710587D01*
X160740587Y-58833069D01*
X160638768Y-58973211D01*
X160560130Y-59127547D01*
X160560127Y-59127553D01*
X160560127Y-59127555D01*
X160506598Y-59292299D01*
X160479500Y-59463389D01*
X153790500Y-59463389D01*
X153763402Y-59292299D01*
X153709873Y-59127555D01*
X153700935Y-59110014D01*
X153631231Y-58973211D01*
X153529412Y-58833069D01*
X153406930Y-58710587D01*
X153266788Y-58608768D01*
X153112452Y-58530130D01*
X153112448Y-58530128D01*
X153112445Y-58530127D01*
X152947701Y-58476598D01*
X152776611Y-58449500D01*
X152603389Y-58449500D01*
X152432299Y-58476598D01*
X152432296Y-58476598D01*
X152432295Y-58476599D01*
X152353253Y-58502281D01*
X152267555Y-58530127D01*
X152267553Y-58530127D01*
X152267547Y-58530130D01*
X152113211Y-58608768D01*
X151973069Y-58710587D01*
X151850587Y-58833069D01*
X151748768Y-58973211D01*
X151670130Y-59127547D01*
X151670127Y-59127553D01*
X151670127Y-59127555D01*
X151616598Y-59292299D01*
X151589500Y-59463389D01*
X149860500Y-59463389D01*
X149860500Y-59402494D01*
X149821993Y-59110007D01*
X149745639Y-58825048D01*
X149632743Y-58552493D01*
X149632737Y-58552484D01*
X149632736Y-58552480D01*
X149485240Y-58297009D01*
X149485235Y-58297002D01*
X149305653Y-58062966D01*
X149305634Y-58062945D01*
X149097054Y-57854365D01*
X149097033Y-57854346D01*
X148862997Y-57674764D01*
X148862990Y-57674759D01*
X148607519Y-57527263D01*
X148607511Y-57527259D01*
X148607507Y-57527257D01*
X148334952Y-57414361D01*
X148049993Y-57338007D01*
X148049991Y-57338006D01*
X148049985Y-57338005D01*
X147757508Y-57299500D01*
X147757506Y-57299500D01*
X147462494Y-57299500D01*
X147462491Y-57299500D01*
X147170014Y-57338005D01*
X146885048Y-57414361D01*
X146612491Y-57527258D01*
X146612480Y-57527263D01*
X146357009Y-57674759D01*
X146357002Y-57674764D01*
X146122966Y-57854346D01*
X146122945Y-57854365D01*
X145914365Y-58062945D01*
X145914346Y-58062966D01*
X145734764Y-58297002D01*
X145734759Y-58297009D01*
X145587263Y-58552480D01*
X145587258Y-58552491D01*
X145474361Y-58825048D01*
X145398005Y-59110014D01*
X145359500Y-59402491D01*
X143620855Y-59402491D01*
X143603402Y-59292299D01*
X143549873Y-59127555D01*
X143540935Y-59110014D01*
X143471231Y-58973211D01*
X143369412Y-58833069D01*
X143246930Y-58710587D01*
X143106788Y-58608768D01*
X142952452Y-58530130D01*
X142952448Y-58530128D01*
X142952445Y-58530127D01*
X142787701Y-58476598D01*
X142616611Y-58449500D01*
X142443389Y-58449500D01*
X142272299Y-58476598D01*
X142272296Y-58476598D01*
X142272295Y-58476599D01*
X142193253Y-58502281D01*
X142107555Y-58530127D01*
X142107553Y-58530127D01*
X142107547Y-58530130D01*
X141953211Y-58608768D01*
X141813069Y-58710587D01*
X141690587Y-58833069D01*
X141588768Y-58973211D01*
X141510130Y-59127547D01*
X141510127Y-59127553D01*
X141510127Y-59127555D01*
X141456598Y-59292299D01*
X141429500Y-59463389D01*
X134740500Y-59463389D01*
X134713402Y-59292299D01*
X134659873Y-59127555D01*
X134650935Y-59110014D01*
X134581231Y-58973211D01*
X134479412Y-58833069D01*
X134356930Y-58710587D01*
X134216788Y-58608768D01*
X134062452Y-58530130D01*
X134062448Y-58530128D01*
X134062445Y-58530127D01*
X133897701Y-58476598D01*
X133726611Y-58449500D01*
X133553389Y-58449500D01*
X133382299Y-58476598D01*
X133382296Y-58476598D01*
X133382295Y-58476599D01*
X133303253Y-58502281D01*
X133217555Y-58530127D01*
X133217553Y-58530127D01*
X133217547Y-58530130D01*
X133063211Y-58608768D01*
X132923069Y-58710587D01*
X132800587Y-58833069D01*
X132698768Y-58973211D01*
X132620130Y-59127547D01*
X132620127Y-59127553D01*
X132620127Y-59127555D01*
X132566598Y-59292299D01*
X132539500Y-59463389D01*
X130810500Y-59463389D01*
X130810500Y-59402494D01*
X130771993Y-59110007D01*
X130695639Y-58825048D01*
X130582743Y-58552493D01*
X130582737Y-58552484D01*
X130582736Y-58552480D01*
X130435240Y-58297009D01*
X130435235Y-58297002D01*
X130255653Y-58062966D01*
X130255634Y-58062945D01*
X130047054Y-57854365D01*
X130047033Y-57854346D01*
X129812997Y-57674764D01*
X129812990Y-57674759D01*
X129557519Y-57527263D01*
X129557511Y-57527259D01*
X129557507Y-57527257D01*
X129284952Y-57414361D01*
X128999993Y-57338007D01*
X128999991Y-57338006D01*
X128999985Y-57338005D01*
X128707508Y-57299500D01*
X128707506Y-57299500D01*
X128412494Y-57299500D01*
X128412491Y-57299500D01*
X128120014Y-57338005D01*
X127835048Y-57414361D01*
X127562491Y-57527258D01*
X127562480Y-57527263D01*
X127307009Y-57674759D01*
X127307002Y-57674764D01*
X127072966Y-57854346D01*
X127072945Y-57854365D01*
X126864365Y-58062945D01*
X126864346Y-58062966D01*
X126684764Y-58297002D01*
X126684759Y-58297009D01*
X126537263Y-58552480D01*
X126537258Y-58552491D01*
X126424361Y-58825048D01*
X126348005Y-59110014D01*
X126309500Y-59402491D01*
X124570855Y-59402491D01*
X124553402Y-59292299D01*
X124499873Y-59127555D01*
X124490935Y-59110014D01*
X124421231Y-58973211D01*
X124319412Y-58833069D01*
X124196930Y-58710587D01*
X124056788Y-58608768D01*
X123902452Y-58530130D01*
X123902448Y-58530128D01*
X123902445Y-58530127D01*
X123737701Y-58476598D01*
X123566611Y-58449500D01*
X123393389Y-58449500D01*
X123222299Y-58476598D01*
X123222296Y-58476598D01*
X123222295Y-58476599D01*
X123143253Y-58502281D01*
X123057555Y-58530127D01*
X123057553Y-58530127D01*
X123057547Y-58530130D01*
X122903211Y-58608768D01*
X122763069Y-58710587D01*
X122640587Y-58833069D01*
X122538768Y-58973211D01*
X122460130Y-59127547D01*
X122460127Y-59127553D01*
X122460127Y-59127555D01*
X122406598Y-59292299D01*
X122379500Y-59463389D01*
X115690500Y-59463389D01*
X115663402Y-59292299D01*
X115609873Y-59127555D01*
X115600935Y-59110014D01*
X115531231Y-58973211D01*
X115429412Y-58833069D01*
X115306930Y-58710587D01*
X115166788Y-58608768D01*
X115012452Y-58530130D01*
X115012448Y-58530128D01*
X115012445Y-58530127D01*
X114847701Y-58476598D01*
X114676611Y-58449500D01*
X114503389Y-58449500D01*
X114332299Y-58476598D01*
X114332296Y-58476598D01*
X114332295Y-58476599D01*
X114253253Y-58502281D01*
X114167555Y-58530127D01*
X114167553Y-58530127D01*
X114167547Y-58530130D01*
X114013211Y-58608768D01*
X113873069Y-58710587D01*
X113750587Y-58833069D01*
X113648768Y-58973211D01*
X113570130Y-59127547D01*
X113570127Y-59127553D01*
X113570127Y-59127555D01*
X113516598Y-59292299D01*
X113489500Y-59463389D01*
X111760500Y-59463389D01*
X111760500Y-59402494D01*
X111721993Y-59110007D01*
X111645639Y-58825048D01*
X111532743Y-58552493D01*
X111532737Y-58552484D01*
X111532736Y-58552480D01*
X111385240Y-58297009D01*
X111385235Y-58297002D01*
X111205653Y-58062966D01*
X111205634Y-58062945D01*
X110997054Y-57854365D01*
X110997033Y-57854346D01*
X110762997Y-57674764D01*
X110762990Y-57674759D01*
X110507519Y-57527263D01*
X110507511Y-57527259D01*
X110507507Y-57527257D01*
X110234952Y-57414361D01*
X109949993Y-57338007D01*
X109949991Y-57338006D01*
X109949985Y-57338005D01*
X109657508Y-57299500D01*
X109657506Y-57299500D01*
X109362494Y-57299500D01*
X109362491Y-57299500D01*
X109070014Y-57338005D01*
X108785048Y-57414361D01*
X108512491Y-57527258D01*
X108512480Y-57527263D01*
X108257009Y-57674759D01*
X108257002Y-57674764D01*
X108022966Y-57854346D01*
X108022945Y-57854365D01*
X107814365Y-58062945D01*
X107814346Y-58062966D01*
X107634764Y-58297002D01*
X107634759Y-58297009D01*
X107487263Y-58552480D01*
X107487258Y-58552491D01*
X107374361Y-58825048D01*
X107298005Y-59110014D01*
X107259500Y-59402491D01*
X105520855Y-59402491D01*
X105503402Y-59292299D01*
X105449873Y-59127555D01*
X105440935Y-59110014D01*
X105371231Y-58973211D01*
X105269412Y-58833069D01*
X105146930Y-58710587D01*
X105006788Y-58608768D01*
X104852452Y-58530130D01*
X104852448Y-58530128D01*
X104852445Y-58530127D01*
X104687701Y-58476598D01*
X104516611Y-58449500D01*
X104343389Y-58449500D01*
X104172299Y-58476598D01*
X104172296Y-58476598D01*
X104172295Y-58476599D01*
X104093253Y-58502281D01*
X104007555Y-58530127D01*
X104007553Y-58530127D01*
X104007547Y-58530130D01*
X103853211Y-58608768D01*
X103713069Y-58710587D01*
X103590587Y-58833069D01*
X103488768Y-58973211D01*
X103410130Y-59127547D01*
X103410127Y-59127553D01*
X103410127Y-59127555D01*
X103356598Y-59292299D01*
X103329500Y-59463389D01*
X99525500Y-59463389D01*
X99525500Y-57269807D01*
X104135975Y-57269807D01*
X104144350Y-57338007D01*
X104153725Y-57414361D01*
X104157242Y-57442998D01*
X104205332Y-57610711D01*
X104279070Y-57768843D01*
X104376639Y-57913496D01*
X104376645Y-57913503D01*
X104495633Y-58041105D01*
X104495637Y-58041108D01*
X104633132Y-58148530D01*
X104785736Y-58233120D01*
X104949696Y-58292797D01*
X105120971Y-58326089D01*
X105270984Y-58331328D01*
X105295344Y-58332179D01*
X105295344Y-58332178D01*
X105295348Y-58332179D01*
X105468529Y-58310914D01*
X105552390Y-58286867D01*
X105636245Y-58262823D01*
X105636246Y-58262822D01*
X105636251Y-58262821D01*
X106700693Y-57766464D01*
X106845345Y-57668895D01*
X106972953Y-57549900D01*
X107080375Y-57412405D01*
X107159419Y-57269807D01*
X123185975Y-57269807D01*
X123194350Y-57338007D01*
X123203725Y-57414361D01*
X123207242Y-57442998D01*
X123255332Y-57610711D01*
X123329070Y-57768843D01*
X123426639Y-57913496D01*
X123426645Y-57913503D01*
X123545633Y-58041105D01*
X123545637Y-58041108D01*
X123683132Y-58148530D01*
X123835736Y-58233120D01*
X123999696Y-58292797D01*
X124170971Y-58326089D01*
X124320984Y-58331328D01*
X124345344Y-58332179D01*
X124345344Y-58332178D01*
X124345348Y-58332179D01*
X124518529Y-58310914D01*
X124602390Y-58286867D01*
X124686245Y-58262823D01*
X124686246Y-58262822D01*
X124686251Y-58262821D01*
X125750693Y-57766464D01*
X125895345Y-57668895D01*
X126022953Y-57549900D01*
X126130375Y-57412405D01*
X126209419Y-57269807D01*
X142235975Y-57269807D01*
X142244350Y-57338007D01*
X142253725Y-57414361D01*
X142257242Y-57442998D01*
X142305332Y-57610711D01*
X142379070Y-57768843D01*
X142476639Y-57913496D01*
X142476645Y-57913503D01*
X142595633Y-58041105D01*
X142595637Y-58041108D01*
X142733132Y-58148530D01*
X142885736Y-58233120D01*
X143049696Y-58292797D01*
X143220971Y-58326089D01*
X143370984Y-58331328D01*
X143395344Y-58332179D01*
X143395344Y-58332178D01*
X143395348Y-58332179D01*
X143568529Y-58310914D01*
X143652390Y-58286867D01*
X143736245Y-58262823D01*
X143736246Y-58262822D01*
X143736251Y-58262821D01*
X144800693Y-57766464D01*
X144945345Y-57668895D01*
X145072953Y-57549900D01*
X145180375Y-57412405D01*
X145259419Y-57269807D01*
X161285975Y-57269807D01*
X161294350Y-57338007D01*
X161303725Y-57414361D01*
X161307242Y-57442998D01*
X161355332Y-57610711D01*
X161429070Y-57768843D01*
X161526639Y-57913496D01*
X161526645Y-57913503D01*
X161645633Y-58041105D01*
X161645637Y-58041108D01*
X161783132Y-58148530D01*
X161935736Y-58233120D01*
X162099696Y-58292797D01*
X162270971Y-58326089D01*
X162420984Y-58331328D01*
X162445344Y-58332179D01*
X162445344Y-58332178D01*
X162445348Y-58332179D01*
X162618529Y-58310914D01*
X162702390Y-58286867D01*
X162786245Y-58262823D01*
X162786246Y-58262822D01*
X162786251Y-58262821D01*
X163850693Y-57766464D01*
X163995345Y-57668895D01*
X164122953Y-57549900D01*
X164230375Y-57412405D01*
X164314965Y-57259801D01*
X164374642Y-57095841D01*
X164407934Y-56924566D01*
X164414024Y-56750189D01*
X164392759Y-56577008D01*
X164344666Y-56409286D01*
X164270931Y-56251159D01*
X164270928Y-56251155D01*
X164270927Y-56251152D01*
X164173358Y-56106500D01*
X164054362Y-55978892D01*
X164054360Y-55978890D01*
X164054359Y-55978889D01*
X163971865Y-55914438D01*
X163916868Y-55871470D01*
X163916866Y-55871469D01*
X163916865Y-55871468D01*
X163801453Y-55807494D01*
X163764264Y-55786880D01*
X163764263Y-55786879D01*
X163764262Y-55786879D01*
X163600305Y-55727203D01*
X163429031Y-55693911D01*
X163429032Y-55693911D01*
X163254655Y-55687820D01*
X163112972Y-55705217D01*
X163081471Y-55709086D01*
X163081470Y-55709086D01*
X163081464Y-55709087D01*
X162913754Y-55757176D01*
X161849309Y-56253534D01*
X161704658Y-56351102D01*
X161704651Y-56351108D01*
X161577049Y-56470096D01*
X161469622Y-56607599D01*
X161385034Y-56760200D01*
X161325358Y-56924157D01*
X161292066Y-57095430D01*
X161285975Y-57269807D01*
X145259419Y-57269807D01*
X145264965Y-57259801D01*
X145324642Y-57095841D01*
X145357934Y-56924566D01*
X145364024Y-56750189D01*
X145342759Y-56577008D01*
X145294666Y-56409286D01*
X145220931Y-56251159D01*
X145220928Y-56251155D01*
X145220927Y-56251152D01*
X145123358Y-56106500D01*
X145004362Y-55978892D01*
X145004360Y-55978890D01*
X145004359Y-55978889D01*
X144921865Y-55914438D01*
X144866868Y-55871470D01*
X144866866Y-55871469D01*
X144866865Y-55871468D01*
X144751453Y-55807494D01*
X144714264Y-55786880D01*
X144714263Y-55786879D01*
X144714262Y-55786879D01*
X144550305Y-55727203D01*
X144379031Y-55693911D01*
X144379032Y-55693911D01*
X144204655Y-55687820D01*
X144062972Y-55705217D01*
X144031471Y-55709086D01*
X144031470Y-55709086D01*
X144031464Y-55709087D01*
X143863754Y-55757176D01*
X142799309Y-56253534D01*
X142654658Y-56351102D01*
X142654651Y-56351108D01*
X142527049Y-56470096D01*
X142419622Y-56607599D01*
X142335034Y-56760200D01*
X142275358Y-56924157D01*
X142242066Y-57095430D01*
X142235975Y-57269807D01*
X126209419Y-57269807D01*
X126214965Y-57259801D01*
X126274642Y-57095841D01*
X126307934Y-56924566D01*
X126314024Y-56750189D01*
X126292759Y-56577008D01*
X126244666Y-56409286D01*
X126170931Y-56251159D01*
X126170928Y-56251155D01*
X126170927Y-56251152D01*
X126073358Y-56106500D01*
X125954362Y-55978892D01*
X125954360Y-55978890D01*
X125954359Y-55978889D01*
X125871865Y-55914438D01*
X125816868Y-55871470D01*
X125816866Y-55871469D01*
X125816865Y-55871468D01*
X125701453Y-55807494D01*
X125664264Y-55786880D01*
X125664263Y-55786879D01*
X125664262Y-55786879D01*
X125500305Y-55727203D01*
X125329031Y-55693911D01*
X125329032Y-55693911D01*
X125154655Y-55687820D01*
X125012972Y-55705217D01*
X124981471Y-55709086D01*
X124981470Y-55709086D01*
X124981464Y-55709087D01*
X124813754Y-55757176D01*
X123749309Y-56253534D01*
X123604658Y-56351102D01*
X123604651Y-56351108D01*
X123477049Y-56470096D01*
X123369622Y-56607599D01*
X123285034Y-56760200D01*
X123225358Y-56924157D01*
X123192066Y-57095430D01*
X123185975Y-57269807D01*
X107159419Y-57269807D01*
X107164965Y-57259801D01*
X107224642Y-57095841D01*
X107257934Y-56924566D01*
X107264024Y-56750189D01*
X107242759Y-56577008D01*
X107194666Y-56409286D01*
X107120931Y-56251159D01*
X107120928Y-56251155D01*
X107120927Y-56251152D01*
X107023358Y-56106500D01*
X106904362Y-55978892D01*
X106904360Y-55978890D01*
X106904359Y-55978889D01*
X106821865Y-55914438D01*
X106766868Y-55871470D01*
X106766866Y-55871469D01*
X106766865Y-55871468D01*
X106651453Y-55807494D01*
X106614264Y-55786880D01*
X106614263Y-55786879D01*
X106614262Y-55786879D01*
X106450305Y-55727203D01*
X106279031Y-55693911D01*
X106279032Y-55693911D01*
X106104655Y-55687820D01*
X105962972Y-55705217D01*
X105931471Y-55709086D01*
X105931470Y-55709086D01*
X105931464Y-55709087D01*
X105763754Y-55757176D01*
X104699309Y-56253534D01*
X104554658Y-56351102D01*
X104554651Y-56351108D01*
X104427049Y-56470096D01*
X104319622Y-56607599D01*
X104235034Y-56760200D01*
X104175358Y-56924157D01*
X104142066Y-57095430D01*
X104135975Y-57269807D01*
X99525500Y-57269807D01*
X99525500Y-54210192D01*
X110485975Y-54210192D01*
X110492066Y-54384569D01*
X110525278Y-54555430D01*
X110525358Y-54555841D01*
X110585035Y-54719801D01*
X110669625Y-54872405D01*
X110693527Y-54902998D01*
X110777049Y-55009903D01*
X110880130Y-55106025D01*
X110904655Y-55128895D01*
X111049307Y-55226464D01*
X111049308Y-55226464D01*
X111049309Y-55226465D01*
X111075659Y-55238752D01*
X112113749Y-55722821D01*
X112113750Y-55722821D01*
X112113754Y-55722823D01*
X112281464Y-55770912D01*
X112281471Y-55770914D01*
X112454652Y-55792179D01*
X112629029Y-55786089D01*
X112800304Y-55752797D01*
X112964264Y-55693120D01*
X113116868Y-55608530D01*
X113254362Y-55501108D01*
X113373358Y-55373500D01*
X113433699Y-55284041D01*
X113488374Y-55238752D01*
X113538157Y-55228500D01*
X130075739Y-55228500D01*
X130128988Y-55240304D01*
X131163749Y-55722821D01*
X131163750Y-55722821D01*
X131163754Y-55722823D01*
X131331464Y-55770912D01*
X131331471Y-55770914D01*
X131504652Y-55792179D01*
X131679029Y-55786089D01*
X131850304Y-55752797D01*
X132014264Y-55693120D01*
X132166868Y-55608530D01*
X132304362Y-55501108D01*
X132423358Y-55373500D01*
X132483699Y-55284041D01*
X132538374Y-55238752D01*
X132588157Y-55228500D01*
X149125739Y-55228500D01*
X149178988Y-55240304D01*
X150213749Y-55722821D01*
X150213750Y-55722821D01*
X150213754Y-55722823D01*
X150381464Y-55770912D01*
X150381471Y-55770914D01*
X150554652Y-55792179D01*
X150729029Y-55786089D01*
X150900304Y-55752797D01*
X151064264Y-55693120D01*
X151216868Y-55608530D01*
X151354362Y-55501108D01*
X151473358Y-55373500D01*
X151533699Y-55284041D01*
X151588374Y-55238752D01*
X151638157Y-55228500D01*
X168175739Y-55228500D01*
X168228988Y-55240304D01*
X169263749Y-55722821D01*
X169263750Y-55722821D01*
X169263754Y-55722823D01*
X169431464Y-55770912D01*
X169431471Y-55770914D01*
X169604652Y-55792179D01*
X169779029Y-55786089D01*
X169950304Y-55752797D01*
X170114264Y-55693120D01*
X170266868Y-55608530D01*
X170404362Y-55501108D01*
X170523358Y-55373500D01*
X170620927Y-55228848D01*
X170621090Y-55228500D01*
X170694667Y-55070711D01*
X170742757Y-54902998D01*
X170742759Y-54902992D01*
X170764024Y-54729811D01*
X170757934Y-54555434D01*
X170724642Y-54384159D01*
X170664965Y-54220199D01*
X170580375Y-54067595D01*
X170472953Y-53930100D01*
X170472950Y-53930096D01*
X170345348Y-53811108D01*
X170345345Y-53811105D01*
X170200693Y-53713536D01*
X170200692Y-53713535D01*
X170200690Y-53713534D01*
X169136245Y-53217176D01*
X168968535Y-53169087D01*
X168968530Y-53169086D01*
X168968529Y-53169086D01*
X168898315Y-53160464D01*
X168795343Y-53147820D01*
X168620967Y-53153911D01*
X168449694Y-53187203D01*
X168285737Y-53246879D01*
X168133136Y-53331467D01*
X167995633Y-53438894D01*
X167876645Y-53566496D01*
X167876639Y-53566502D01*
X167816302Y-53655958D01*
X167761627Y-53701248D01*
X167711843Y-53711500D01*
X151174261Y-53711500D01*
X151121011Y-53699695D01*
X150086245Y-53217176D01*
X149918535Y-53169087D01*
X149918530Y-53169086D01*
X149918529Y-53169086D01*
X149848315Y-53160464D01*
X149745343Y-53147820D01*
X149570967Y-53153911D01*
X149399694Y-53187203D01*
X149235737Y-53246879D01*
X149083136Y-53331467D01*
X148945633Y-53438894D01*
X148826645Y-53566496D01*
X148826639Y-53566502D01*
X148766302Y-53655958D01*
X148711627Y-53701248D01*
X148661843Y-53711500D01*
X132124261Y-53711500D01*
X132071011Y-53699695D01*
X131036245Y-53217176D01*
X130868535Y-53169087D01*
X130868530Y-53169086D01*
X130868529Y-53169086D01*
X130798315Y-53160464D01*
X130695343Y-53147820D01*
X130520967Y-53153911D01*
X130349694Y-53187203D01*
X130185737Y-53246879D01*
X130033136Y-53331467D01*
X129895633Y-53438894D01*
X129776645Y-53566496D01*
X129776639Y-53566502D01*
X129716302Y-53655958D01*
X129661627Y-53701248D01*
X129611843Y-53711500D01*
X113074261Y-53711500D01*
X113021011Y-53699695D01*
X111986245Y-53217176D01*
X111818535Y-53169087D01*
X111818530Y-53169086D01*
X111818529Y-53169086D01*
X111748315Y-53160464D01*
X111645343Y-53147820D01*
X111470967Y-53153911D01*
X111299694Y-53187203D01*
X111135737Y-53246879D01*
X110983136Y-53331467D01*
X110845633Y-53438894D01*
X110726645Y-53566496D01*
X110726639Y-53566503D01*
X110629070Y-53711156D01*
X110555332Y-53869288D01*
X110507242Y-54037001D01*
X110485975Y-54210192D01*
X99525500Y-54210192D01*
X99525500Y-48660518D01*
X105841500Y-48660518D01*
X105841500Y-48839481D01*
X105843421Y-48849137D01*
X105876413Y-49015000D01*
X105944898Y-49180336D01*
X106044322Y-49329135D01*
X106170865Y-49455678D01*
X106319664Y-49555102D01*
X106485000Y-49623587D01*
X106660521Y-49658500D01*
X106660522Y-49658500D01*
X106839478Y-49658500D01*
X106839479Y-49658500D01*
X107015000Y-49623587D01*
X107180336Y-49555102D01*
X107329135Y-49455678D01*
X107455678Y-49329135D01*
X107555102Y-49180336D01*
X107606487Y-49056281D01*
X107651036Y-49001001D01*
X107718399Y-48978580D01*
X107722896Y-48978500D01*
X111916867Y-48978500D01*
X111984988Y-48998502D01*
X111986848Y-48999721D01*
X112099664Y-49075102D01*
X112265000Y-49143587D01*
X112440521Y-49178500D01*
X112440522Y-49178500D01*
X112619478Y-49178500D01*
X112619479Y-49178500D01*
X112795000Y-49143587D01*
X112960336Y-49075102D01*
X113109135Y-48975678D01*
X113235678Y-48849135D01*
X113335102Y-48700336D01*
X113403587Y-48535000D01*
X113438500Y-48359479D01*
X113438500Y-48180521D01*
X113403587Y-48005000D01*
X113395214Y-47984787D01*
X113342648Y-47857881D01*
X113335058Y-47787291D01*
X113366837Y-47723804D01*
X113427894Y-47687576D01*
X113498846Y-47690110D01*
X113507275Y-47693254D01*
X113550553Y-47711181D01*
X113550561Y-47711183D01*
X113576000Y-47716243D01*
X113576000Y-46950060D01*
X113589940Y-46974205D01*
X113645795Y-47030060D01*
X113714204Y-47069556D01*
X113790504Y-47090000D01*
X113869496Y-47090000D01*
X113945796Y-47069556D01*
X114014205Y-47030060D01*
X114070060Y-46974205D01*
X114084000Y-46950060D01*
X114084000Y-47716242D01*
X114109438Y-47711183D01*
X114109441Y-47711182D01*
X114283783Y-47638967D01*
X114440684Y-47534129D01*
X114440691Y-47534124D01*
X114574124Y-47400691D01*
X114574129Y-47400684D01*
X114678967Y-47243783D01*
X114751182Y-47069441D01*
X114751183Y-47069438D01*
X114787999Y-46884358D01*
X114788000Y-46884355D01*
X114788000Y-46494000D01*
X114130000Y-46494000D01*
X114130000Y-45986000D01*
X114788000Y-45986000D01*
X114788000Y-45810518D01*
X123941500Y-45810518D01*
X123941500Y-45989481D01*
X123949989Y-46032158D01*
X123976413Y-46165000D01*
X124044898Y-46330336D01*
X124144322Y-46479135D01*
X124270865Y-46605678D01*
X124419664Y-46705102D01*
X124585000Y-46773587D01*
X124760521Y-46808500D01*
X124760522Y-46808500D01*
X124939478Y-46808500D01*
X124939479Y-46808500D01*
X125115000Y-46773587D01*
X125280336Y-46705102D01*
X125429135Y-46605678D01*
X125464408Y-46570405D01*
X125526720Y-46536379D01*
X125553503Y-46533500D01*
X131396497Y-46533500D01*
X131464618Y-46553502D01*
X131485592Y-46570405D01*
X131520865Y-46605678D01*
X131669664Y-46705102D01*
X131835000Y-46773587D01*
X132010521Y-46808500D01*
X132010522Y-46808500D01*
X132189478Y-46808500D01*
X132189479Y-46808500D01*
X132365000Y-46773587D01*
X132530336Y-46705102D01*
X132679135Y-46605678D01*
X132805678Y-46479135D01*
X132905102Y-46330336D01*
X132973587Y-46165000D01*
X133008500Y-45989479D01*
X133008500Y-45810521D01*
X132973587Y-45635000D01*
X132905102Y-45469664D01*
X132805678Y-45320865D01*
X132679135Y-45194322D01*
X132530336Y-45094898D01*
X132413429Y-45046473D01*
X132365003Y-45026414D01*
X132365001Y-45026413D01*
X132365000Y-45026413D01*
X132270234Y-45007563D01*
X132189481Y-44991500D01*
X132189479Y-44991500D01*
X132010521Y-44991500D01*
X132010518Y-44991500D01*
X131884962Y-45016475D01*
X131835000Y-45026413D01*
X131834999Y-45026413D01*
X131834996Y-45026414D01*
X131669662Y-45094899D01*
X131520869Y-45194319D01*
X131520862Y-45194324D01*
X131485592Y-45229595D01*
X131423280Y-45263621D01*
X131396497Y-45266500D01*
X125553503Y-45266500D01*
X125485382Y-45246498D01*
X125464408Y-45229595D01*
X125429137Y-45194324D01*
X125429135Y-45194322D01*
X125280336Y-45094898D01*
X125163429Y-45046473D01*
X125115003Y-45026414D01*
X125115001Y-45026413D01*
X125115000Y-45026413D01*
X125020234Y-45007563D01*
X124939481Y-44991500D01*
X124939479Y-44991500D01*
X124760521Y-44991500D01*
X124760518Y-44991500D01*
X124634962Y-45016475D01*
X124585000Y-45026413D01*
X124584999Y-45026413D01*
X124584996Y-45026414D01*
X124419662Y-45094899D01*
X124270869Y-45194319D01*
X124270862Y-45194324D01*
X124144324Y-45320862D01*
X124144319Y-45320869D01*
X124044899Y-45469662D01*
X123976414Y-45634996D01*
X123941500Y-45810518D01*
X114788000Y-45810518D01*
X114788000Y-45595644D01*
X114787999Y-45595641D01*
X114751183Y-45410561D01*
X114751182Y-45410558D01*
X114678967Y-45236216D01*
X114574129Y-45079315D01*
X114574124Y-45079308D01*
X114440691Y-44945875D01*
X114440684Y-44945870D01*
X114283783Y-44841032D01*
X114109438Y-44768816D01*
X114084000Y-44763755D01*
X114084000Y-45529939D01*
X114070060Y-45505795D01*
X114014205Y-45449940D01*
X113945796Y-45410444D01*
X113869496Y-45390000D01*
X113790504Y-45390000D01*
X113714204Y-45410444D01*
X113645795Y-45449940D01*
X113589940Y-45505795D01*
X113576000Y-45529939D01*
X113576000Y-44763754D01*
X113554082Y-44745767D01*
X113514112Y-44687091D01*
X113512210Y-44616120D01*
X113517602Y-44600157D01*
X113573587Y-44465000D01*
X113608500Y-44289479D01*
X113608500Y-44110521D01*
X113573587Y-43935000D01*
X113505102Y-43769664D01*
X113405678Y-43620865D01*
X113359051Y-43574238D01*
X113325025Y-43511926D01*
X113330090Y-43441111D01*
X113372637Y-43384275D01*
X113439157Y-43359464D01*
X113496365Y-43368735D01*
X113550553Y-43391181D01*
X113550561Y-43391183D01*
X113576000Y-43396243D01*
X113576000Y-42630060D01*
X113589940Y-42654205D01*
X113645795Y-42710060D01*
X113714204Y-42749556D01*
X113790504Y-42770000D01*
X113869496Y-42770000D01*
X113945796Y-42749556D01*
X114014205Y-42710060D01*
X114070060Y-42654205D01*
X114084000Y-42630060D01*
X114084000Y-43396242D01*
X114109438Y-43391183D01*
X114109441Y-43391182D01*
X114283783Y-43318967D01*
X114440684Y-43214129D01*
X114440691Y-43214124D01*
X114574124Y-43080691D01*
X114574129Y-43080684D01*
X114678967Y-42923783D01*
X114751182Y-42749441D01*
X114751183Y-42749438D01*
X114787999Y-42564358D01*
X114788000Y-42564355D01*
X114788000Y-42324000D01*
X114130000Y-42324000D01*
X114130000Y-41816000D01*
X114788000Y-41816000D01*
X114788000Y-41575644D01*
X114787999Y-41575641D01*
X114751183Y-41390561D01*
X114751182Y-41390558D01*
X114678967Y-41216216D01*
X114574129Y-41059315D01*
X114574124Y-41059308D01*
X114440691Y-40925875D01*
X114440684Y-40925870D01*
X114283783Y-40821032D01*
X114109438Y-40748816D01*
X114084000Y-40743755D01*
X114084000Y-41509939D01*
X114070060Y-41485795D01*
X114014205Y-41429940D01*
X113945796Y-41390444D01*
X113869496Y-41370000D01*
X113790504Y-41370000D01*
X113714204Y-41390444D01*
X113645795Y-41429940D01*
X113589940Y-41485795D01*
X113576000Y-41509939D01*
X113576000Y-40743755D01*
X113575999Y-40743755D01*
X113550561Y-40748816D01*
X113376216Y-40821032D01*
X113219315Y-40925870D01*
X113219308Y-40925875D01*
X113085875Y-41059308D01*
X113085870Y-41059315D01*
X112981032Y-41216216D01*
X112908817Y-41390558D01*
X112908816Y-41390561D01*
X112872000Y-41575641D01*
X112872000Y-41816000D01*
X113530000Y-41816000D01*
X113530000Y-42324000D01*
X112872000Y-42324000D01*
X112872000Y-42564358D01*
X112908816Y-42749438D01*
X112908817Y-42749441D01*
X112981032Y-42923783D01*
X113085870Y-43080684D01*
X113085875Y-43080691D01*
X113142907Y-43137723D01*
X113176933Y-43200035D01*
X113171868Y-43270850D01*
X113129321Y-43327686D01*
X113062801Y-43352497D01*
X113005594Y-43343227D01*
X112965005Y-43326414D01*
X112789481Y-43291500D01*
X112789479Y-43291500D01*
X112610521Y-43291500D01*
X112610518Y-43291500D01*
X112479771Y-43317507D01*
X112435000Y-43326413D01*
X112434999Y-43326413D01*
X112434996Y-43326414D01*
X112303902Y-43380716D01*
X112289362Y-43386739D01*
X112269662Y-43394899D01*
X112120869Y-43494319D01*
X112120862Y-43494324D01*
X112085592Y-43529595D01*
X112023280Y-43563621D01*
X111996497Y-43566500D01*
X110966969Y-43566500D01*
X110918751Y-43556909D01*
X110880902Y-43541231D01*
X110835831Y-43522562D01*
X110741467Y-43503792D01*
X110679632Y-43491492D01*
X110679630Y-43491492D01*
X110520370Y-43491492D01*
X110520367Y-43491492D01*
X110417640Y-43511926D01*
X110364169Y-43522562D01*
X110281249Y-43556909D01*
X110217032Y-43583509D01*
X110084609Y-43671990D01*
X110084603Y-43671995D01*
X109972003Y-43784595D01*
X109971998Y-43784601D01*
X109883517Y-43917024D01*
X109822570Y-44064160D01*
X109800886Y-44173170D01*
X109767978Y-44236079D01*
X109766402Y-44237682D01*
X109612647Y-44391437D01*
X109550335Y-44425463D01*
X109492030Y-44423124D01*
X109491901Y-44423778D01*
X109487755Y-44422953D01*
X109486997Y-44422923D01*
X109485841Y-44422572D01*
X109329632Y-44391500D01*
X109329630Y-44391500D01*
X109170370Y-44391500D01*
X109170367Y-44391500D01*
X109055203Y-44414408D01*
X109014169Y-44422570D01*
X109012832Y-44423124D01*
X108867032Y-44483517D01*
X108734609Y-44571998D01*
X108734603Y-44572003D01*
X108622003Y-44684603D01*
X108621998Y-44684609D01*
X108533517Y-44817032D01*
X108472571Y-44964167D01*
X108472570Y-44964170D01*
X108441500Y-45120367D01*
X108441500Y-45279632D01*
X108447941Y-45312012D01*
X108472570Y-45435831D01*
X108533517Y-45582968D01*
X108621997Y-45715389D01*
X108621998Y-45715390D01*
X108622003Y-45715396D01*
X108734603Y-45827996D01*
X108734609Y-45828001D01*
X108734611Y-45828003D01*
X108867032Y-45916483D01*
X109014169Y-45977430D01*
X109170370Y-46008500D01*
X109170371Y-46008500D01*
X109329629Y-46008500D01*
X109329630Y-46008500D01*
X109485831Y-45977430D01*
X109632968Y-45916483D01*
X109734111Y-45848901D01*
X109779524Y-45830090D01*
X109884777Y-45809155D01*
X110000067Y-45761400D01*
X110103825Y-45692071D01*
X110662310Y-45133585D01*
X110724619Y-45099563D01*
X110726759Y-45099117D01*
X110835831Y-45077422D01*
X110835834Y-45077420D01*
X110835837Y-45077420D01*
X110982963Y-45016477D01*
X110982962Y-45016477D01*
X110982968Y-45016475D01*
X111115389Y-44927995D01*
X111172980Y-44870403D01*
X111235290Y-44836380D01*
X111262074Y-44833500D01*
X111996497Y-44833500D01*
X112064618Y-44853502D01*
X112085592Y-44870405D01*
X112120865Y-44905678D01*
X112120868Y-44905680D01*
X112120873Y-44905684D01*
X112273347Y-45007563D01*
X112318875Y-45062039D01*
X112327724Y-45132482D01*
X112297083Y-45196527D01*
X112236681Y-45233838D01*
X112235960Y-45234034D01*
X112187515Y-45247015D01*
X112061988Y-45319488D01*
X112061978Y-45319496D01*
X111959496Y-45421978D01*
X111959488Y-45421988D01*
X111887016Y-45547514D01*
X111874120Y-45595644D01*
X111854287Y-45669662D01*
X111849500Y-45687526D01*
X111849500Y-45832473D01*
X111849499Y-45832473D01*
X111887016Y-45972485D01*
X111959488Y-46098011D01*
X111959496Y-46098021D01*
X112061978Y-46200503D01*
X112061983Y-46200507D01*
X112061985Y-46200509D01*
X112187515Y-46272984D01*
X112327525Y-46310500D01*
X112327527Y-46310500D01*
X112472473Y-46310500D01*
X112472475Y-46310500D01*
X112612485Y-46272984D01*
X112738015Y-46200509D01*
X112840509Y-46098015D01*
X112868808Y-46049000D01*
X112920190Y-46000007D01*
X112977927Y-45986000D01*
X113530000Y-45986000D01*
X113530000Y-46494000D01*
X112872000Y-46494000D01*
X112872000Y-46884358D01*
X112908816Y-47069438D01*
X112908817Y-47069441D01*
X112979466Y-47240003D01*
X112987055Y-47310593D01*
X112955276Y-47374080D01*
X112894217Y-47410307D01*
X112823266Y-47407773D01*
X112814839Y-47404630D01*
X112795005Y-47396414D01*
X112619481Y-47361500D01*
X112619479Y-47361500D01*
X112440521Y-47361500D01*
X112440518Y-47361500D01*
X112309771Y-47387507D01*
X112265000Y-47396413D01*
X112264999Y-47396413D01*
X112264996Y-47396414D01*
X112099662Y-47464899D01*
X112035458Y-47507798D01*
X111996060Y-47534124D01*
X111986869Y-47540265D01*
X111919116Y-47561480D01*
X111916867Y-47561500D01*
X107160216Y-47561500D01*
X107023337Y-47588727D01*
X107023332Y-47588729D01*
X106969930Y-47610848D01*
X106969930Y-47610849D01*
X106894562Y-47642068D01*
X106894398Y-47642136D01*
X106778359Y-47719670D01*
X106778357Y-47719672D01*
X106682564Y-47815464D01*
X106620251Y-47849489D01*
X106618051Y-47849947D01*
X106555468Y-47862396D01*
X106485000Y-47876413D01*
X106484998Y-47876413D01*
X106484997Y-47876414D01*
X106388142Y-47916533D01*
X106340463Y-47936283D01*
X106319662Y-47944899D01*
X106170869Y-48044319D01*
X106170862Y-48044324D01*
X106044324Y-48170862D01*
X106044319Y-48170869D01*
X105944899Y-48319662D01*
X105876414Y-48484996D01*
X105841500Y-48660518D01*
X99525500Y-48660518D01*
X99525500Y-45595641D01*
X104232000Y-45595641D01*
X104232000Y-45986000D01*
X104890000Y-45986000D01*
X104890000Y-46494000D01*
X104232000Y-46494000D01*
X104232000Y-46884358D01*
X104268816Y-47069438D01*
X104268817Y-47069441D01*
X104341032Y-47243783D01*
X104445870Y-47400684D01*
X104445875Y-47400691D01*
X104579308Y-47534124D01*
X104579315Y-47534129D01*
X104736216Y-47638967D01*
X104910558Y-47711182D01*
X104910561Y-47711183D01*
X104936000Y-47716243D01*
X104936000Y-46950060D01*
X104949940Y-46974205D01*
X105005795Y-47030060D01*
X105074204Y-47069556D01*
X105150504Y-47090000D01*
X105229496Y-47090000D01*
X105305796Y-47069556D01*
X105374205Y-47030060D01*
X105430060Y-46974205D01*
X105444000Y-46950060D01*
X105444000Y-47716242D01*
X105469438Y-47711183D01*
X105469441Y-47711182D01*
X105643783Y-47638967D01*
X105800684Y-47534129D01*
X105800691Y-47534124D01*
X105934124Y-47400691D01*
X105934129Y-47400684D01*
X106038967Y-47243783D01*
X106111182Y-47069441D01*
X106111183Y-47069438D01*
X106147999Y-46884358D01*
X106148000Y-46884355D01*
X106148000Y-46494000D01*
X105490000Y-46494000D01*
X105490000Y-45986000D01*
X106042073Y-45986000D01*
X106110194Y-46006002D01*
X106151192Y-46049000D01*
X106179488Y-46098011D01*
X106179496Y-46098021D01*
X106281978Y-46200503D01*
X106281983Y-46200507D01*
X106281985Y-46200509D01*
X106407515Y-46272984D01*
X106547525Y-46310500D01*
X106547527Y-46310500D01*
X106692473Y-46310500D01*
X106692475Y-46310500D01*
X106832485Y-46272984D01*
X106958015Y-46200509D01*
X107060509Y-46098015D01*
X107132984Y-45972485D01*
X107170500Y-45832475D01*
X107170500Y-45687525D01*
X107132984Y-45547515D01*
X107060509Y-45421985D01*
X107060507Y-45421983D01*
X107060503Y-45421978D01*
X106958021Y-45319496D01*
X106958011Y-45319488D01*
X106832485Y-45247016D01*
X106830552Y-45246498D01*
X106692475Y-45209500D01*
X106547525Y-45209500D01*
X106456695Y-45233838D01*
X106407514Y-45247016D01*
X106281988Y-45319488D01*
X106281981Y-45319494D01*
X106267874Y-45333601D01*
X106205561Y-45367624D01*
X106134746Y-45362558D01*
X106077911Y-45320009D01*
X106062372Y-45292720D01*
X106038969Y-45236219D01*
X106038968Y-45236217D01*
X105934129Y-45079315D01*
X105934124Y-45079308D01*
X105800691Y-44945875D01*
X105800684Y-44945870D01*
X105643783Y-44841032D01*
X105469438Y-44768816D01*
X105444000Y-44763755D01*
X105444000Y-45529939D01*
X105430060Y-45505795D01*
X105374205Y-45449940D01*
X105305796Y-45410444D01*
X105229496Y-45390000D01*
X105150504Y-45390000D01*
X105074204Y-45410444D01*
X105005795Y-45449940D01*
X104949940Y-45505795D01*
X104936000Y-45529939D01*
X104936000Y-44763755D01*
X104935999Y-44763755D01*
X104910561Y-44768816D01*
X104736216Y-44841032D01*
X104579315Y-44945870D01*
X104579308Y-44945875D01*
X104445875Y-45079308D01*
X104445870Y-45079315D01*
X104341032Y-45236216D01*
X104268817Y-45410558D01*
X104268816Y-45410561D01*
X104232000Y-45595641D01*
X99525500Y-45595641D01*
X99525500Y-41575641D01*
X104232000Y-41575641D01*
X104232000Y-41816000D01*
X104890000Y-41816000D01*
X104890000Y-42324000D01*
X104232000Y-42324000D01*
X104232000Y-42564358D01*
X104268816Y-42749438D01*
X104268817Y-42749441D01*
X104341032Y-42923783D01*
X104445870Y-43080684D01*
X104445875Y-43080691D01*
X104579308Y-43214124D01*
X104579315Y-43214129D01*
X104736216Y-43318967D01*
X104910558Y-43391182D01*
X104910561Y-43391183D01*
X104936000Y-43396243D01*
X104936000Y-42630060D01*
X104949940Y-42654205D01*
X105005795Y-42710060D01*
X105074204Y-42749556D01*
X105150504Y-42770000D01*
X105229496Y-42770000D01*
X105305796Y-42749556D01*
X105374205Y-42710060D01*
X105430060Y-42654205D01*
X105444000Y-42630060D01*
X105444000Y-43396242D01*
X105469438Y-43391183D01*
X105469441Y-43391182D01*
X105643783Y-43318967D01*
X105800684Y-43214129D01*
X105800691Y-43214124D01*
X105934124Y-43080691D01*
X105934129Y-43080684D01*
X106038967Y-42923783D01*
X106111182Y-42749441D01*
X106111183Y-42749438D01*
X106147999Y-42564358D01*
X106148000Y-42564355D01*
X106148000Y-42324000D01*
X105490000Y-42324000D01*
X105490000Y-41816000D01*
X106148000Y-41816000D01*
X106148000Y-41575644D01*
X106147999Y-41575641D01*
X106111183Y-41390561D01*
X106111182Y-41390558D01*
X106038967Y-41216216D01*
X105934129Y-41059315D01*
X105934124Y-41059308D01*
X105800691Y-40925875D01*
X105800684Y-40925870D01*
X105643783Y-40821032D01*
X105469438Y-40748816D01*
X105444000Y-40743755D01*
X105444000Y-41509939D01*
X105430060Y-41485795D01*
X105374205Y-41429940D01*
X105305796Y-41390444D01*
X105229496Y-41370000D01*
X105150504Y-41370000D01*
X105074204Y-41390444D01*
X105005795Y-41429940D01*
X104949940Y-41485795D01*
X104936000Y-41509939D01*
X104936000Y-40743755D01*
X104935999Y-40743755D01*
X104910561Y-40748816D01*
X104736216Y-40821032D01*
X104579315Y-40925870D01*
X104579308Y-40925875D01*
X104445875Y-41059308D01*
X104445870Y-41059315D01*
X104341032Y-41216216D01*
X104268817Y-41390558D01*
X104268816Y-41390561D01*
X104232000Y-41575641D01*
X99525500Y-41575641D01*
X99525500Y-40151500D01*
X99545502Y-40083379D01*
X99599158Y-40036886D01*
X99651500Y-40025500D01*
X135786602Y-40025500D01*
X135854723Y-40045502D01*
G37*
G04 #@! TD.AperFunction*
M02*
