G04 #@! TF.GenerationSoftware,KiCad,Pcbnew,10.0.5*
G04 #@! TF.CreationDate,2026-09-10T14:25:07+08:00*
G04 #@! TF.ProjectId,XS16,58533136-2e6b-4696-9361-645f70636258,rev?*
G04 #@! TF.SameCoordinates,Original*
G04 #@! TF.FileFunction,Legend,Top*
G04 #@! TF.FilePolarity,Positive*
%FSLAX46Y46*%
G04 Gerber Fmt 4.6, Leading zero omitted, Abs format (unit mm)*
G04 Created by KiCad (PCBNEW 10.0.5) date 2026-09-10 14:25:07*
%MOMM*%
%LPD*%
G01*
G04 APERTURE LIST*
%ADD10C,0.150000*%
%ADD11C,0.120000*%
G04 APERTURE END LIST*
D10*
X157245180Y-47247619D02*
X157245180Y-46771429D01*
X157245180Y-46771429D02*
X156768990Y-46723810D01*
X156768990Y-46723810D02*
X156816609Y-46771429D01*
X156816609Y-46771429D02*
X156864228Y-46866667D01*
X156864228Y-46866667D02*
X156864228Y-47104762D01*
X156864228Y-47104762D02*
X156816609Y-47200000D01*
X156816609Y-47200000D02*
X156768990Y-47247619D01*
X156768990Y-47247619D02*
X156673752Y-47295238D01*
X156673752Y-47295238D02*
X156435657Y-47295238D01*
X156435657Y-47295238D02*
X156340419Y-47247619D01*
X156340419Y-47247619D02*
X156292800Y-47200000D01*
X156292800Y-47200000D02*
X156245180Y-47104762D01*
X156245180Y-47104762D02*
X156245180Y-46866667D01*
X156245180Y-46866667D02*
X156292800Y-46771429D01*
X156292800Y-46771429D02*
X156340419Y-46723810D01*
X157245180Y-47580953D02*
X156245180Y-47914286D01*
X156245180Y-47914286D02*
X157245180Y-48247619D01*
X159788037Y-46676191D02*
X159788037Y-47295238D01*
X159788037Y-47295238D02*
X159407085Y-46961905D01*
X159407085Y-46961905D02*
X159407085Y-47104762D01*
X159407085Y-47104762D02*
X159359466Y-47200000D01*
X159359466Y-47200000D02*
X159311847Y-47247619D01*
X159311847Y-47247619D02*
X159216609Y-47295238D01*
X159216609Y-47295238D02*
X158978514Y-47295238D01*
X158978514Y-47295238D02*
X158883276Y-47247619D01*
X158883276Y-47247619D02*
X158835657Y-47200000D01*
X158835657Y-47200000D02*
X158788037Y-47104762D01*
X158788037Y-47104762D02*
X158788037Y-46819048D01*
X158788037Y-46819048D02*
X158835657Y-46723810D01*
X158835657Y-46723810D02*
X158883276Y-46676191D01*
X158883276Y-47723810D02*
X158835657Y-47771429D01*
X158835657Y-47771429D02*
X158788037Y-47723810D01*
X158788037Y-47723810D02*
X158835657Y-47676191D01*
X158835657Y-47676191D02*
X158883276Y-47723810D01*
X158883276Y-47723810D02*
X158788037Y-47723810D01*
X159788037Y-48104762D02*
X159788037Y-48723809D01*
X159788037Y-48723809D02*
X159407085Y-48390476D01*
X159407085Y-48390476D02*
X159407085Y-48533333D01*
X159407085Y-48533333D02*
X159359466Y-48628571D01*
X159359466Y-48628571D02*
X159311847Y-48676190D01*
X159311847Y-48676190D02*
X159216609Y-48723809D01*
X159216609Y-48723809D02*
X158978514Y-48723809D01*
X158978514Y-48723809D02*
X158883276Y-48676190D01*
X158883276Y-48676190D02*
X158835657Y-48628571D01*
X158835657Y-48628571D02*
X158788037Y-48533333D01*
X158788037Y-48533333D02*
X158788037Y-48247619D01*
X158788037Y-48247619D02*
X158835657Y-48152381D01*
X158835657Y-48152381D02*
X158883276Y-48104762D01*
X159788037Y-49009524D02*
X158788037Y-49342857D01*
X158788037Y-49342857D02*
X159788037Y-49676190D01*
X161616609Y-46723810D02*
X161616609Y-47200000D01*
X161330894Y-46628572D02*
X162330894Y-46961905D01*
X162330894Y-46961905D02*
X161330894Y-47295238D01*
X161330894Y-47628572D02*
X162330894Y-47628572D01*
X161330894Y-48104762D02*
X162330894Y-48104762D01*
X162330894Y-48104762D02*
X161330894Y-48676190D01*
X161330894Y-48676190D02*
X162330894Y-48676190D01*
X161330894Y-49676190D02*
X161330894Y-49104762D01*
X161330894Y-49390476D02*
X162330894Y-49390476D01*
X162330894Y-49390476D02*
X162188037Y-49295238D01*
X162188037Y-49295238D02*
X162092799Y-49200000D01*
X162092799Y-49200000D02*
X162045180Y-49104762D01*
X164159466Y-46723810D02*
X164159466Y-47200000D01*
X163873751Y-46628572D02*
X164873751Y-46961905D01*
X164873751Y-46961905D02*
X163873751Y-47295238D01*
X163873751Y-47628572D02*
X164873751Y-47628572D01*
X163873751Y-48104762D02*
X164873751Y-48104762D01*
X164873751Y-48104762D02*
X163873751Y-48676190D01*
X163873751Y-48676190D02*
X164873751Y-48676190D01*
X164778513Y-49104762D02*
X164826132Y-49152381D01*
X164826132Y-49152381D02*
X164873751Y-49247619D01*
X164873751Y-49247619D02*
X164873751Y-49485714D01*
X164873751Y-49485714D02*
X164826132Y-49580952D01*
X164826132Y-49580952D02*
X164778513Y-49628571D01*
X164778513Y-49628571D02*
X164683275Y-49676190D01*
X164683275Y-49676190D02*
X164588037Y-49676190D01*
X164588037Y-49676190D02*
X164445180Y-49628571D01*
X164445180Y-49628571D02*
X163873751Y-49057143D01*
X163873751Y-49057143D02*
X163873751Y-49676190D01*
X166416608Y-47342857D02*
X166892799Y-47009524D01*
X166416608Y-46771429D02*
X167416608Y-46771429D01*
X167416608Y-46771429D02*
X167416608Y-47152381D01*
X167416608Y-47152381D02*
X167368989Y-47247619D01*
X167368989Y-47247619D02*
X167321370Y-47295238D01*
X167321370Y-47295238D02*
X167226132Y-47342857D01*
X167226132Y-47342857D02*
X167083275Y-47342857D01*
X167083275Y-47342857D02*
X166988037Y-47295238D01*
X166988037Y-47295238D02*
X166940418Y-47247619D01*
X166940418Y-47247619D02*
X166892799Y-47152381D01*
X166892799Y-47152381D02*
X166892799Y-46771429D01*
X167416608Y-47676191D02*
X166416608Y-48342857D01*
X167416608Y-48342857D02*
X166416608Y-47676191D01*
X166416608Y-48723810D02*
X167416608Y-48723810D01*
X167416608Y-48723810D02*
X167416608Y-48961905D01*
X167416608Y-48961905D02*
X167368989Y-49104762D01*
X167368989Y-49104762D02*
X167273751Y-49200000D01*
X167273751Y-49200000D02*
X167178513Y-49247619D01*
X167178513Y-49247619D02*
X166988037Y-49295238D01*
X166988037Y-49295238D02*
X166845180Y-49295238D01*
X166845180Y-49295238D02*
X166654704Y-49247619D01*
X166654704Y-49247619D02*
X166559466Y-49200000D01*
X166559466Y-49200000D02*
X166464228Y-49104762D01*
X166464228Y-49104762D02*
X166416608Y-48961905D01*
X166416608Y-48961905D02*
X166416608Y-48723810D01*
X166416608Y-50247619D02*
X166416608Y-49676191D01*
X166416608Y-49961905D02*
X167416608Y-49961905D01*
X167416608Y-49961905D02*
X167273751Y-49866667D01*
X167273751Y-49866667D02*
X167178513Y-49771429D01*
X167178513Y-49771429D02*
X167130894Y-49676191D01*
X169959465Y-46628572D02*
X169959465Y-47200000D01*
X168959465Y-46914286D02*
X169959465Y-46914286D01*
X169959465Y-47438096D02*
X168959465Y-48104762D01*
X169959465Y-48104762D02*
X168959465Y-47438096D01*
X168959465Y-48485715D02*
X169959465Y-48485715D01*
X169959465Y-48485715D02*
X169959465Y-48723810D01*
X169959465Y-48723810D02*
X169911846Y-48866667D01*
X169911846Y-48866667D02*
X169816608Y-48961905D01*
X169816608Y-48961905D02*
X169721370Y-49009524D01*
X169721370Y-49009524D02*
X169530894Y-49057143D01*
X169530894Y-49057143D02*
X169388037Y-49057143D01*
X169388037Y-49057143D02*
X169197561Y-49009524D01*
X169197561Y-49009524D02*
X169102323Y-48961905D01*
X169102323Y-48961905D02*
X169007085Y-48866667D01*
X169007085Y-48866667D02*
X168959465Y-48723810D01*
X168959465Y-48723810D02*
X168959465Y-48485715D01*
X168959465Y-50009524D02*
X168959465Y-49438096D01*
X168959465Y-49723810D02*
X169959465Y-49723810D01*
X169959465Y-49723810D02*
X169816608Y-49628572D01*
X169816608Y-49628572D02*
X169721370Y-49533334D01*
X169721370Y-49533334D02*
X169673751Y-49438096D01*
X171502322Y-46771429D02*
X172502322Y-46771429D01*
X172502322Y-46771429D02*
X172502322Y-47152381D01*
X172502322Y-47152381D02*
X172454703Y-47247619D01*
X172454703Y-47247619D02*
X172407084Y-47295238D01*
X172407084Y-47295238D02*
X172311846Y-47342857D01*
X172311846Y-47342857D02*
X172168989Y-47342857D01*
X172168989Y-47342857D02*
X172073751Y-47295238D01*
X172073751Y-47295238D02*
X172026132Y-47247619D01*
X172026132Y-47247619D02*
X171978513Y-47152381D01*
X171978513Y-47152381D02*
X171978513Y-46771429D01*
X172502322Y-47676191D02*
X172502322Y-48295238D01*
X172502322Y-48295238D02*
X172121370Y-47961905D01*
X172121370Y-47961905D02*
X172121370Y-48104762D01*
X172121370Y-48104762D02*
X172073751Y-48200000D01*
X172073751Y-48200000D02*
X172026132Y-48247619D01*
X172026132Y-48247619D02*
X171930894Y-48295238D01*
X171930894Y-48295238D02*
X171692799Y-48295238D01*
X171692799Y-48295238D02*
X171597561Y-48247619D01*
X171597561Y-48247619D02*
X171549942Y-48200000D01*
X171549942Y-48200000D02*
X171502322Y-48104762D01*
X171502322Y-48104762D02*
X171502322Y-47819048D01*
X171502322Y-47819048D02*
X171549942Y-47723810D01*
X171549942Y-47723810D02*
X171597561Y-47676191D01*
X171597561Y-48723810D02*
X171549942Y-48771429D01*
X171549942Y-48771429D02*
X171502322Y-48723810D01*
X171502322Y-48723810D02*
X171549942Y-48676191D01*
X171549942Y-48676191D02*
X171597561Y-48723810D01*
X171597561Y-48723810D02*
X171502322Y-48723810D01*
X172168989Y-49628571D02*
X171502322Y-49628571D01*
X172549942Y-49390476D02*
X171835656Y-49152381D01*
X171835656Y-49152381D02*
X171835656Y-49771428D01*
X174997561Y-47295238D02*
X175045180Y-47200000D01*
X175045180Y-47200000D02*
X175045180Y-47057143D01*
X175045180Y-47057143D02*
X174997561Y-46914286D01*
X174997561Y-46914286D02*
X174902323Y-46819048D01*
X174902323Y-46819048D02*
X174807085Y-46771429D01*
X174807085Y-46771429D02*
X174616609Y-46723810D01*
X174616609Y-46723810D02*
X174473752Y-46723810D01*
X174473752Y-46723810D02*
X174283276Y-46771429D01*
X174283276Y-46771429D02*
X174188038Y-46819048D01*
X174188038Y-46819048D02*
X174092800Y-46914286D01*
X174092800Y-46914286D02*
X174045180Y-47057143D01*
X174045180Y-47057143D02*
X174045180Y-47152381D01*
X174045180Y-47152381D02*
X174092800Y-47295238D01*
X174092800Y-47295238D02*
X174140419Y-47342857D01*
X174140419Y-47342857D02*
X174473752Y-47342857D01*
X174473752Y-47342857D02*
X174473752Y-47152381D01*
X174045180Y-47771429D02*
X175045180Y-47771429D01*
X175045180Y-47771429D02*
X174045180Y-48342857D01*
X174045180Y-48342857D02*
X175045180Y-48342857D01*
X174045180Y-48819048D02*
X175045180Y-48819048D01*
X175045180Y-48819048D02*
X175045180Y-49057143D01*
X175045180Y-49057143D02*
X174997561Y-49200000D01*
X174997561Y-49200000D02*
X174902323Y-49295238D01*
X174902323Y-49295238D02*
X174807085Y-49342857D01*
X174807085Y-49342857D02*
X174616609Y-49390476D01*
X174616609Y-49390476D02*
X174473752Y-49390476D01*
X174473752Y-49390476D02*
X174283276Y-49342857D01*
X174283276Y-49342857D02*
X174188038Y-49295238D01*
X174188038Y-49295238D02*
X174092800Y-49200000D01*
X174092800Y-49200000D02*
X174045180Y-49057143D01*
X174045180Y-49057143D02*
X174045180Y-48819048D01*
X153824819Y-44933333D02*
X154539104Y-44933333D01*
X154539104Y-44933333D02*
X154681961Y-44980952D01*
X154681961Y-44980952D02*
X154777200Y-45076190D01*
X154777200Y-45076190D02*
X154824819Y-45219047D01*
X154824819Y-45219047D02*
X154824819Y-45314285D01*
X153920057Y-44504761D02*
X153872438Y-44457142D01*
X153872438Y-44457142D02*
X153824819Y-44361904D01*
X153824819Y-44361904D02*
X153824819Y-44123809D01*
X153824819Y-44123809D02*
X153872438Y-44028571D01*
X153872438Y-44028571D02*
X153920057Y-43980952D01*
X153920057Y-43980952D02*
X154015295Y-43933333D01*
X154015295Y-43933333D02*
X154110533Y-43933333D01*
X154110533Y-43933333D02*
X154253390Y-43980952D01*
X154253390Y-43980952D02*
X154824819Y-44552380D01*
X154824819Y-44552380D02*
X154824819Y-43933333D01*
X108176667Y-52083200D02*
X108319524Y-52130819D01*
X108319524Y-52130819D02*
X108557619Y-52130819D01*
X108557619Y-52130819D02*
X108652857Y-52083200D01*
X108652857Y-52083200D02*
X108700476Y-52035580D01*
X108700476Y-52035580D02*
X108748095Y-51940342D01*
X108748095Y-51940342D02*
X108748095Y-51845104D01*
X108748095Y-51845104D02*
X108700476Y-51749866D01*
X108700476Y-51749866D02*
X108652857Y-51702247D01*
X108652857Y-51702247D02*
X108557619Y-51654628D01*
X108557619Y-51654628D02*
X108367143Y-51607009D01*
X108367143Y-51607009D02*
X108271905Y-51559390D01*
X108271905Y-51559390D02*
X108224286Y-51511771D01*
X108224286Y-51511771D02*
X108176667Y-51416533D01*
X108176667Y-51416533D02*
X108176667Y-51321295D01*
X108176667Y-51321295D02*
X108224286Y-51226057D01*
X108224286Y-51226057D02*
X108271905Y-51178438D01*
X108271905Y-51178438D02*
X108367143Y-51130819D01*
X108367143Y-51130819D02*
X108605238Y-51130819D01*
X108605238Y-51130819D02*
X108748095Y-51178438D01*
X109081429Y-51130819D02*
X109319524Y-52130819D01*
X109319524Y-52130819D02*
X109510000Y-51416533D01*
X109510000Y-51416533D02*
X109700476Y-52130819D01*
X109700476Y-52130819D02*
X109938572Y-51130819D01*
X110843333Y-52130819D02*
X110271905Y-52130819D01*
X110557619Y-52130819D02*
X110557619Y-51130819D01*
X110557619Y-51130819D02*
X110462381Y-51273676D01*
X110462381Y-51273676D02*
X110367143Y-51368914D01*
X110367143Y-51368914D02*
X110271905Y-51416533D01*
X127226667Y-52083200D02*
X127369524Y-52130819D01*
X127369524Y-52130819D02*
X127607619Y-52130819D01*
X127607619Y-52130819D02*
X127702857Y-52083200D01*
X127702857Y-52083200D02*
X127750476Y-52035580D01*
X127750476Y-52035580D02*
X127798095Y-51940342D01*
X127798095Y-51940342D02*
X127798095Y-51845104D01*
X127798095Y-51845104D02*
X127750476Y-51749866D01*
X127750476Y-51749866D02*
X127702857Y-51702247D01*
X127702857Y-51702247D02*
X127607619Y-51654628D01*
X127607619Y-51654628D02*
X127417143Y-51607009D01*
X127417143Y-51607009D02*
X127321905Y-51559390D01*
X127321905Y-51559390D02*
X127274286Y-51511771D01*
X127274286Y-51511771D02*
X127226667Y-51416533D01*
X127226667Y-51416533D02*
X127226667Y-51321295D01*
X127226667Y-51321295D02*
X127274286Y-51226057D01*
X127274286Y-51226057D02*
X127321905Y-51178438D01*
X127321905Y-51178438D02*
X127417143Y-51130819D01*
X127417143Y-51130819D02*
X127655238Y-51130819D01*
X127655238Y-51130819D02*
X127798095Y-51178438D01*
X128131429Y-51130819D02*
X128369524Y-52130819D01*
X128369524Y-52130819D02*
X128560000Y-51416533D01*
X128560000Y-51416533D02*
X128750476Y-52130819D01*
X128750476Y-52130819D02*
X128988572Y-51130819D01*
X129321905Y-51226057D02*
X129369524Y-51178438D01*
X129369524Y-51178438D02*
X129464762Y-51130819D01*
X129464762Y-51130819D02*
X129702857Y-51130819D01*
X129702857Y-51130819D02*
X129798095Y-51178438D01*
X129798095Y-51178438D02*
X129845714Y-51226057D01*
X129845714Y-51226057D02*
X129893333Y-51321295D01*
X129893333Y-51321295D02*
X129893333Y-51416533D01*
X129893333Y-51416533D02*
X129845714Y-51559390D01*
X129845714Y-51559390D02*
X129274286Y-52130819D01*
X129274286Y-52130819D02*
X129893333Y-52130819D01*
X146276667Y-52083200D02*
X146419524Y-52130819D01*
X146419524Y-52130819D02*
X146657619Y-52130819D01*
X146657619Y-52130819D02*
X146752857Y-52083200D01*
X146752857Y-52083200D02*
X146800476Y-52035580D01*
X146800476Y-52035580D02*
X146848095Y-51940342D01*
X146848095Y-51940342D02*
X146848095Y-51845104D01*
X146848095Y-51845104D02*
X146800476Y-51749866D01*
X146800476Y-51749866D02*
X146752857Y-51702247D01*
X146752857Y-51702247D02*
X146657619Y-51654628D01*
X146657619Y-51654628D02*
X146467143Y-51607009D01*
X146467143Y-51607009D02*
X146371905Y-51559390D01*
X146371905Y-51559390D02*
X146324286Y-51511771D01*
X146324286Y-51511771D02*
X146276667Y-51416533D01*
X146276667Y-51416533D02*
X146276667Y-51321295D01*
X146276667Y-51321295D02*
X146324286Y-51226057D01*
X146324286Y-51226057D02*
X146371905Y-51178438D01*
X146371905Y-51178438D02*
X146467143Y-51130819D01*
X146467143Y-51130819D02*
X146705238Y-51130819D01*
X146705238Y-51130819D02*
X146848095Y-51178438D01*
X147181429Y-51130819D02*
X147419524Y-52130819D01*
X147419524Y-52130819D02*
X147610000Y-51416533D01*
X147610000Y-51416533D02*
X147800476Y-52130819D01*
X147800476Y-52130819D02*
X148038572Y-51130819D01*
X148324286Y-51130819D02*
X148943333Y-51130819D01*
X148943333Y-51130819D02*
X148610000Y-51511771D01*
X148610000Y-51511771D02*
X148752857Y-51511771D01*
X148752857Y-51511771D02*
X148848095Y-51559390D01*
X148848095Y-51559390D02*
X148895714Y-51607009D01*
X148895714Y-51607009D02*
X148943333Y-51702247D01*
X148943333Y-51702247D02*
X148943333Y-51940342D01*
X148943333Y-51940342D02*
X148895714Y-52035580D01*
X148895714Y-52035580D02*
X148848095Y-52083200D01*
X148848095Y-52083200D02*
X148752857Y-52130819D01*
X148752857Y-52130819D02*
X148467143Y-52130819D01*
X148467143Y-52130819D02*
X148371905Y-52083200D01*
X148371905Y-52083200D02*
X148324286Y-52035580D01*
X165326667Y-52083200D02*
X165469524Y-52130819D01*
X165469524Y-52130819D02*
X165707619Y-52130819D01*
X165707619Y-52130819D02*
X165802857Y-52083200D01*
X165802857Y-52083200D02*
X165850476Y-52035580D01*
X165850476Y-52035580D02*
X165898095Y-51940342D01*
X165898095Y-51940342D02*
X165898095Y-51845104D01*
X165898095Y-51845104D02*
X165850476Y-51749866D01*
X165850476Y-51749866D02*
X165802857Y-51702247D01*
X165802857Y-51702247D02*
X165707619Y-51654628D01*
X165707619Y-51654628D02*
X165517143Y-51607009D01*
X165517143Y-51607009D02*
X165421905Y-51559390D01*
X165421905Y-51559390D02*
X165374286Y-51511771D01*
X165374286Y-51511771D02*
X165326667Y-51416533D01*
X165326667Y-51416533D02*
X165326667Y-51321295D01*
X165326667Y-51321295D02*
X165374286Y-51226057D01*
X165374286Y-51226057D02*
X165421905Y-51178438D01*
X165421905Y-51178438D02*
X165517143Y-51130819D01*
X165517143Y-51130819D02*
X165755238Y-51130819D01*
X165755238Y-51130819D02*
X165898095Y-51178438D01*
X166231429Y-51130819D02*
X166469524Y-52130819D01*
X166469524Y-52130819D02*
X166660000Y-51416533D01*
X166660000Y-51416533D02*
X166850476Y-52130819D01*
X166850476Y-52130819D02*
X167088572Y-51130819D01*
X167898095Y-51464152D02*
X167898095Y-52130819D01*
X167660000Y-51083200D02*
X167421905Y-51797485D01*
X167421905Y-51797485D02*
X168040952Y-51797485D01*
X108176667Y-71133200D02*
X108319524Y-71180819D01*
X108319524Y-71180819D02*
X108557619Y-71180819D01*
X108557619Y-71180819D02*
X108652857Y-71133200D01*
X108652857Y-71133200D02*
X108700476Y-71085580D01*
X108700476Y-71085580D02*
X108748095Y-70990342D01*
X108748095Y-70990342D02*
X108748095Y-70895104D01*
X108748095Y-70895104D02*
X108700476Y-70799866D01*
X108700476Y-70799866D02*
X108652857Y-70752247D01*
X108652857Y-70752247D02*
X108557619Y-70704628D01*
X108557619Y-70704628D02*
X108367143Y-70657009D01*
X108367143Y-70657009D02*
X108271905Y-70609390D01*
X108271905Y-70609390D02*
X108224286Y-70561771D01*
X108224286Y-70561771D02*
X108176667Y-70466533D01*
X108176667Y-70466533D02*
X108176667Y-70371295D01*
X108176667Y-70371295D02*
X108224286Y-70276057D01*
X108224286Y-70276057D02*
X108271905Y-70228438D01*
X108271905Y-70228438D02*
X108367143Y-70180819D01*
X108367143Y-70180819D02*
X108605238Y-70180819D01*
X108605238Y-70180819D02*
X108748095Y-70228438D01*
X109081429Y-70180819D02*
X109319524Y-71180819D01*
X109319524Y-71180819D02*
X109510000Y-70466533D01*
X109510000Y-70466533D02*
X109700476Y-71180819D01*
X109700476Y-71180819D02*
X109938572Y-70180819D01*
X110795714Y-70180819D02*
X110319524Y-70180819D01*
X110319524Y-70180819D02*
X110271905Y-70657009D01*
X110271905Y-70657009D02*
X110319524Y-70609390D01*
X110319524Y-70609390D02*
X110414762Y-70561771D01*
X110414762Y-70561771D02*
X110652857Y-70561771D01*
X110652857Y-70561771D02*
X110748095Y-70609390D01*
X110748095Y-70609390D02*
X110795714Y-70657009D01*
X110795714Y-70657009D02*
X110843333Y-70752247D01*
X110843333Y-70752247D02*
X110843333Y-70990342D01*
X110843333Y-70990342D02*
X110795714Y-71085580D01*
X110795714Y-71085580D02*
X110748095Y-71133200D01*
X110748095Y-71133200D02*
X110652857Y-71180819D01*
X110652857Y-71180819D02*
X110414762Y-71180819D01*
X110414762Y-71180819D02*
X110319524Y-71133200D01*
X110319524Y-71133200D02*
X110271905Y-71085580D01*
X146276667Y-71133200D02*
X146419524Y-71180819D01*
X146419524Y-71180819D02*
X146657619Y-71180819D01*
X146657619Y-71180819D02*
X146752857Y-71133200D01*
X146752857Y-71133200D02*
X146800476Y-71085580D01*
X146800476Y-71085580D02*
X146848095Y-70990342D01*
X146848095Y-70990342D02*
X146848095Y-70895104D01*
X146848095Y-70895104D02*
X146800476Y-70799866D01*
X146800476Y-70799866D02*
X146752857Y-70752247D01*
X146752857Y-70752247D02*
X146657619Y-70704628D01*
X146657619Y-70704628D02*
X146467143Y-70657009D01*
X146467143Y-70657009D02*
X146371905Y-70609390D01*
X146371905Y-70609390D02*
X146324286Y-70561771D01*
X146324286Y-70561771D02*
X146276667Y-70466533D01*
X146276667Y-70466533D02*
X146276667Y-70371295D01*
X146276667Y-70371295D02*
X146324286Y-70276057D01*
X146324286Y-70276057D02*
X146371905Y-70228438D01*
X146371905Y-70228438D02*
X146467143Y-70180819D01*
X146467143Y-70180819D02*
X146705238Y-70180819D01*
X146705238Y-70180819D02*
X146848095Y-70228438D01*
X147181429Y-70180819D02*
X147419524Y-71180819D01*
X147419524Y-71180819D02*
X147610000Y-70466533D01*
X147610000Y-70466533D02*
X147800476Y-71180819D01*
X147800476Y-71180819D02*
X148038572Y-70180819D01*
X148324286Y-70180819D02*
X148990952Y-70180819D01*
X148990952Y-70180819D02*
X148562381Y-71180819D01*
X165326667Y-71133200D02*
X165469524Y-71180819D01*
X165469524Y-71180819D02*
X165707619Y-71180819D01*
X165707619Y-71180819D02*
X165802857Y-71133200D01*
X165802857Y-71133200D02*
X165850476Y-71085580D01*
X165850476Y-71085580D02*
X165898095Y-70990342D01*
X165898095Y-70990342D02*
X165898095Y-70895104D01*
X165898095Y-70895104D02*
X165850476Y-70799866D01*
X165850476Y-70799866D02*
X165802857Y-70752247D01*
X165802857Y-70752247D02*
X165707619Y-70704628D01*
X165707619Y-70704628D02*
X165517143Y-70657009D01*
X165517143Y-70657009D02*
X165421905Y-70609390D01*
X165421905Y-70609390D02*
X165374286Y-70561771D01*
X165374286Y-70561771D02*
X165326667Y-70466533D01*
X165326667Y-70466533D02*
X165326667Y-70371295D01*
X165326667Y-70371295D02*
X165374286Y-70276057D01*
X165374286Y-70276057D02*
X165421905Y-70228438D01*
X165421905Y-70228438D02*
X165517143Y-70180819D01*
X165517143Y-70180819D02*
X165755238Y-70180819D01*
X165755238Y-70180819D02*
X165898095Y-70228438D01*
X166231429Y-70180819D02*
X166469524Y-71180819D01*
X166469524Y-71180819D02*
X166660000Y-70466533D01*
X166660000Y-70466533D02*
X166850476Y-71180819D01*
X166850476Y-71180819D02*
X167088572Y-70180819D01*
X167612381Y-70609390D02*
X167517143Y-70561771D01*
X167517143Y-70561771D02*
X167469524Y-70514152D01*
X167469524Y-70514152D02*
X167421905Y-70418914D01*
X167421905Y-70418914D02*
X167421905Y-70371295D01*
X167421905Y-70371295D02*
X167469524Y-70276057D01*
X167469524Y-70276057D02*
X167517143Y-70228438D01*
X167517143Y-70228438D02*
X167612381Y-70180819D01*
X167612381Y-70180819D02*
X167802857Y-70180819D01*
X167802857Y-70180819D02*
X167898095Y-70228438D01*
X167898095Y-70228438D02*
X167945714Y-70276057D01*
X167945714Y-70276057D02*
X167993333Y-70371295D01*
X167993333Y-70371295D02*
X167993333Y-70418914D01*
X167993333Y-70418914D02*
X167945714Y-70514152D01*
X167945714Y-70514152D02*
X167898095Y-70561771D01*
X167898095Y-70561771D02*
X167802857Y-70609390D01*
X167802857Y-70609390D02*
X167612381Y-70609390D01*
X167612381Y-70609390D02*
X167517143Y-70657009D01*
X167517143Y-70657009D02*
X167469524Y-70704628D01*
X167469524Y-70704628D02*
X167421905Y-70799866D01*
X167421905Y-70799866D02*
X167421905Y-70990342D01*
X167421905Y-70990342D02*
X167469524Y-71085580D01*
X167469524Y-71085580D02*
X167517143Y-71133200D01*
X167517143Y-71133200D02*
X167612381Y-71180819D01*
X167612381Y-71180819D02*
X167802857Y-71180819D01*
X167802857Y-71180819D02*
X167898095Y-71133200D01*
X167898095Y-71133200D02*
X167945714Y-71085580D01*
X167945714Y-71085580D02*
X167993333Y-70990342D01*
X167993333Y-70990342D02*
X167993333Y-70799866D01*
X167993333Y-70799866D02*
X167945714Y-70704628D01*
X167945714Y-70704628D02*
X167898095Y-70657009D01*
X167898095Y-70657009D02*
X167802857Y-70609390D01*
X108176667Y-90183200D02*
X108319524Y-90230819D01*
X108319524Y-90230819D02*
X108557619Y-90230819D01*
X108557619Y-90230819D02*
X108652857Y-90183200D01*
X108652857Y-90183200D02*
X108700476Y-90135580D01*
X108700476Y-90135580D02*
X108748095Y-90040342D01*
X108748095Y-90040342D02*
X108748095Y-89945104D01*
X108748095Y-89945104D02*
X108700476Y-89849866D01*
X108700476Y-89849866D02*
X108652857Y-89802247D01*
X108652857Y-89802247D02*
X108557619Y-89754628D01*
X108557619Y-89754628D02*
X108367143Y-89707009D01*
X108367143Y-89707009D02*
X108271905Y-89659390D01*
X108271905Y-89659390D02*
X108224286Y-89611771D01*
X108224286Y-89611771D02*
X108176667Y-89516533D01*
X108176667Y-89516533D02*
X108176667Y-89421295D01*
X108176667Y-89421295D02*
X108224286Y-89326057D01*
X108224286Y-89326057D02*
X108271905Y-89278438D01*
X108271905Y-89278438D02*
X108367143Y-89230819D01*
X108367143Y-89230819D02*
X108605238Y-89230819D01*
X108605238Y-89230819D02*
X108748095Y-89278438D01*
X109081429Y-89230819D02*
X109319524Y-90230819D01*
X109319524Y-90230819D02*
X109510000Y-89516533D01*
X109510000Y-89516533D02*
X109700476Y-90230819D01*
X109700476Y-90230819D02*
X109938572Y-89230819D01*
X110367143Y-90230819D02*
X110557619Y-90230819D01*
X110557619Y-90230819D02*
X110652857Y-90183200D01*
X110652857Y-90183200D02*
X110700476Y-90135580D01*
X110700476Y-90135580D02*
X110795714Y-89992723D01*
X110795714Y-89992723D02*
X110843333Y-89802247D01*
X110843333Y-89802247D02*
X110843333Y-89421295D01*
X110843333Y-89421295D02*
X110795714Y-89326057D01*
X110795714Y-89326057D02*
X110748095Y-89278438D01*
X110748095Y-89278438D02*
X110652857Y-89230819D01*
X110652857Y-89230819D02*
X110462381Y-89230819D01*
X110462381Y-89230819D02*
X110367143Y-89278438D01*
X110367143Y-89278438D02*
X110319524Y-89326057D01*
X110319524Y-89326057D02*
X110271905Y-89421295D01*
X110271905Y-89421295D02*
X110271905Y-89659390D01*
X110271905Y-89659390D02*
X110319524Y-89754628D01*
X110319524Y-89754628D02*
X110367143Y-89802247D01*
X110367143Y-89802247D02*
X110462381Y-89849866D01*
X110462381Y-89849866D02*
X110652857Y-89849866D01*
X110652857Y-89849866D02*
X110748095Y-89802247D01*
X110748095Y-89802247D02*
X110795714Y-89754628D01*
X110795714Y-89754628D02*
X110843333Y-89659390D01*
X126750476Y-90183200D02*
X126893333Y-90230819D01*
X126893333Y-90230819D02*
X127131428Y-90230819D01*
X127131428Y-90230819D02*
X127226666Y-90183200D01*
X127226666Y-90183200D02*
X127274285Y-90135580D01*
X127274285Y-90135580D02*
X127321904Y-90040342D01*
X127321904Y-90040342D02*
X127321904Y-89945104D01*
X127321904Y-89945104D02*
X127274285Y-89849866D01*
X127274285Y-89849866D02*
X127226666Y-89802247D01*
X127226666Y-89802247D02*
X127131428Y-89754628D01*
X127131428Y-89754628D02*
X126940952Y-89707009D01*
X126940952Y-89707009D02*
X126845714Y-89659390D01*
X126845714Y-89659390D02*
X126798095Y-89611771D01*
X126798095Y-89611771D02*
X126750476Y-89516533D01*
X126750476Y-89516533D02*
X126750476Y-89421295D01*
X126750476Y-89421295D02*
X126798095Y-89326057D01*
X126798095Y-89326057D02*
X126845714Y-89278438D01*
X126845714Y-89278438D02*
X126940952Y-89230819D01*
X126940952Y-89230819D02*
X127179047Y-89230819D01*
X127179047Y-89230819D02*
X127321904Y-89278438D01*
X127655238Y-89230819D02*
X127893333Y-90230819D01*
X127893333Y-90230819D02*
X128083809Y-89516533D01*
X128083809Y-89516533D02*
X128274285Y-90230819D01*
X128274285Y-90230819D02*
X128512381Y-89230819D01*
X129417142Y-90230819D02*
X128845714Y-90230819D01*
X129131428Y-90230819D02*
X129131428Y-89230819D01*
X129131428Y-89230819D02*
X129036190Y-89373676D01*
X129036190Y-89373676D02*
X128940952Y-89468914D01*
X128940952Y-89468914D02*
X128845714Y-89516533D01*
X130036190Y-89230819D02*
X130131428Y-89230819D01*
X130131428Y-89230819D02*
X130226666Y-89278438D01*
X130226666Y-89278438D02*
X130274285Y-89326057D01*
X130274285Y-89326057D02*
X130321904Y-89421295D01*
X130321904Y-89421295D02*
X130369523Y-89611771D01*
X130369523Y-89611771D02*
X130369523Y-89849866D01*
X130369523Y-89849866D02*
X130321904Y-90040342D01*
X130321904Y-90040342D02*
X130274285Y-90135580D01*
X130274285Y-90135580D02*
X130226666Y-90183200D01*
X130226666Y-90183200D02*
X130131428Y-90230819D01*
X130131428Y-90230819D02*
X130036190Y-90230819D01*
X130036190Y-90230819D02*
X129940952Y-90183200D01*
X129940952Y-90183200D02*
X129893333Y-90135580D01*
X129893333Y-90135580D02*
X129845714Y-90040342D01*
X129845714Y-90040342D02*
X129798095Y-89849866D01*
X129798095Y-89849866D02*
X129798095Y-89611771D01*
X129798095Y-89611771D02*
X129845714Y-89421295D01*
X129845714Y-89421295D02*
X129893333Y-89326057D01*
X129893333Y-89326057D02*
X129940952Y-89278438D01*
X129940952Y-89278438D02*
X130036190Y-89230819D01*
X145800476Y-90183200D02*
X145943333Y-90230819D01*
X145943333Y-90230819D02*
X146181428Y-90230819D01*
X146181428Y-90230819D02*
X146276666Y-90183200D01*
X146276666Y-90183200D02*
X146324285Y-90135580D01*
X146324285Y-90135580D02*
X146371904Y-90040342D01*
X146371904Y-90040342D02*
X146371904Y-89945104D01*
X146371904Y-89945104D02*
X146324285Y-89849866D01*
X146324285Y-89849866D02*
X146276666Y-89802247D01*
X146276666Y-89802247D02*
X146181428Y-89754628D01*
X146181428Y-89754628D02*
X145990952Y-89707009D01*
X145990952Y-89707009D02*
X145895714Y-89659390D01*
X145895714Y-89659390D02*
X145848095Y-89611771D01*
X145848095Y-89611771D02*
X145800476Y-89516533D01*
X145800476Y-89516533D02*
X145800476Y-89421295D01*
X145800476Y-89421295D02*
X145848095Y-89326057D01*
X145848095Y-89326057D02*
X145895714Y-89278438D01*
X145895714Y-89278438D02*
X145990952Y-89230819D01*
X145990952Y-89230819D02*
X146229047Y-89230819D01*
X146229047Y-89230819D02*
X146371904Y-89278438D01*
X146705238Y-89230819D02*
X146943333Y-90230819D01*
X146943333Y-90230819D02*
X147133809Y-89516533D01*
X147133809Y-89516533D02*
X147324285Y-90230819D01*
X147324285Y-90230819D02*
X147562381Y-89230819D01*
X148467142Y-90230819D02*
X147895714Y-90230819D01*
X148181428Y-90230819D02*
X148181428Y-89230819D01*
X148181428Y-89230819D02*
X148086190Y-89373676D01*
X148086190Y-89373676D02*
X147990952Y-89468914D01*
X147990952Y-89468914D02*
X147895714Y-89516533D01*
X149419523Y-90230819D02*
X148848095Y-90230819D01*
X149133809Y-90230819D02*
X149133809Y-89230819D01*
X149133809Y-89230819D02*
X149038571Y-89373676D01*
X149038571Y-89373676D02*
X148943333Y-89468914D01*
X148943333Y-89468914D02*
X148848095Y-89516533D01*
X164850476Y-90183200D02*
X164993333Y-90230819D01*
X164993333Y-90230819D02*
X165231428Y-90230819D01*
X165231428Y-90230819D02*
X165326666Y-90183200D01*
X165326666Y-90183200D02*
X165374285Y-90135580D01*
X165374285Y-90135580D02*
X165421904Y-90040342D01*
X165421904Y-90040342D02*
X165421904Y-89945104D01*
X165421904Y-89945104D02*
X165374285Y-89849866D01*
X165374285Y-89849866D02*
X165326666Y-89802247D01*
X165326666Y-89802247D02*
X165231428Y-89754628D01*
X165231428Y-89754628D02*
X165040952Y-89707009D01*
X165040952Y-89707009D02*
X164945714Y-89659390D01*
X164945714Y-89659390D02*
X164898095Y-89611771D01*
X164898095Y-89611771D02*
X164850476Y-89516533D01*
X164850476Y-89516533D02*
X164850476Y-89421295D01*
X164850476Y-89421295D02*
X164898095Y-89326057D01*
X164898095Y-89326057D02*
X164945714Y-89278438D01*
X164945714Y-89278438D02*
X165040952Y-89230819D01*
X165040952Y-89230819D02*
X165279047Y-89230819D01*
X165279047Y-89230819D02*
X165421904Y-89278438D01*
X165755238Y-89230819D02*
X165993333Y-90230819D01*
X165993333Y-90230819D02*
X166183809Y-89516533D01*
X166183809Y-89516533D02*
X166374285Y-90230819D01*
X166374285Y-90230819D02*
X166612381Y-89230819D01*
X167517142Y-90230819D02*
X166945714Y-90230819D01*
X167231428Y-90230819D02*
X167231428Y-89230819D01*
X167231428Y-89230819D02*
X167136190Y-89373676D01*
X167136190Y-89373676D02*
X167040952Y-89468914D01*
X167040952Y-89468914D02*
X166945714Y-89516533D01*
X167898095Y-89326057D02*
X167945714Y-89278438D01*
X167945714Y-89278438D02*
X168040952Y-89230819D01*
X168040952Y-89230819D02*
X168279047Y-89230819D01*
X168279047Y-89230819D02*
X168374285Y-89278438D01*
X168374285Y-89278438D02*
X168421904Y-89326057D01*
X168421904Y-89326057D02*
X168469523Y-89421295D01*
X168469523Y-89421295D02*
X168469523Y-89516533D01*
X168469523Y-89516533D02*
X168421904Y-89659390D01*
X168421904Y-89659390D02*
X167850476Y-90230819D01*
X167850476Y-90230819D02*
X168469523Y-90230819D01*
X107700476Y-109233200D02*
X107843333Y-109280819D01*
X107843333Y-109280819D02*
X108081428Y-109280819D01*
X108081428Y-109280819D02*
X108176666Y-109233200D01*
X108176666Y-109233200D02*
X108224285Y-109185580D01*
X108224285Y-109185580D02*
X108271904Y-109090342D01*
X108271904Y-109090342D02*
X108271904Y-108995104D01*
X108271904Y-108995104D02*
X108224285Y-108899866D01*
X108224285Y-108899866D02*
X108176666Y-108852247D01*
X108176666Y-108852247D02*
X108081428Y-108804628D01*
X108081428Y-108804628D02*
X107890952Y-108757009D01*
X107890952Y-108757009D02*
X107795714Y-108709390D01*
X107795714Y-108709390D02*
X107748095Y-108661771D01*
X107748095Y-108661771D02*
X107700476Y-108566533D01*
X107700476Y-108566533D02*
X107700476Y-108471295D01*
X107700476Y-108471295D02*
X107748095Y-108376057D01*
X107748095Y-108376057D02*
X107795714Y-108328438D01*
X107795714Y-108328438D02*
X107890952Y-108280819D01*
X107890952Y-108280819D02*
X108129047Y-108280819D01*
X108129047Y-108280819D02*
X108271904Y-108328438D01*
X108605238Y-108280819D02*
X108843333Y-109280819D01*
X108843333Y-109280819D02*
X109033809Y-108566533D01*
X109033809Y-108566533D02*
X109224285Y-109280819D01*
X109224285Y-109280819D02*
X109462381Y-108280819D01*
X110367142Y-109280819D02*
X109795714Y-109280819D01*
X110081428Y-109280819D02*
X110081428Y-108280819D01*
X110081428Y-108280819D02*
X109986190Y-108423676D01*
X109986190Y-108423676D02*
X109890952Y-108518914D01*
X109890952Y-108518914D02*
X109795714Y-108566533D01*
X110700476Y-108280819D02*
X111319523Y-108280819D01*
X111319523Y-108280819D02*
X110986190Y-108661771D01*
X110986190Y-108661771D02*
X111129047Y-108661771D01*
X111129047Y-108661771D02*
X111224285Y-108709390D01*
X111224285Y-108709390D02*
X111271904Y-108757009D01*
X111271904Y-108757009D02*
X111319523Y-108852247D01*
X111319523Y-108852247D02*
X111319523Y-109090342D01*
X111319523Y-109090342D02*
X111271904Y-109185580D01*
X111271904Y-109185580D02*
X111224285Y-109233200D01*
X111224285Y-109233200D02*
X111129047Y-109280819D01*
X111129047Y-109280819D02*
X110843333Y-109280819D01*
X110843333Y-109280819D02*
X110748095Y-109233200D01*
X110748095Y-109233200D02*
X110700476Y-109185580D01*
X126750476Y-109233200D02*
X126893333Y-109280819D01*
X126893333Y-109280819D02*
X127131428Y-109280819D01*
X127131428Y-109280819D02*
X127226666Y-109233200D01*
X127226666Y-109233200D02*
X127274285Y-109185580D01*
X127274285Y-109185580D02*
X127321904Y-109090342D01*
X127321904Y-109090342D02*
X127321904Y-108995104D01*
X127321904Y-108995104D02*
X127274285Y-108899866D01*
X127274285Y-108899866D02*
X127226666Y-108852247D01*
X127226666Y-108852247D02*
X127131428Y-108804628D01*
X127131428Y-108804628D02*
X126940952Y-108757009D01*
X126940952Y-108757009D02*
X126845714Y-108709390D01*
X126845714Y-108709390D02*
X126798095Y-108661771D01*
X126798095Y-108661771D02*
X126750476Y-108566533D01*
X126750476Y-108566533D02*
X126750476Y-108471295D01*
X126750476Y-108471295D02*
X126798095Y-108376057D01*
X126798095Y-108376057D02*
X126845714Y-108328438D01*
X126845714Y-108328438D02*
X126940952Y-108280819D01*
X126940952Y-108280819D02*
X127179047Y-108280819D01*
X127179047Y-108280819D02*
X127321904Y-108328438D01*
X127655238Y-108280819D02*
X127893333Y-109280819D01*
X127893333Y-109280819D02*
X128083809Y-108566533D01*
X128083809Y-108566533D02*
X128274285Y-109280819D01*
X128274285Y-109280819D02*
X128512381Y-108280819D01*
X129417142Y-109280819D02*
X128845714Y-109280819D01*
X129131428Y-109280819D02*
X129131428Y-108280819D01*
X129131428Y-108280819D02*
X129036190Y-108423676D01*
X129036190Y-108423676D02*
X128940952Y-108518914D01*
X128940952Y-108518914D02*
X128845714Y-108566533D01*
X130274285Y-108614152D02*
X130274285Y-109280819D01*
X130036190Y-108233200D02*
X129798095Y-108947485D01*
X129798095Y-108947485D02*
X130417142Y-108947485D01*
X145800476Y-109233200D02*
X145943333Y-109280819D01*
X145943333Y-109280819D02*
X146181428Y-109280819D01*
X146181428Y-109280819D02*
X146276666Y-109233200D01*
X146276666Y-109233200D02*
X146324285Y-109185580D01*
X146324285Y-109185580D02*
X146371904Y-109090342D01*
X146371904Y-109090342D02*
X146371904Y-108995104D01*
X146371904Y-108995104D02*
X146324285Y-108899866D01*
X146324285Y-108899866D02*
X146276666Y-108852247D01*
X146276666Y-108852247D02*
X146181428Y-108804628D01*
X146181428Y-108804628D02*
X145990952Y-108757009D01*
X145990952Y-108757009D02*
X145895714Y-108709390D01*
X145895714Y-108709390D02*
X145848095Y-108661771D01*
X145848095Y-108661771D02*
X145800476Y-108566533D01*
X145800476Y-108566533D02*
X145800476Y-108471295D01*
X145800476Y-108471295D02*
X145848095Y-108376057D01*
X145848095Y-108376057D02*
X145895714Y-108328438D01*
X145895714Y-108328438D02*
X145990952Y-108280819D01*
X145990952Y-108280819D02*
X146229047Y-108280819D01*
X146229047Y-108280819D02*
X146371904Y-108328438D01*
X146705238Y-108280819D02*
X146943333Y-109280819D01*
X146943333Y-109280819D02*
X147133809Y-108566533D01*
X147133809Y-108566533D02*
X147324285Y-109280819D01*
X147324285Y-109280819D02*
X147562381Y-108280819D01*
X148467142Y-109280819D02*
X147895714Y-109280819D01*
X148181428Y-109280819D02*
X148181428Y-108280819D01*
X148181428Y-108280819D02*
X148086190Y-108423676D01*
X148086190Y-108423676D02*
X147990952Y-108518914D01*
X147990952Y-108518914D02*
X147895714Y-108566533D01*
X149371904Y-108280819D02*
X148895714Y-108280819D01*
X148895714Y-108280819D02*
X148848095Y-108757009D01*
X148848095Y-108757009D02*
X148895714Y-108709390D01*
X148895714Y-108709390D02*
X148990952Y-108661771D01*
X148990952Y-108661771D02*
X149229047Y-108661771D01*
X149229047Y-108661771D02*
X149324285Y-108709390D01*
X149324285Y-108709390D02*
X149371904Y-108757009D01*
X149371904Y-108757009D02*
X149419523Y-108852247D01*
X149419523Y-108852247D02*
X149419523Y-109090342D01*
X149419523Y-109090342D02*
X149371904Y-109185580D01*
X149371904Y-109185580D02*
X149324285Y-109233200D01*
X149324285Y-109233200D02*
X149229047Y-109280819D01*
X149229047Y-109280819D02*
X148990952Y-109280819D01*
X148990952Y-109280819D02*
X148895714Y-109233200D01*
X148895714Y-109233200D02*
X148848095Y-109185580D01*
X164850476Y-109233200D02*
X164993333Y-109280819D01*
X164993333Y-109280819D02*
X165231428Y-109280819D01*
X165231428Y-109280819D02*
X165326666Y-109233200D01*
X165326666Y-109233200D02*
X165374285Y-109185580D01*
X165374285Y-109185580D02*
X165421904Y-109090342D01*
X165421904Y-109090342D02*
X165421904Y-108995104D01*
X165421904Y-108995104D02*
X165374285Y-108899866D01*
X165374285Y-108899866D02*
X165326666Y-108852247D01*
X165326666Y-108852247D02*
X165231428Y-108804628D01*
X165231428Y-108804628D02*
X165040952Y-108757009D01*
X165040952Y-108757009D02*
X164945714Y-108709390D01*
X164945714Y-108709390D02*
X164898095Y-108661771D01*
X164898095Y-108661771D02*
X164850476Y-108566533D01*
X164850476Y-108566533D02*
X164850476Y-108471295D01*
X164850476Y-108471295D02*
X164898095Y-108376057D01*
X164898095Y-108376057D02*
X164945714Y-108328438D01*
X164945714Y-108328438D02*
X165040952Y-108280819D01*
X165040952Y-108280819D02*
X165279047Y-108280819D01*
X165279047Y-108280819D02*
X165421904Y-108328438D01*
X165755238Y-108280819D02*
X165993333Y-109280819D01*
X165993333Y-109280819D02*
X166183809Y-108566533D01*
X166183809Y-108566533D02*
X166374285Y-109280819D01*
X166374285Y-109280819D02*
X166612381Y-108280819D01*
X167517142Y-109280819D02*
X166945714Y-109280819D01*
X167231428Y-109280819D02*
X167231428Y-108280819D01*
X167231428Y-108280819D02*
X167136190Y-108423676D01*
X167136190Y-108423676D02*
X167040952Y-108518914D01*
X167040952Y-108518914D02*
X166945714Y-108566533D01*
X168374285Y-108280819D02*
X168183809Y-108280819D01*
X168183809Y-108280819D02*
X168088571Y-108328438D01*
X168088571Y-108328438D02*
X168040952Y-108376057D01*
X168040952Y-108376057D02*
X167945714Y-108518914D01*
X167945714Y-108518914D02*
X167898095Y-108709390D01*
X167898095Y-108709390D02*
X167898095Y-109090342D01*
X167898095Y-109090342D02*
X167945714Y-109185580D01*
X167945714Y-109185580D02*
X167993333Y-109233200D01*
X167993333Y-109233200D02*
X168088571Y-109280819D01*
X168088571Y-109280819D02*
X168279047Y-109280819D01*
X168279047Y-109280819D02*
X168374285Y-109233200D01*
X168374285Y-109233200D02*
X168421904Y-109185580D01*
X168421904Y-109185580D02*
X168469523Y-109090342D01*
X168469523Y-109090342D02*
X168469523Y-108852247D01*
X168469523Y-108852247D02*
X168421904Y-108757009D01*
X168421904Y-108757009D02*
X168374285Y-108709390D01*
X168374285Y-108709390D02*
X168279047Y-108661771D01*
X168279047Y-108661771D02*
X168088571Y-108661771D01*
X168088571Y-108661771D02*
X167993333Y-108709390D01*
X167993333Y-108709390D02*
X167945714Y-108757009D01*
X167945714Y-108757009D02*
X167898095Y-108852247D01*
X127226667Y-71133200D02*
X127369524Y-71180819D01*
X127369524Y-71180819D02*
X127607619Y-71180819D01*
X127607619Y-71180819D02*
X127702857Y-71133200D01*
X127702857Y-71133200D02*
X127750476Y-71085580D01*
X127750476Y-71085580D02*
X127798095Y-70990342D01*
X127798095Y-70990342D02*
X127798095Y-70895104D01*
X127798095Y-70895104D02*
X127750476Y-70799866D01*
X127750476Y-70799866D02*
X127702857Y-70752247D01*
X127702857Y-70752247D02*
X127607619Y-70704628D01*
X127607619Y-70704628D02*
X127417143Y-70657009D01*
X127417143Y-70657009D02*
X127321905Y-70609390D01*
X127321905Y-70609390D02*
X127274286Y-70561771D01*
X127274286Y-70561771D02*
X127226667Y-70466533D01*
X127226667Y-70466533D02*
X127226667Y-70371295D01*
X127226667Y-70371295D02*
X127274286Y-70276057D01*
X127274286Y-70276057D02*
X127321905Y-70228438D01*
X127321905Y-70228438D02*
X127417143Y-70180819D01*
X127417143Y-70180819D02*
X127655238Y-70180819D01*
X127655238Y-70180819D02*
X127798095Y-70228438D01*
X128131429Y-70180819D02*
X128369524Y-71180819D01*
X128369524Y-71180819D02*
X128560000Y-70466533D01*
X128560000Y-70466533D02*
X128750476Y-71180819D01*
X128750476Y-71180819D02*
X128988572Y-70180819D01*
X129798095Y-70180819D02*
X129607619Y-70180819D01*
X129607619Y-70180819D02*
X129512381Y-70228438D01*
X129512381Y-70228438D02*
X129464762Y-70276057D01*
X129464762Y-70276057D02*
X129369524Y-70418914D01*
X129369524Y-70418914D02*
X129321905Y-70609390D01*
X129321905Y-70609390D02*
X129321905Y-70990342D01*
X129321905Y-70990342D02*
X129369524Y-71085580D01*
X129369524Y-71085580D02*
X129417143Y-71133200D01*
X129417143Y-71133200D02*
X129512381Y-71180819D01*
X129512381Y-71180819D02*
X129702857Y-71180819D01*
X129702857Y-71180819D02*
X129798095Y-71133200D01*
X129798095Y-71133200D02*
X129845714Y-71085580D01*
X129845714Y-71085580D02*
X129893333Y-70990342D01*
X129893333Y-70990342D02*
X129893333Y-70752247D01*
X129893333Y-70752247D02*
X129845714Y-70657009D01*
X129845714Y-70657009D02*
X129798095Y-70609390D01*
X129798095Y-70609390D02*
X129702857Y-70561771D01*
X129702857Y-70561771D02*
X129512381Y-70561771D01*
X129512381Y-70561771D02*
X129417143Y-70609390D01*
X129417143Y-70609390D02*
X129369524Y-70657009D01*
X129369524Y-70657009D02*
X129321905Y-70752247D01*
D11*
X155320000Y-45980000D02*
X155320000Y-44600000D01*
X156700000Y-45980000D02*
X155320000Y-45980000D01*
X157970000Y-43220000D02*
X175860000Y-43220000D01*
X157970000Y-45980000D02*
X157970000Y-43220000D01*
X157970000Y-45980000D02*
X175860000Y-45980000D01*
X175860000Y-45980000D02*
X175860000Y-43220000D01*
X102525000Y-52565000D02*
X116495000Y-52565000D01*
X102525000Y-66535000D02*
X102525000Y-52565000D01*
X116495000Y-52565000D02*
X116495000Y-66535000D01*
X116495000Y-66535000D02*
X102525000Y-66535000D01*
X121575000Y-52565000D02*
X135545000Y-52565000D01*
X121575000Y-66535000D02*
X121575000Y-52565000D01*
X135545000Y-52565000D02*
X135545000Y-66535000D01*
X135545000Y-66535000D02*
X121575000Y-66535000D01*
X140625000Y-52565000D02*
X154595000Y-52565000D01*
X140625000Y-66535000D02*
X140625000Y-52565000D01*
X154595000Y-52565000D02*
X154595000Y-66535000D01*
X154595000Y-66535000D02*
X140625000Y-66535000D01*
X159675000Y-52565000D02*
X173645000Y-52565000D01*
X159675000Y-66535000D02*
X159675000Y-52565000D01*
X173645000Y-52565000D02*
X173645000Y-66535000D01*
X173645000Y-66535000D02*
X159675000Y-66535000D01*
X102525000Y-71615000D02*
X116495000Y-71615000D01*
X102525000Y-85585000D02*
X102525000Y-71615000D01*
X116495000Y-71615000D02*
X116495000Y-85585000D01*
X116495000Y-85585000D02*
X102525000Y-85585000D01*
X140625000Y-71615000D02*
X154595000Y-71615000D01*
X140625000Y-85585000D02*
X140625000Y-71615000D01*
X154595000Y-71615000D02*
X154595000Y-85585000D01*
X154595000Y-85585000D02*
X140625000Y-85585000D01*
X159675000Y-71615000D02*
X173645000Y-71615000D01*
X159675000Y-85585000D02*
X159675000Y-71615000D01*
X173645000Y-71615000D02*
X173645000Y-85585000D01*
X173645000Y-85585000D02*
X159675000Y-85585000D01*
X102525000Y-90665000D02*
X116495000Y-90665000D01*
X102525000Y-104635000D02*
X102525000Y-90665000D01*
X116495000Y-90665000D02*
X116495000Y-104635000D01*
X116495000Y-104635000D02*
X102525000Y-104635000D01*
X121575000Y-90665000D02*
X135545000Y-90665000D01*
X121575000Y-104635000D02*
X121575000Y-90665000D01*
X135545000Y-90665000D02*
X135545000Y-104635000D01*
X135545000Y-104635000D02*
X121575000Y-104635000D01*
X140625000Y-90665000D02*
X154595000Y-90665000D01*
X140625000Y-104635000D02*
X140625000Y-90665000D01*
X154595000Y-90665000D02*
X154595000Y-104635000D01*
X154595000Y-104635000D02*
X140625000Y-104635000D01*
X159675000Y-90665000D02*
X173645000Y-90665000D01*
X159675000Y-104635000D02*
X159675000Y-90665000D01*
X173645000Y-90665000D02*
X173645000Y-104635000D01*
X173645000Y-104635000D02*
X159675000Y-104635000D01*
X102525000Y-109715000D02*
X116495000Y-109715000D01*
X102525000Y-123685000D02*
X102525000Y-109715000D01*
X116495000Y-109715000D02*
X116495000Y-123685000D01*
X116495000Y-123685000D02*
X102525000Y-123685000D01*
X121575000Y-109715000D02*
X135545000Y-109715000D01*
X121575000Y-123685000D02*
X121575000Y-109715000D01*
X135545000Y-109715000D02*
X135545000Y-123685000D01*
X135545000Y-123685000D02*
X121575000Y-123685000D01*
X140625000Y-109715000D02*
X154595000Y-109715000D01*
X140625000Y-123685000D02*
X140625000Y-109715000D01*
X154595000Y-109715000D02*
X154595000Y-123685000D01*
X154595000Y-123685000D02*
X140625000Y-123685000D01*
X159675000Y-109715000D02*
X173645000Y-109715000D01*
X159675000Y-123685000D02*
X159675000Y-109715000D01*
X173645000Y-109715000D02*
X173645000Y-123685000D01*
X173645000Y-123685000D02*
X159675000Y-123685000D01*
X121575000Y-71615000D02*
X135545000Y-71615000D01*
X121575000Y-85585000D02*
X121575000Y-71615000D01*
X135545000Y-71615000D02*
X135545000Y-85585000D01*
X135545000Y-85585000D02*
X121575000Y-85585000D01*
M02*
