M48
; DRILL file KiCad 10.0.5 date 2026-09-10T14:25:15
; FORMAT={-:-/ absolute / metric / decimal}
; #@! TF.CreationDate,2026-09-10T14:25:15+08:00
; #@! TF.GenerationSoftware,Kicad,Pcbnew,10.0.5
; #@! TF.FileFunction,NonPlated,1,2,NPTH
FMAT,2
METRIC
; #@! TA.AperFunction,NonPlated,NPTH,ComponentDrill
T1C0.600
; #@! TA.AperFunction,NonPlated,NPTH,ComponentDrill
T2C1.700
; #@! TA.AperFunction,NonPlated,NPTH,ComponentDrill
T3C4.000
%
G90
G05
T1
X106.62Y-45.76
X112.4Y-45.76
T2
X104.43Y-59.55
X104.43Y-78.6
X104.43Y-97.65
X104.43Y-116.7
X114.59Y-59.55
X114.59Y-78.6
X114.59Y-97.65
X114.59Y-116.7
X123.48Y-59.55
X123.48Y-78.6
X123.48Y-97.65
X123.48Y-116.7
X133.64Y-59.55
X133.64Y-78.6
X133.64Y-97.65
X133.64Y-116.7
X142.53Y-59.55
X142.53Y-78.6
X142.53Y-97.65
X142.53Y-116.7
X152.69Y-59.55
X152.69Y-78.6
X152.69Y-97.65
X152.69Y-116.7
X161.58Y-59.55
X161.58Y-78.6
X161.58Y-97.65
X161.58Y-116.7
X171.74Y-59.55
X171.74Y-78.6
X171.74Y-97.65
X171.74Y-116.7
T3
X109.51Y-59.55
X109.51Y-78.6
X109.51Y-97.65
X109.51Y-116.7
X128.56Y-59.55
X128.56Y-78.6
X128.56Y-97.65
X128.56Y-116.7
X147.61Y-59.55
X147.61Y-78.6
X147.61Y-97.65
X147.61Y-116.7
X166.66Y-59.55
X166.66Y-78.6
X166.66Y-97.65
X166.66Y-116.7
M30
