%TF.GenerationSoftware,KiCad,Pcbnew,10.0.5*%
%TF.CreationDate,2026-09-10T14:25:24+08:00*%
%TF.ProjectId,XS16,58533136-2e6b-4696-9361-645f70636258,rev?*%
%TF.SameCoordinates,Original*%
%TF.FileFunction,NonPlated,1,2,NPTH,Drill*%
%TF.FilePolarity,Positive*%
%FSLAX46Y46*%
G04 Gerber Fmt 4.6, Leading zero omitted, Abs format (unit mm)*
G04 Created by KiCad (PCBNEW 10.0.5) date 2026-09-10 14:25:24*
%MOMM*%
%LPD*%
G01*
G04 APERTURE LIST*
%TA.AperFunction,ComponentDrill*%
%ADD10C,0.600000*%
%TD*%
%TA.AperFunction,ComponentDrill*%
%ADD11C,1.700000*%
%TD*%
%TA.AperFunction,ComponentDrill*%
%ADD12C,4.000000*%
%TD*%
G04 APERTURE END LIST*
D10*
%TO.C,J1*%
X106620000Y-45760000D03*
X112400000Y-45760000D03*
D11*
%TO.C,SW1*%
X104430000Y-59550000D03*
%TO.C,SW5*%
X104430000Y-78600000D03*
%TO.C,SW9*%
X104430000Y-97650000D03*
%TO.C,SW13*%
X104430000Y-116700000D03*
%TO.C,SW1*%
X114590000Y-59550000D03*
%TO.C,SW5*%
X114590000Y-78600000D03*
%TO.C,SW9*%
X114590000Y-97650000D03*
%TO.C,SW13*%
X114590000Y-116700000D03*
%TO.C,SW2*%
X123480000Y-59550000D03*
%TO.C,SW6*%
X123480000Y-78600000D03*
%TO.C,SW10*%
X123480000Y-97650000D03*
%TO.C,SW14*%
X123480000Y-116700000D03*
%TO.C,SW2*%
X133640000Y-59550000D03*
%TO.C,SW6*%
X133640000Y-78600000D03*
%TO.C,SW10*%
X133640000Y-97650000D03*
%TO.C,SW14*%
X133640000Y-116700000D03*
%TO.C,SW3*%
X142530000Y-59550000D03*
%TO.C,SW7*%
X142530000Y-78600000D03*
%TO.C,SW11*%
X142530000Y-97650000D03*
%TO.C,SW15*%
X142530000Y-116700000D03*
%TO.C,SW3*%
X152690000Y-59550000D03*
%TO.C,SW7*%
X152690000Y-78600000D03*
%TO.C,SW11*%
X152690000Y-97650000D03*
%TO.C,SW15*%
X152690000Y-116700000D03*
%TO.C,SW4*%
X161580000Y-59550000D03*
%TO.C,SW8*%
X161580000Y-78600000D03*
%TO.C,SW12*%
X161580000Y-97650000D03*
%TO.C,SW16*%
X161580000Y-116700000D03*
%TO.C,SW4*%
X171740000Y-59550000D03*
%TO.C,SW8*%
X171740000Y-78600000D03*
%TO.C,SW12*%
X171740000Y-97650000D03*
%TO.C,SW16*%
X171740000Y-116700000D03*
D12*
%TO.C,SW1*%
X109510000Y-59550000D03*
%TO.C,SW5*%
X109510000Y-78600000D03*
%TO.C,SW9*%
X109510000Y-97650000D03*
%TO.C,SW13*%
X109510000Y-116700000D03*
%TO.C,SW2*%
X128560000Y-59550000D03*
%TO.C,SW6*%
X128560000Y-78600000D03*
%TO.C,SW10*%
X128560000Y-97650000D03*
%TO.C,SW14*%
X128560000Y-116700000D03*
%TO.C,SW3*%
X147610000Y-59550000D03*
%TO.C,SW7*%
X147610000Y-78600000D03*
%TO.C,SW11*%
X147610000Y-97650000D03*
%TO.C,SW15*%
X147610000Y-116700000D03*
%TO.C,SW4*%
X166660000Y-59550000D03*
%TO.C,SW8*%
X166660000Y-78600000D03*
%TO.C,SW12*%
X166660000Y-97650000D03*
%TO.C,SW16*%
X166660000Y-116700000D03*
M02*
